<svg xmlns="http://www.w3.org/2000/svg" xmlns:xlink="http://www.w3.org/1999/xlink" width="125.999" height="98.692" viewBox="0 0 125.999 98.692"><defs><style>.a{opacity:0.12;fill:url(#a);}.b{fill:#263238;}.c{fill:#fafafa;}.d{fill:#ebebeb;}.e{fill:#519d9b;}.f,.h{fill:#fff;}.f{stroke:#fff;stroke-width:0.3px;}.g{fill:#e0e0e0;}.i{fill:#455a64;}.j{fill:#ff725e;}.k{fill:#3ca8a4;}.l{fill:#74c1be;}.m{fill:#ffbe9d;}.n{opacity:0.3;}.o{fill:#eb996e;}</style><linearGradient id="a" x1="0.5" x2="0.5" y2="1" gradientUnits="objectBoundingBox"><stop offset="0" stop-color="#fff"/><stop offset="1" stop-color="#6fc8c2"/></linearGradient></defs><g transform="translate(-266 -126.862)"><path class="a" d="M77.009,173.107a63.9,63.9,0,0,1-63-53.108h126a63.339,63.339,0,0,1-7.563,21.018,63.817,63.817,0,0,1-55.436,32.089Z" transform="translate(251.99 52.446)"/><g transform="translate(265.495 35.22)"><g transform="translate(24.6 161.496)"><path class="b" d="M106.6,465.48c0,.026-18.358.048-41,.048s-41-.021-41-.048,18.354-.048,41-.048S106.6,465.453,106.6,465.48Z" transform="translate(-24.6 -465.432)"/></g><g transform="translate(39.81 91.642)"><g transform="translate(0 0)"><g transform="translate(0.048 0.048)"><path class="c" d="M140.423,122.975H126.142l-2.728,4.048-2.662-4.048H106.725a1.624,1.624,0,0,1-1.625-1.625V93.528a1.624,1.624,0,0,1,1.625-1.625h33.7a1.624,1.624,0,0,1,1.624,1.625v27.823A1.624,1.624,0,0,1,140.423,122.975Z" transform="translate(-105.1 -91.903)"/></g><path class="b" d="M140.21,122.762l.089-.007a1.612,1.612,0,0,0,1.134-.565,1.588,1.588,0,0,0,.342-.673,1.82,1.82,0,0,0,.037-.212c0-.073.01-.148.008-.225q0-.232,0-.483c0-.67,0-1.443,0-2.313,0-3.482-.009-8.519-.015-14.743,0-3.112,0-6.521-.006-10.181a1.592,1.592,0,0,0-1.1-1.55,1.924,1.924,0,0,0-.685-.078h-2.881l-6.013,0-12.912,0H106.564c-.075,0-.144.006-.216.008a1.783,1.783,0,0,0-.211.038,1.566,1.566,0,0,0-1.156,1.159,3.344,3.344,0,0,0-.046.788v2.4q0,1.59,0,3.161,0,3.141,0,6.2c0,4.069,0,8.012,0,11.791q0,1.417,0,2.8v.691a3.685,3.685,0,0,0,.03.677,1.585,1.585,0,0,0,1.359,1.261c.214.022.443.009.664.013h3.928l9.627,0h.02l.011.016,2.659,4.05h-.055l2.731-4.046.009-.013h.015l10.529.013,2.791.008.718,0c.161,0,.243,0,.243,0s-.082,0-.243,0l-.718,0-2.791.008-10.529.013.024-.013-2.724,4.051-.028.041-.027-.041-2.664-4.047.03.016-9.627,0h-3.928c-.224,0-.443.01-.675-.013a1.671,1.671,0,0,1-1.435-1.329,3.736,3.736,0,0,1-.032-.693q0-.344,0-.691,0-1.386,0-2.8c0-3.78,0-7.722,0-11.791q0-3.052,0-6.2,0-1.57,0-3.161V94.532q0-.4,0-.8v-.4a1.769,1.769,0,0,1,.048-.409,1.662,1.662,0,0,1,1.227-1.23,1.881,1.881,0,0,1,.224-.04c.075,0,.153-.01.226-.009h11.645l12.912,0,6.013,0h2.881a2.005,2.005,0,0,1,.71.082,1.68,1.68,0,0,1,1.02.939,1.735,1.735,0,0,1,.129.688c0,3.66,0,7.068-.006,10.181-.006,6.224-.012,11.261-.015,14.743,0,.87,0,1.643,0,2.313q0,.251,0,.483c0,.077-.006.154-.009.228a1.87,1.87,0,0,1-.039.215,1.629,1.629,0,0,1-1.236,1.206,1.509,1.509,0,0,1-.264.033Z" transform="translate(-104.839 -91.642)"/><g transform="translate(13 16.474)"><g transform="translate(0 0.097)"><path class="b" d="M177.006,182.431c0,.36-.27.585-.7.585h-.326v.446H175.6v-1.617h.7C176.735,181.844,177.006,182.068,177.006,182.431Zm-.379,0c0-.178-.116-.282-.344-.282h-.305v.562h.305C176.511,182.711,176.627,182.607,176.627,182.431Z" transform="translate(-175.603 -181.844)"/></g><g transform="translate(1.55 0.453)"><path class="b" d="M185.224,184.333v.709h-.337v-.155a.408.408,0,0,1-.379.173c-.291,0-.464-.162-.464-.377s.155-.372.534-.372h.286c0-.155-.092-.245-.286-.245a.6.6,0,0,0-.358.116l-.129-.252a.954.954,0,0,1,.536-.15C185,183.781,185.224,183.957,185.224,184.333Zm-.36.317v-.127h-.247c-.169,0-.222.062-.222.146s.076.15.2.15A.265.265,0,0,0,184.863,184.65Z" transform="translate(-184.043 -183.781)"/></g><g transform="translate(2.937 0.453)"><path class="b" d="M191.59,184.927l.12-.259a.851.851,0,0,0,.432.12c.166,0,.229-.044.229-.113,0-.2-.751,0-.751-.492,0-.236.213-.4.575-.4a1.023,1.023,0,0,1,.478.109l-.12.256a.715.715,0,0,0-.358-.092c-.162,0-.231.051-.231.116,0,.213.751.007.751.5,0,.231-.215.4-.587.4A1.068,1.068,0,0,1,191.59,184.927Z" transform="translate(-191.59 -183.781)"/></g><g transform="translate(4.164 0.453)"><path class="b" d="M198.269,184.927l.12-.259a.851.851,0,0,0,.432.12c.166,0,.229-.044.229-.113,0-.2-.751,0-.751-.492,0-.236.213-.4.575-.4a1.023,1.023,0,0,1,.478.109l-.12.256a.715.715,0,0,0-.358-.092c-.162,0-.231.051-.231.116,0,.213.751.007.751.5,0,.231-.215.4-.587.4A1.068,1.068,0,0,1,198.269,184.927Z" transform="translate(-198.269 -183.781)"/></g><g transform="translate(5.324 0.471)"><path class="b" d="M206.743,183.882l-.451,1.243h-.346l-.28-.772-.289.772h-.347l-.448-1.243h.34l.293.841.3-.841h.305l.3.841.3-.841Z" transform="translate(-204.583 -183.882)"/></g><g transform="translate(7.526 0.453)"><path class="b" d="M216.57,184.421a.684.684,0,1,1,.684.64A.64.64,0,0,1,216.57,184.421Zm1,0a.319.319,0,1,0-.317.344A.314.314,0,0,0,217.57,184.421Z" transform="translate(-216.57 -183.781)"/></g><g transform="translate(9.132 0.453)"><path class="b" d="M226.084,183.781v.333c-.03,0-.053,0-.081,0a.305.305,0,0,0-.33.347v.587h-.36V183.8h.344v.164A.5.5,0,0,1,226.084,183.781Z" transform="translate(-225.312 -183.781)"/></g><g transform="translate(10.019)"><path class="b" d="M231.5,181.316v1.714h-.344v-.143a.478.478,0,0,1-.388.162.64.64,0,0,1,0-1.28.477.477,0,0,1,.372.15v-.6Zm-.353,1.093a.319.319,0,1,0-.316.344A.315.315,0,0,0,231.142,182.409Z" transform="translate(-230.142 -181.316)"/></g></g><g transform="translate(6.116 20.979)"><rect class="d" width="4.354" height="6.024" rx="2.177"/></g><g transform="translate(6.116 20.942)"><g transform="translate(10.392 0.037)"><rect class="d" width="4.236" height="6.024" rx="2.118"/></g><g transform="translate(5.3 0.037)"><rect class="d" width="4.236" height="6.024" rx="2.118"/></g><g transform="translate(15.46 0.037)"><rect class="d" width="4.356" height="6.024" rx="2.178"/></g><g transform="translate(20.456 0.037)"><rect class="d" width="4.356" height="6.024" rx="2.178"/></g><g transform="translate(1.461 2.043)"><path class="e" d="M147.362,217.608l.466.252-.209.35-.47-.278.009.517h-.4l0-.521-.47.282-.205-.35.466-.252-.466-.256.205-.35.47.282,0-.521h.4l-.009.521.47-.282.209.35Z" transform="translate(-146.084 -216.762)"/></g><g transform="translate(6.536 2.015)"><path class="e" d="M174.986,217.456l.466.252-.209.351-.47-.278.008.517h-.4l0-.521-.47.282-.205-.351.466-.252-.466-.256.205-.35.47.282,0-.522h.4l-.008.522.47-.282.209.35Z" transform="translate(-173.708 -216.61)"/></g><g transform="translate(11.733 2.015)"><path class="e" d="M203.276,217.456l.466.252-.209.351-.47-.278.008.517h-.4l0-.521-.47.282-.205-.351.466-.252L202,217.2l.205-.35.47.282,0-.522h.4l-.008.522.47-.282.209.35Z" transform="translate(-201.998 -216.61)"/></g><g transform="translate(16.767 2.015)"><path class="e" d="M230.679,217.456l.466.252-.209.351-.47-.278.008.517h-.4l0-.521-.47.282-.205-.351.466-.252-.466-.256.205-.35.47.282,0-.522h.4l-.008.522.47-.282.209.35Z" transform="translate(-229.402 -216.61)"/></g><path class="b" d="M141.435,211.739h-2.253a1.052,1.052,0,0,1-1.05-1.05v-4a1.052,1.052,0,0,1,1.05-1.05h2.253a1.052,1.052,0,0,1,1.05,1.05v4A1.052,1.052,0,0,1,141.435,211.739Zm-2.253-6.025a.977.977,0,0,0-.976.976v4a.977.977,0,0,0,.976.976h2.253a.977.977,0,0,0,.976-.976v-4a.977.977,0,0,0-.976-.976Z" transform="translate(-138.132 -205.64)"/><g transform="translate(5.23)"><path class="b" d="M169.908,211.739h-2.253a1.052,1.052,0,0,1-1.05-1.05v-4a1.052,1.052,0,0,1,1.05-1.05h2.253a1.052,1.052,0,0,1,1.05,1.05v4A1.052,1.052,0,0,1,169.908,211.739Zm-2.253-6.025a.977.977,0,0,0-.976.976v4a.977.977,0,0,0,.976.976h2.253a.977.977,0,0,0,.976-.976v-4a.977.977,0,0,0-.976-.976Z" transform="translate(-166.604 -205.64)"/></g><g transform="translate(10.317)"><path class="b" d="M197.6,211.739h-2.253a1.052,1.052,0,0,1-1.05-1.05v-4a1.052,1.052,0,0,1,1.05-1.05H197.6a1.052,1.052,0,0,1,1.05,1.05v4A1.052,1.052,0,0,1,197.6,211.739Zm-2.253-6.025a.977.977,0,0,0-.976.976v4a.977.977,0,0,0,.976.976H197.6a.977.977,0,0,0,.976-.976v-4a.977.977,0,0,0-.976-.976Z" transform="translate(-194.294 -205.64)"/></g><g transform="translate(15.462)"><path class="b" d="M225.6,211.739h-2.253a1.052,1.052,0,0,1-1.05-1.05v-4a1.052,1.052,0,0,1,1.05-1.05H225.6a1.052,1.052,0,0,1,1.05,1.05v4A1.052,1.052,0,0,1,225.6,211.739Zm-2.253-6.025a.977.977,0,0,0-.976.976v4a.977.977,0,0,0,.976.976H225.6a.977.977,0,0,0,.976-.976v-4a.977.977,0,0,0-.976-.976Z" transform="translate(-222.298 -205.64)"/></g><g transform="translate(20.457)"><path class="b" d="M252.792,211.739h-2.253a1.051,1.051,0,0,1-1.05-1.05v-4a1.051,1.051,0,0,1,1.05-1.05h2.253a1.052,1.052,0,0,1,1.05,1.05v4A1.052,1.052,0,0,1,252.792,211.739Zm-2.253-6.025a.977.977,0,0,0-.976.976v4a.977.977,0,0,0,.976.976h2.253a.977.977,0,0,0,.976-.976v-4a.977.977,0,0,0-.976-.976Z" transform="translate(-249.489 -205.64)"/></g><g transform="translate(21.427 4.452)"><path class="e" d="M257.183,229.921a15.268,15.268,0,0,1-2.413,0,15.21,15.21,0,0,1,2.413,0Z" transform="translate(-254.77 -229.873)"/></g></g><g transform="translate(13.855 5)"><circle class="b" cx="4.866" cy="4.866" r="4.866"/><g transform="translate(3.259 2.577)"><g transform="translate(0.669)"><path class="f" d="M201.721,134.3h-.081v-.454a.949.949,0,1,1,1.9,0v.37h-.081v-.37a.868.868,0,1,0-1.736,0Z" transform="translate(-201.64 -132.892)"/></g><g transform="translate(0 1.363)"><path class="f" d="M200.81,143.524H198.4a.4.4,0,0,1-.4-.4v-2.413a.4.4,0,0,1,.4-.4h2.413a.4.4,0,0,1,.4.4v2.413A.4.4,0,0,1,200.81,143.524Zm-2.413-3.132a.319.319,0,0,0-.319.319v2.413a.32.32,0,0,0,.319.319h2.413a.32.32,0,0,0,.319-.319v-2.413a.319.319,0,0,0-.319-.319Z" transform="translate(-197.997 -140.311)"/><g transform="translate(1.24 0.928)"><path class="f" d="M205.124,146.122a.379.379,0,1,1,.379-.379A.379.379,0,0,1,205.124,146.122Zm0-.676a.3.3,0,1,0,.3.3A.3.3,0,0,0,205.124,145.446Z" transform="translate(-204.745 -145.365)"/><g transform="translate(0.327 0.7)"><rect class="f" width="0.081" height="0.684"/></g></g></g></g></g><g transform="translate(31.941 1.017)"><g transform="translate(0 0)"><circle class="g" cx="1.503" cy="1.503" r="1.503" transform="translate(0 2.935) rotate(-77.587)"/></g><g transform="translate(1.258 1.258)"><path class="h" d="M285.6,105.093a.046.046,0,0,1-.033-.078l.973-.973a.046.046,0,1,1,.065.065l-.973.973A.045.045,0,0,1,285.6,105.093Z" transform="translate(-285.556 -104.028)"/><path class="h" d="M286.575,105.093a.046.046,0,0,1-.033-.013l-.973-.973a.046.046,0,0,1,.065-.065l.973.973a.046.046,0,0,1-.033.078Z" transform="translate(-285.556 -104.028)"/></g></g></g></g><g transform="translate(26.567 130.731)"><g transform="translate(0 0)"><g transform="translate(0 5.46)"><path class="i" d="M43.16,343.826s-4.854-5.586-6.685-11.173-.962-4.945-.962-4.945a64.219,64.219,0,0,0,4.35,8.048c1.877,2.621,5.22,6.468,5.22,6.468Z" transform="translate(-35.307 -327.685)"/></g><g transform="translate(8.291 6.207)"><path class="i" d="M80.967,331.9a.283.283,0,0,0-.527.18,73.287,73.287,0,0,1,.91,9.554c-.033,3.88,0,5.38,0,5.38h2.02s-.359-8.02-.815-10.466A16.788,16.788,0,0,0,80.967,331.9Z" transform="translate(-80.437 -331.756)"/></g><g transform="translate(9.922 5.515)"><g transform="translate(0)"><path class="i" d="M89.318,343.288a21.4,21.4,0,0,0,1.663-6.032,23.482,23.482,0,0,0-.572-5.934,15.978,15.978,0,0,1-.255-2.855.482.482,0,0,1,.9-.226,12.826,12.826,0,0,1,1.129,2.853c.489,2.543,1.043,3.815.619,6.227a37.377,37.377,0,0,1-1.989,6.13Z" transform="translate(-89.318 -327.99)"/></g></g><g transform="translate(11.742 2.423)"><path class="i" d="M99.223,329.709s5.329-11.453,5.7-13.152,1.625-5.614,1.773-5.393a7.887,7.887,0,0,1-.591,4.654c-.96,2.364-5.061,14.239-5.061,14.239h-1.82" transform="translate(-99.223 -311.156)"/></g><g transform="translate(0.065 5.611)"><path class="b" d="M44.934,343.363a1.088,1.088,0,0,1-.149-.1c-.095-.072-.238-.172-.413-.315a18.832,18.832,0,0,1-1.432-1.264,24.031,24.031,0,0,1-3.866-4.962A32.517,32.517,0,0,1,36.434,331c-.268-.761-.464-1.383-.59-1.816-.065-.216-.11-.385-.141-.5a1.05,1.05,0,0,1-.041-.176,1.1,1.1,0,0,1,.063.17l.162.493c.14.428.347,1.046.624,1.8a34.573,34.573,0,0,0,2.661,5.686A25.089,25.089,0,0,0,43,341.623c.57.567,1.059,1,1.4,1.287.17.148.309.254.4.331A1.083,1.083,0,0,1,44.934,343.363Z" transform="translate(-35.661 -328.51)"/></g><g transform="translate(8.554 6.47)"><path class="b" d="M83.237,341.684a1.935,1.935,0,0,1-.048-.336l-.1-.918c-.084-.775-.216-1.844-.4-3.017s-.4-2.23-.562-2.992l-.194-.9a1.934,1.934,0,0,1-.06-.334,1.963,1.963,0,0,1,.1.324c.06.21.139.516.23.9.183.759.406,1.815.6,2.992s.308,2.249.372,3.027c.032.389.053.7.062.922A1.914,1.914,0,0,1,83.237,341.684Z" transform="translate(-81.869 -333.184)"/></g><g transform="translate(10.626 5.677)"><path class="b" d="M93.692,328.868a.819.819,0,0,1,.063.146l.16.425c.071.184.152.412.229.682s.182.572.259.917l.132.539c.045.188.076.386.117.589.087.406.141.848.206,1.31a19.576,19.576,0,0,1-.217,6.054c-.1.457-.183.893-.3,1.292-.055.2-.1.4-.159.58l-.17.528c-.1.338-.226.633-.324.9s-.193.485-.277.664l-.19.413a.833.833,0,0,1-.073.141.826.826,0,0,1,.052-.15l.17-.421c.077-.181.168-.4.258-.669s.211-.56.307-.9l.163-.528c.056-.184.1-.379.152-.579.112-.4.193-.833.287-1.288a20.233,20.233,0,0,0,.216-6.022c-.062-.461-.112-.9-.194-1.305-.039-.2-.068-.4-.11-.588l-.124-.538c-.072-.345-.169-.648-.242-.918s-.146-.5-.21-.686l-.139-.432A.828.828,0,0,1,93.692,328.868Z" transform="translate(-93.147 -328.868)"/></g><g transform="translate(12.613 2.662)"><path class="b" d="M110.5,312.458a.168.168,0,0,1,0,.051l-.024.149c-.024.13-.053.324-.105.57-.1.493-.274,1.2-.541,2.062s-.629,1.869-1.061,2.977-.93,2.317-1.4,3.6-.851,2.537-1.2,3.674-.671,2.159-.988,3a19.17,19.17,0,0,1-.841,1.958c-.109.227-.207.4-.271.513l-.075.131a.169.169,0,0,1-.029.043.178.178,0,0,1,.019-.048l.064-.136c.057-.12.148-.292.251-.521.215-.454.5-1.121.806-1.967s.624-1.866.963-3.005.71-2.4,1.192-3.683.977-2.5,1.412-3.6.808-2.108,1.082-2.963.459-1.558.575-2.047c.059-.244.095-.436.126-.565l.035-.147A.182.182,0,0,1,110.5,312.458Z" transform="translate(-103.965 -312.458)"/></g><g transform="translate(1.942)"><path class="i" d="M46.655,298.1a.459.459,0,0,0-.755.468,13.094,13.094,0,0,0,.67,1.722c.733,1.557,2.885,7.143,3.892,10.211s2.427,8.792,2.427,8.792l2.151-.349s-1.968-9.4-3.891-12.793C49.6,303.428,48.058,299.493,46.655,298.1Z" transform="translate(-45.878 -297.967)"/><g transform="translate(5.171 14.452)"><path class="b" d="M74.027,376.638a1.326,1.326,0,0,1,.111.258c.064.169.15.415.248.722.2.614.441,1.471.685,2.423s.447,1.819.588,2.448l.162.745a1.323,1.323,0,0,1,.044.277,1.333,1.333,0,0,1-.088-.267l-.2-.737-.62-2.438c-.244-.951-.474-1.81-.652-2.428l-.213-.731A1.343,1.343,0,0,1,74.027,376.638Z" transform="translate(-74.026 -376.638)"/></g><g transform="translate(0.248 0.097)"><path class="b" d="M55.072,319.547a.221.221,0,0,1-.012-.057l-.024-.169c-.023-.149-.043-.37-.088-.651-.079-.565-.22-1.38-.451-2.373a33.98,33.98,0,0,0-1.007-3.437c-.441-1.275-.995-2.652-1.622-4.077-1.266-2.847-2.53-5.372-3.361-7.24-.42-.931-.745-1.692-.959-2.222-.109-.264-.187-.472-.242-.612l-.06-.16a.222.222,0,0,1-.017-.056.224.224,0,0,1,.028.052l.07.156.261.6c.227.524.563,1.279.991,2.205.849,1.857,2.124,4.376,3.392,7.227.628,1.427,1.18,2.809,1.617,4.088a32.37,32.37,0,0,1,.986,3.453,24.043,24.043,0,0,1,.416,2.385c.039.283.052.505.067.655l.013.171A.223.223,0,0,1,55.072,319.547Z" transform="translate(-47.229 -298.493)"/></g><g transform="translate(6.806 11.937)"><path class="b" d="M85.28,371.987a2.307,2.307,0,0,1-.072-.362l-.168-.989c-.148-.833-.375-1.981-.7-3.231s-.685-2.363-.964-3.162l-.336-.945a2.275,2.275,0,0,1-.114-.35,2.291,2.291,0,0,1,.156.334c.093.218.222.536.371.934a31.323,31.323,0,0,1,1,3.161,32.834,32.834,0,0,1,.669,3.246c.061.42.108.76.132,1A2.258,2.258,0,0,1,85.28,371.987Z" transform="translate(-82.924 -362.948)"/></g></g><g transform="translate(5.391 20.667)"><g transform="translate(1.731)"><rect class="j" width="8.397" height="10.231"/></g><g transform="translate(1.731)"><rect class="k" width="8.397" height="10.231"/></g><rect class="l" width="7.45" height="10.231"/></g></g></g><g transform="translate(47.763 104.261)"><g transform="translate(0)"><g transform="translate(15.795 23.737)"><g transform="translate(13.266)"><path class="m" d="M317.04,283.727l-4.415-.64-8.831,1.307-2.479.876.44,5.419,8.49,1.564,5.73-1.7,2.166-3.187Z" transform="translate(-301.316 -283.086)"/></g><g transform="translate(0 0.288)"><g transform="translate(9.319)"><path class="e" d="M302.282,285.524l-3.695-.87s-2.612,8.075-9.058,7.727c-5.254-.283-5.314-6.148-5.314-6.148l-3.787,1.213s-1.448,9.712.155,16.593c.375,1.608.876,3.775.876,3.775l-.512,10.054,28,.045-6.669-32.388Z" transform="translate(-279.828 -284.654)"/></g><g class="n" transform="translate(20.795 28.913)"><path d="M342.3,444.388c1.363-.034,2.62.082,3.983.048a26.119,26.119,0,0,1,4.9.186c1.21.2,2.387.568,3.6.759a7.752,7.752,0,0,0,4.883-.628l-.237-1.372-5.58-1.343Z" transform="translate(-342.3 -442.039)"/></g><g transform="translate(0 2.712)"><path class="e" d="M235.859,301.761a7.923,7.923,0,0,1,3.41-2.342l1.432,12.473-2.713,18.16-8.887-.042S234,304.159,235.859,301.761Z" transform="translate(-229.102 -299.419)"/></g><g transform="translate(29.778 0.778)"><path class="e" d="M392.762,288.891s5.982.479,8.128,10.279c.971,4.433,2.2,9.628,2.551,13.119.256,2.532-1.12,6.5-3.645,6.821l-3.174.426a5.235,5.235,0,0,1-1.87-.069c-2-.46-2.208-1.836-2.562-3.3l-.927-2.925c-.507-2.781,2.085-3.3,3.516-3.269l-1.067-12.695Z" transform="translate(-391.199 -288.891)"/></g><g transform="translate(9.161 9.647)"><path class="b" d="M279.234,337.166a.75.75,0,0,0-.027.137l-.06.395-.041.286c-.011.106-.022.22-.035.342-.025.245-.055.525-.068.835a20.58,20.58,0,0,0-.015,2.18,26.211,26.211,0,0,0,.265,2.656c.137.937.31,1.823.486,2.624s.349,1.519.5,2.121.278,1.086.37,1.421l.107.385a.774.774,0,0,0,.044.132.734.734,0,0,0-.025-.137l-.09-.389-.34-1.428c-.14-.6-.31-1.321-.477-2.123s-.34-1.685-.477-2.62-.232-1.829-.271-2.646-.042-1.555-.006-2.172c.008-.309.034-.588.053-.833l.027-.342q.018-.156.033-.286l.042-.4A.752.752,0,0,0,279.234,337.166Z" transform="translate(-278.967 -337.166)"/></g><g transform="translate(33.329 21.824)"><path class="b" d="M415.248,406.929a1.072,1.072,0,0,0-.047-.247,3.931,3.931,0,0,0-.231-.645,4.4,4.4,0,0,0-3.511-2.555,3.949,3.949,0,0,0-.684-.022,1.065,1.065,0,0,0-.249.031,8.871,8.871,0,0,1,.925.058,4.525,4.525,0,0,1,3.458,2.517A8.96,8.96,0,0,1,415.248,406.929Z" transform="translate(-410.525 -403.455)"/></g><g transform="translate(33.361 20.402)"><path class="b" d="M414.009,395.728a.428.428,0,0,0-.145-.013,3.068,3.068,0,0,0-.394.017,4.554,4.554,0,0,0-2.383.98,3.094,3.094,0,0,0-.292.265c-.064.067-.1.107-.093.111s.162-.128.427-.323a5.257,5.257,0,0,1,2.35-.966C413.8,395.751,414.01,395.744,414.009,395.728Z" transform="translate(-410.702 -395.713)"/></g><g transform="translate(30.446 1.411)"><path class="b" d="M394.865,298.653a1.391,1.391,0,0,0,.014-.262c0-.168.011-.412.031-.712a11.4,11.4,0,0,1,1.26-4.487c.138-.267.257-.479.343-.624a1.393,1.393,0,0,0,.124-.231,1.376,1.376,0,0,0-.156.212c-.1.139-.224.347-.371.612a10.308,10.308,0,0,0-1.267,4.515c-.012.3-.011.547,0,.716A1.381,1.381,0,0,0,394.865,298.653Z" transform="translate(-394.834 -292.337)"/></g><g transform="translate(19.019 16.624)"><path class="b" d="M332.633,375.149a.429.429,0,0,0,.027.1c.023.066.049.166.1.289a6.023,6.023,0,0,0,.5,1.008,6.475,6.475,0,0,0,6.35,3.049,6,6,0,0,0,1.1-.242c.128-.037.222-.08.288-.1a.449.449,0,0,0,.1-.044c0-.008-.142.039-.4.111a6.807,6.807,0,0,1-1.1.21,6.516,6.516,0,0,1-6.284-3.018,6.805,6.805,0,0,1-.521-.986C332.691,375.284,332.641,375.146,332.633,375.149Z" transform="translate(-332.632 -375.149)"/></g><g transform="translate(31.626 28.016)"><path class="b" d="M401.258,439.552c.01-.008.1.125.327.309a2.992,2.992,0,0,0,1.095.522,5.826,5.826,0,0,0,1.8.158c.683-.049,1.437-.129,2.22-.246a11.324,11.324,0,0,0,2.167-.5,2.763,2.763,0,0,0,.8-.532,4.257,4.257,0,0,0,.557-.632,5.95,5.95,0,0,0,.611-1.061c.057-.133.1-.237.128-.309a.538.538,0,0,1,.048-.107.548.548,0,0,1-.03.113c-.021.074-.06.18-.112.317a5.458,5.458,0,0,1-.591,1.086,4.227,4.227,0,0,1-.558.651,2.809,2.809,0,0,1-.816.555,10.98,10.98,0,0,1-2.187.513c-.788.117-1.54.194-2.23.239a5.734,5.734,0,0,1-1.824-.181,2.9,2.9,0,0,1-1.1-.559,1.946,1.946,0,0,1-.234-.243A.539.539,0,0,1,401.258,439.552Z" transform="translate(-401.258 -437.156)"/></g><g transform="translate(30.638 10.851)"><path class="b" d="M395.881,343.72c.026-.006.656,2.442,1.408,5.469s1.341,5.486,1.316,5.492-.656-2.442-1.409-5.469S395.856,343.726,395.881,343.72Z" transform="translate(-395.881 -343.72)"/></g><g transform="translate(29.828 21.814)"><path class="b" d="M391.518,406.255a.784.784,0,0,1-.031-.2,3.415,3.415,0,0,1-.013-.556,1.611,1.611,0,0,1,.269-.784,2.334,2.334,0,0,1,.307-.386,2.11,2.11,0,0,1,.425-.316,5.324,5.324,0,0,1,1.741-.562,4.9,4.9,0,0,1,.553-.049.748.748,0,0,1,.2.007c0,.016-.288.027-.745.109a5.837,5.837,0,0,0-1.7.578,2.079,2.079,0,0,0-.408.3,2.355,2.355,0,0,0-.3.367,1.6,1.6,0,0,0-.275.743,4.768,4.768,0,0,0-.017.548A.892.892,0,0,1,391.518,406.255Z" transform="translate(-391.469 -403.399)"/></g><g class="n" transform="translate(8.515 9.242)"><path d="M276.643,343.6a9.231,9.231,0,0,1-.227-8.633,24.149,24.149,0,0,0,.273,8.622" transform="translate(-275.456 -334.965)"/></g></g><g transform="translate(11.888 24.124)"><g transform="translate(5.892 0.491)"><path class="m" d="M325.889,417.078l.011.005Z" transform="translate(-325.889 -417.078)"/></g><g transform="translate(5.958 0.522)"><path class="m" d="M326.246,417.248l.024.012Z" transform="translate(-326.246 -417.248)"/></g><g transform="translate(5.903 0.496)"><path class="m" d="M325.949,417.106l.055.026Z" transform="translate(-325.949 -417.106)"/></g><g transform="translate(5.868 0.48)"><path class="m" d="M325.758,417.015l.024.012Z" transform="translate(-325.758 -417.015)"/></g><path class="m" d="M294.065,420.045c.48-.908,4.233-3.3,4.233-3.3l-1.016-.235-1.122.474a2.759,2.759,0,0,1-.483,1.051c-.413.588-1.113-.02-1.113-.02l.474-2.272,2.219-1.336a21.876,21.876,0,0,1,2.425.48l.89.815c.391.306,1.518,1.514,1.827,1.55s10-2.143,10-2.143h0a7.594,7.594,0,0,1,2.239,4.648,1.673,1.673,0,0,1-.021,1.142l-11.891.933-2.52.7a17.717,17.717,0,0,1-2.07.711c-.838.176-1.4-.094-1.426-.558s.628-.514.628-.514a12.794,12.794,0,0,0,1.62-.713,2.845,2.845,0,0,0,.915-1l-.9.107s-1.91,1.326-2.628,1.715-.86-.325-.918-.542a18.092,18.092,0,0,1,2.145-2.372s-2.095,1.291-2.472,1.617-.935.423-1.055.2S293.585,420.953,294.065,420.045Z" transform="translate(-293.816 -414.404)"/><g transform="translate(5.982 0.534)"><path class="m" d="M326.378,417.311l.021.01Z" transform="translate(-326.378 -417.311)"/></g><g transform="translate(6.015 0.55)"><path class="m" d="M326.556,417.4Z" transform="translate(-326.556 -417.396)"/></g><g transform="translate(6.003 0.544)"><path class="m" d="M326.493,417.365l.012.006Z" transform="translate(-326.493 -417.365)"/></g><g transform="translate(8.585 2.844)"><path class="o" d="M342.545,432.893a.467.467,0,0,0,.011-.147.866.866,0,0,0-.012-.173,1.277,1.277,0,0,0-.041-.226,3.19,3.19,0,0,0-.609-1.173,6.825,6.825,0,0,0-.916-.952,2.723,2.723,0,0,0-.432-.335,4.38,4.38,0,0,0,.39.381,8.805,8.805,0,0,1,.888.96,3.488,3.488,0,0,1,.618,1.135C342.537,432.682,342.527,432.893,342.545,432.893Z" transform="translate(-340.546 -429.886)"/></g><g transform="translate(4.569 1.867)"><path class="o" d="M318.688,424.964a1.386,1.386,0,0,0,1.186-.4c-.016-.021-.245.149-.574.257S318.688,424.938,318.688,424.964Z" transform="translate(-318.688 -424.564)"/></g><g transform="translate(3.945 3.979)"><path class="o" d="M315.292,436.84a11.731,11.731,0,0,0,1.877-.772,11.7,11.7,0,0,0-1.877.772Z" transform="translate(-315.292 -436.065)"/></g><g transform="translate(5.958 5.64)"><path class="o" d="M326.246,445.489a7.959,7.959,0,0,0,.967-.378,1.934,1.934,0,0,0-.967.378Z" transform="translate(-326.245 -445.105)"/></g><g transform="translate(4.254 4.915)"><path class="o" d="M316.974,441.162a1.223,1.223,0,0,1,.584.767c.011,0,.022-.06.007-.155a.8.8,0,0,0-.44-.578C317.037,441.156,316.977,441.151,316.974,441.162Z" transform="translate(-316.973 -441.157)"/></g><g transform="translate(3.372 3.527)"><path class="o" d="M312.174,433.606c-.011.023.153.112.261.3a2.406,2.406,0,0,1,.135.376.447.447,0,0,0-.059-.42C312.386,433.646,312.179,433.582,312.174,433.606Z" transform="translate(-312.174 -433.601)"/></g><g transform="translate(3.474 0.237)"><path class="o" d="M312.925,416.507c.01,0,.044-.037.07-.118a.645.645,0,0,0-.15-.622c-.06-.061-.11-.082-.116-.073a.989.989,0,0,1,.2.813Z" transform="translate(-312.727 -415.692)"/></g><g transform="translate(18.459 0.561)"><path class="b" d="M396.743,423.728a1.511,1.511,0,0,1-.016-.273c0-.088,0-.2-.012-.319s-.011-.266-.03-.422a9.519,9.519,0,0,0-.519-2.383,8.627,8.627,0,0,0-.564-1.219c-.109-.175-.2-.347-.314-.5l-.153-.218-.153-.192c-.395-.486-.7-.734-.683-.75a1.5,1.5,0,0,1,.213.172,2.5,2.5,0,0,1,.234.221,4.137,4.137,0,0,1,.289.314l.159.19c.053.068.1.142.159.217.114.148.213.32.326.5a8.109,8.109,0,0,1,.577,1.231,8.722,8.722,0,0,1,.5,2.411c.014.157.013.3.016.425s0,.233,0,.321A1.476,1.476,0,0,1,396.743,423.728Z" transform="translate(-394.299 -417.455)"/></g></g><g class="n" transform="translate(33.348 22.007)"><path d="M414.156,403.335a5.978,5.978,0,0,0-3.524-.32h0a4.87,4.87,0,0,1,4.755,3.075c.086.229.255.5.5.462.225-.033.309-.315.309-.542A3.109,3.109,0,0,0,414.156,403.335Z" transform="translate(-410.632 -402.883)"/></g><g transform="translate(5.973 6.594)"><path class="h" d="M265,321.483a.582.582,0,0,1-.159-.053c-.1-.039-.242-.1-.414-.189a8.835,8.835,0,0,1-2.409-1.78c-.132-.14-.236-.256-.3-.34a.569.569,0,0,1-.1-.136c.011-.01.173.164.448.429a11.207,11.207,0,0,0,2.393,1.768A6.17,6.17,0,0,1,265,321.483Z" transform="translate(-261.614 -318.983)"/></g><g transform="translate(9.42 9.787)"><path class="h" d="M301.523,336.359a.262.262,0,0,1-.046.031l-.141.085c-.123.075-.31.177-.553.306a15.449,15.449,0,0,1-2.141.9,20.378,20.378,0,0,1-3.349.805,32.311,32.311,0,0,1-4.2.349c-1.5.036-2.922.008-4.218-.021a28.325,28.325,0,0,1-3.435-.259,13.414,13.414,0,0,1-2.262-.525c-.26-.088-.46-.162-.592-.219l-.152-.063a.235.235,0,0,1-.05-.025.257.257,0,0,1,.054.016l.155.054c.135.052.336.12.6.2a14.276,14.276,0,0,0,2.26.494,29.393,29.393,0,0,0,3.427.238c1.295.024,2.72.05,4.213.014a33.146,33.146,0,0,0,4.192-.341,20.933,20.933,0,0,0,3.341-.782,16.655,16.655,0,0,0,2.146-.87c.245-.123.434-.219.56-.289l.146-.076A.243.243,0,0,1,301.523,336.359Z" transform="translate(-280.381 -336.359)"/></g><g transform="translate(3.756 14.631)"><path class="h" d="M255.212,364.427a1.1,1.1,0,0,1-.228-.049l-.611-.167c-.515-.145-1.225-.352-2.007-.586s-1.489-.451-2-.612l-.6-.2a.117.117,0,1,1,.011-.036l.611.167c.515.145,1.225.352,2.007.586s1.488.451,2,.612l.6.2A1.09,1.09,0,0,1,255.212,364.427Z" transform="translate(-249.548 -362.731)"/></g><g transform="translate(1.788 24.043)"><path class="h" d="M247,416.407c-.008.025-1.842-.5-4.1-1.175s-4.077-1.242-4.07-1.267,1.842.5,4.1,1.176S247.011,416.381,247,416.407Z" transform="translate(-238.837 -413.963)"/></g><g transform="translate(30.659 4.519)"><path class="h" d="M401.839,307.688a1.333,1.333,0,0,1-.2.159c-.133.1-.331.234-.579.4a19.731,19.731,0,0,1-4.149,2.038c-.28.1-.508.171-.667.216a1.335,1.335,0,0,1-.25.063,1.311,1.311,0,0,1,.238-.1l.656-.245c.552-.211,1.307-.523,2.116-.919s1.517-.8,2.021-1.112l.595-.369A1.311,1.311,0,0,1,401.839,307.688Z" transform="translate(-395.991 -307.688)"/></g><g transform="translate(32.001 14.957)"><path class="h" d="M411.465,364.5a2.171,2.171,0,0,1-.3.141c-.194.087-.479.2-.836.332a19.412,19.412,0,0,1-5.8,1.154c-.38.015-.687.019-.9.013a2.171,2.171,0,0,1-.329-.016,2.175,2.175,0,0,1,.329-.021c.212-.006.518-.02.9-.044a22.072,22.072,0,0,0,5.784-1.15c.358-.122.646-.227.844-.3A2.2,2.2,0,0,1,411.465,364.5Z" transform="translate(-403.3 -364.503)"/></g><g transform="translate(32.59 22.194)"><path class="h" d="M408.792,413.356a.419.419,0,0,1,.009-.1l.046-.29c.022-.125.047-.279.064-.458s.05-.382.058-.61q.01-.17.021-.355c.007-.124,0-.253.005-.386.008-.267-.011-.551-.025-.851a11.552,11.552,0,0,0-.912-3.774c-.124-.273-.237-.535-.366-.769-.063-.118-.118-.234-.181-.341l-.181-.306c-.111-.2-.232-.365-.33-.516s-.189-.277-.266-.378l-.172-.237a.423.423,0,0,1-.055-.087.411.411,0,0,1,.07.075l.187.226a4.549,4.549,0,0,1,.281.37c.1.149.229.314.344.511l.188.305c.065.107.122.223.187.341.133.234.249.5.377.77a11.151,11.151,0,0,1,.919,3.8c.012.3.028.589.016.857,0,.134,0,.264-.011.388l-.028.357c-.013.228-.049.432-.073.612a4.581,4.581,0,0,1-.081.458l-.063.287A.419.419,0,0,1,408.792,413.356Z" transform="translate(-406.507 -403.896)"/></g><g transform="translate(33.49 21.749)"><path class="h" d="M419.889,405.749c-.01,0-.015-.15-.057-.414a3.593,3.593,0,0,0-.361-1.07,4.5,4.5,0,0,0-1.038-1.308,5.443,5.443,0,0,0-1.765-1.033,6.914,6.914,0,0,0-2.023-.357,13.076,13.076,0,0,0-1.687.063c-.479.045-.867.093-1.135.124l-.309.033a.455.455,0,0,1-.109.005.473.473,0,0,1,.106-.024l.307-.051c.267-.042.653-.1,1.133-.154a12.169,12.169,0,0,1,1.7-.084,6.832,6.832,0,0,1,2.051.354,5.428,5.428,0,0,1,1.792,1.057,4.459,4.459,0,0,1,1.04,1.344,3.41,3.41,0,0,1,.337,1.1,2.3,2.3,0,0,1,.022.311A.456.456,0,0,1,419.889,405.749Z" transform="translate(-411.406 -401.475)"/></g><g transform="translate(11.905 20.702)"><path class="h" d="M304.21,395.779a.435.435,0,0,1-.1.018l-.3.031-1.1.092c-.931.072-2.218.16-3.641.234s-2.713.119-3.647.13c-.467,0-.845,0-1.106,0l-.3-.009a.447.447,0,0,1-.1-.01.434.434,0,0,1,.1-.01l.3-.008,1.1-.027c.933-.027,2.221-.083,3.644-.157l3.641-.206,1.1-.062.3-.013A.438.438,0,0,1,304.21,395.779Z" transform="translate(-293.905 -395.776)"/></g><g class="n" transform="translate(20.149 18.964)"><path d="M341.91,388.437a6.692,6.692,0,0,0,3.89-.006,3.77,3.77,0,0,1-4.063,1.3,4.185,4.185,0,0,1-2.954-3.416A6.325,6.325,0,0,0,341.91,388.437Z" transform="translate(-338.782 -386.314)"/></g><g transform="translate(23.362 19.874)"><path class="h" d="M365.574,391.271a.364.364,0,0,1-.092.026l-.267.057c-.232.048-.57.111-.988.184-.836.147-1.994.327-3.28.484s-2.454.261-3.3.32c-.423.03-.766.05-1,.059l-.273.009a.371.371,0,0,1-.1,0,.359.359,0,0,1,.094-.016l.272-.027,1-.09c.844-.076,2.01-.191,3.294-.348s2.443-.326,3.28-.456l.992-.154.27-.039A.358.358,0,0,1,365.574,391.271Z" transform="translate(-356.275 -391.269)"/></g><g class="n" transform="translate(30.681 11.697)"><path d="M396.171,346.756c-.29,3.325.616,6.625,1.514,9.84a1.4,1.4,0,0,0,.247.555.477.477,0,0,0,.548.152c.28-.141.243-.548.164-.851l-2.5-9.559" transform="translate(-396.116 -346.756)"/></g></g><g transform="translate(0 37.878)"><g transform="translate(0.003 0.01)"><path class="g" d="M143.152,360.977l3.776,18.536H179.7a.655.655,0,0,0,.655-.655h0a.655.655,0,0,0-.655-.655h-6.6l-3.5-17.239a.716.716,0,0,0-.694-.573l-25.047-.273A.716.716,0,0,0,143.152,360.977Z" transform="translate(-143.137 -360.119)"/></g><path class="b" d="M143.139,360.934s0-.018-.01-.056a.646.646,0,0,1,0-.168.721.721,0,0,1,.347-.542.74.74,0,0,1,.216-.086,1.153,1.153,0,0,1,.258-.016l.59,0,1.475.012,9.471.09,6.6.067,3.7.038,1.94.02.992.01c.085,0,.164,0,.254.006a.75.75,0,0,1,.253.073.758.758,0,0,1,.36.377,1.173,1.173,0,0,1,.068.252l.051.249.1.5.206,1.012.42,2.062.868,4.268,1.838,9.044-.044-.036h6.488a1.212,1.212,0,0,1,.255.015.7.7,0,0,1,.188,1.3.71.71,0,0,1-.308.083h-8.538l-8.872,0-15.387-.008h-.028l-.006-.028-2.743-13.544-.745-3.7-.192-.966c-.043-.218-.062-.33-.062-.33s.026.111.072.328l.2.964.763,3.7,2.773,13.538-.034-.028,15.387-.008,8.872,0h8.535a.606.606,0,0,0,.58-.516.609.609,0,0,0-.475-.688,1.121,1.121,0,0,0-.236-.013h-6.525l-.007-.036-1.835-9.044-.865-4.268-.418-2.062-.205-1.012-.1-.5-.051-.249a1.108,1.108,0,0,0-.063-.236.68.68,0,0,0-.322-.338.67.67,0,0,0-.227-.066c-.076-.007-.164,0-.246-.006l-.992-.011-1.94-.022-3.7-.043-6.6-.078-9.471-.117-1.474-.02-.59-.008a1.129,1.129,0,0,0-.254.014.729.729,0,0,0-.212.082.715.715,0,0,0-.347.528A.951.951,0,0,0,143.139,360.934Z" transform="translate(-143.122 -360.066)"/><g transform="translate(12.954 8.269)"><path class="h" d="M215.8,406.159a1.082,1.082,0,1,1-1.082-1.082A1.082,1.082,0,0,1,215.8,406.159Z" transform="translate(-213.639 -405.077)"/></g><g transform="translate(0.048 1.013)"><path class="b" d="M143.383,365.584s.038,0,.113,0l.331,0,1.274,0,4.686.023,15.46.109,2.236.018.549,0a1.431,1.431,0,0,1,.281.017.783.783,0,0,1,.6.559c.041.181.071.353.107.528l.8,4.026,1.348,6.819.9,4.6.24,1.251.06.326c.013.073.018.112.018.112s-.011-.037-.027-.11l-.069-.324-.257-1.248L171.1,377.7l-1.367-6.815-.8-4.025c-.035-.173-.068-.353-.106-.522a.693.693,0,0,0-.53-.495,1.359,1.359,0,0,0-.264-.015l-.549,0-2.236-.017-15.459-.136-4.686-.051-1.274-.019-.331-.007C143.421,365.587,143.383,365.584,143.383,365.584Z" transform="translate(-143.383 -365.578)"/></g></g><g transform="translate(25.504)"><g transform="translate(12.707 10.745)"><path class="b" d="M356.728,212.366a12.134,12.134,0,0,1-3.873,9.162l-1.731-5.015" transform="translate(-351.124 -212.366)"/></g><g transform="translate(2.471)"><path class="b" d="M298.192,154.647a7.355,7.355,0,0,1,4.942-.6,15.58,15.58,0,0,1,4.673,1.932,7.63,7.63,0,0,1,2.234,1.743,10.846,10.846,0,0,1,2.249,5.318,19.135,19.135,0,0,1-1.043,6.175c-.543,1.167-3.084,2.055-4.338,2.343L295.4,158.178A5.826,5.826,0,0,1,298.192,154.647Z" transform="translate(-295.402 -153.877)"/></g><g transform="translate(0 2.082)"><path class="b" d="M285.229,165.7l2.758-.493c-1.508,3.591-1.917,11.8-2.779,15.6-1.017-1.475-3.378-5.969-3.252-7.757S281.951,165.4,285.229,165.7Z" transform="translate(-281.951 -165.209)"/></g><g transform="translate(1.507 2.575)"><path class="m" d="M305.006,173.872a4.712,4.712,0,0,0-3.545-4.339l-6.353-1.621c-2.745-.3-4.579,3.081-4.759,5.836a43.656,43.656,0,0,0,.035,8.577c.719,4.6,4.239,5.188,4.239,5.188s0,2.186,0,3.527l2.126,8.8,6.851-9.463,1.418-16.45C305.024,173.849,305.013,173.977,305.006,173.872Z" transform="translate(-290.157 -167.895)"/></g><g transform="translate(3.08 11.369)"><path class="b" d="M298.718,216.3a.589.589,0,0,0,.567.6.564.564,0,0,0,.609-.53.589.589,0,0,0-.566-.6A.564.564,0,0,0,298.718,216.3Z" transform="translate(-298.718 -215.766)"/></g><g transform="translate(2.381 9.613)"><path class="b" d="M294.92,206.82c.073.077.52-.252,1.154-.249s1.1.321,1.167.244c.034-.034-.04-.173-.242-.321a1.616,1.616,0,0,0-.934-.29,1.552,1.552,0,0,0-.919.294C294.95,206.646,294.884,206.785,294.92,206.82Z" transform="translate(-294.91 -206.203)"/></g><g transform="translate(8.606 11.369)"><path class="b" d="M328.8,216.3a.589.589,0,0,0,.567.6.564.564,0,0,0,.608-.53.589.589,0,0,0-.566-.6A.564.564,0,0,0,328.8,216.3Z" transform="translate(-328.8 -215.766)"/></g><g transform="translate(8.401 9.613)"><path class="b" d="M327.694,206.82c.073.077.521-.252,1.154-.249s1.1.321,1.167.244c.034-.034-.039-.173-.242-.321a1.616,1.616,0,0,0-.934-.29,1.553,1.553,0,0,0-.919.294C327.725,206.646,327.658,206.785,327.694,206.82Z" transform="translate(-327.684 -206.203)"/></g><g transform="translate(4.814 9.927)"><path class="b" d="M309.773,213.195a4.223,4.223,0,0,0-1.029-.188c-.162-.017-.315-.05-.342-.16a.825.825,0,0,1,.109-.48l.482-1.232a21.21,21.21,0,0,0,1.082-3.222,21.226,21.226,0,0,0-1.339,3.127q-.241.648-.461,1.239a.937.937,0,0,0-.085.635.406.406,0,0,0,.266.237,1.085,1.085,0,0,0,.275.039A4.1,4.1,0,0,0,309.773,213.195Z" transform="translate(-308.159 -207.913)"/></g><g transform="translate(5.974 20.56)"><path class="o" d="M320.564,265.794s-1.495,3.155-6.092,2.715v-1.081A11.572,11.572,0,0,0,320.564,265.794Z" transform="translate(-314.471 -265.794)"/></g><g transform="translate(8.606 7.466)"><path class="b" d="M328.8,194.99c.062.173.7.092,1.439.184s1.345.3,1.444.141c.044-.074-.06-.236-.3-.4a2.52,2.52,0,0,0-2.2-.247C328.914,194.773,328.777,194.908,328.8,194.99Z" transform="translate(-328.8 -194.518)"/></g><g transform="translate(2.581 7.636)"><path class="b" d="M296.015,196.1c.111.144.548,0,1.073-.01.525-.024.97.1,1.072-.051.045-.073-.025-.217-.219-.354a1.554,1.554,0,0,0-1.729.05C296.027,195.878,295.966,196.026,296.015,196.1Z" transform="translate(-295.999 -195.443)"/></g><g transform="translate(2.865 0.796)"><path class="b" d="M297.632,161.646a2.021,2.021,0,0,1,1.785-1.144,3.922,3.922,0,0,1,2.119.618c2.736,1.581,4.142,5.4,6.845,7.037.665.4,1.53.034,2.1.567a1.95,1.95,0,0,1,.619,2.1,6.435,6.435,0,0,0,.938-1.586,2.171,2.171,0,0,0-.076-1.791c-.234-.405-.647-.715-.76-1.169a6.15,6.15,0,0,1,.041-1.228,2.677,2.677,0,0,0-.421-1.172,11.924,11.924,0,0,0-4.391-4.62,7.773,7.773,0,0,0-4.032-1.043,5.946,5.946,0,0,0-3.836,1.523c-.6.564-1.24,1.147-.927,1.912" transform="translate(-297.549 -158.208)"/></g><g transform="translate(15.727 11.634)"><path class="m" d="M367.559,217.453a1.6,1.6,0,0,1,2.477,1.55,1.859,1.859,0,0,1-2.471,1.916C367.56,220.849,367.559,217.453,367.559,217.453Z" transform="translate(-367.559 -217.206)"/><g transform="translate(0.758 0.807)"><path class="o" d="M371.687,223.563c.011-.008.044.03.117.062a.431.431,0,0,0,.322,0,1.067,1.067,0,0,0,.485-.962,1.424,1.424,0,0,0-.126-.616.5.5,0,0,0-.327-.328.22.22,0,0,0-.253.121c-.032.07-.016.119-.029.123s-.054-.041-.035-.143a.274.274,0,0,1,.1-.156.324.324,0,0,1,.238-.065.6.6,0,0,1,.454.379,1.462,1.462,0,0,1,.156.688,1.119,1.119,0,0,1-.619,1.074.461.461,0,0,1-.4-.062C371.692,223.623,371.679,223.567,371.687,223.563Z" transform="translate(-371.685 -221.601)"/></g></g><g transform="translate(3.397 2.27)"><path class="i" d="M313.758,174.575a.971.971,0,0,1-.149-.083c-.095-.06-.241-.14-.415-.264a8.516,8.516,0,0,1-1.336-1.216,23.826,23.826,0,0,1-1.634-2.122,19.482,19.482,0,0,0-2.042-2.543,7.766,7.766,0,0,0-1.318-1.041,6.408,6.408,0,0,0-1.424-.646,7.047,7.047,0,0,0-2.621-.322,6.757,6.757,0,0,0-1.756.344c-.2.062-.354.13-.458.17a.947.947,0,0,1-.162.057.971.971,0,0,1,.152-.078,4.175,4.175,0,0,1,.453-.191,6.407,6.407,0,0,1,1.765-.382,7,7,0,0,1,2.658.3,6.461,6.461,0,0,1,1.449.65,7.794,7.794,0,0,1,1.34,1.055,18.95,18.95,0,0,1,2.048,2.563,25.415,25.415,0,0,0,1.609,2.13,9.17,9.17,0,0,0,1.3,1.233c.169.128.31.214.4.28A.966.966,0,0,1,313.758,174.575Z" transform="translate(-300.444 -166.236)"/></g><g transform="translate(16.328 14.813)"><g transform="translate(0.044 0.02)"><path class="h" d="M371.472,234.629a.487.487,0,1,1-.115.037" transform="translate(-371.077 -234.621)"/></g><path class="b" d="M371.159,234.577a.665.665,0,0,0-.223.332.419.419,0,0,0,.1.388.433.433,0,0,0,.761-.242.419.419,0,0,0-.146-.373.666.666,0,0,0-.374-.142c0-.006.038-.026.116-.027a.5.5,0,0,1,.309.108.5.5,0,0,1,.2.446.531.531,0,0,1-.942.3.5.5,0,0,1-.1-.479.507.507,0,0,1,.189-.267C371.113,234.578,371.157,234.571,371.159,234.577Z" transform="translate(-370.835 -234.512)"/></g><g transform="translate(12.865 7.796)"><path class="b" d="M355.2,199.826a3.812,3.812,0,0,1-.242,1.99,1.313,1.313,0,0,1-1.687.673,1.87,1.87,0,0,1-.7-1.434c-.235-1.576-.342-3.169-.59-4.743Z" transform="translate(-351.98 -196.312)"/></g><g transform="translate(3.557 2.941)"><path class="i" d="M301.316,170c0,.014.219-.041.615-.054a4.234,4.234,0,0,1,1.638.3,5.393,5.393,0,0,1,1.026.528,11.14,11.14,0,0,1,1.058.808,12.724,12.724,0,0,1,2.072,2.234c.314.441.593.9.894,1.315a6.292,6.292,0,0,0,.992,1.115,11.031,11.031,0,0,0,2.091,1.4c.633.335,1.162.569,1.527.731l.423.18a.724.724,0,0,0,.152.054.706.706,0,0,0-.14-.08l-.412-.2c-.358-.177-.88-.425-1.5-.768a11.423,11.423,0,0,1-2.053-1.408,6.256,6.256,0,0,1-.966-1.1c-.3-.416-.574-.87-.892-1.317a12.474,12.474,0,0,0-2.1-2.251,10.8,10.8,0,0,0-1.078-.807,5.364,5.364,0,0,0-1.054-.524,4.089,4.089,0,0,0-1.674-.261,2.9,2.9,0,0,0-.458.064A.71.71,0,0,0,301.316,170Z" transform="translate(-301.316 -169.888)"/></g><g transform="translate(16.157 6.606)"><path class="i" d="M369.9,193.012a1.1,1.1,0,0,0,.219.148l.627.368.211.121a.662.662,0,0,0,.271.09.26.26,0,0,0,.168-.039.216.216,0,0,0,.093-.163.553.553,0,0,0-.117-.313l-.727-1.165-.1.091a2.589,2.589,0,0,0,1.681.5.742.742,0,0,0,.224-.038.3.3,0,0,0,.192-.167.268.268,0,0,0-.041-.25,1.04,1.04,0,0,0-.141-.155,5.219,5.219,0,0,1-.843-1.063,8.834,8.834,0,0,1-.536-1.14,1.289,1.289,0,0,0,.078.333,4.644,4.644,0,0,0,.373.856,4.99,4.99,0,0,0,.838,1.105c.092.087.184.188.148.266s-.17.116-.3.117a2.5,2.5,0,0,1-1.592-.474l-.3-.216.2.307.742,1.155a.469.469,0,0,1,.105.242.118.118,0,0,1-.142.105,1.27,1.27,0,0,1-.445-.183l-.646-.332A1.094,1.094,0,0,0,369.9,193.012Z" transform="translate(-369.902 -189.837)"/></g><g transform="translate(7.217 15.746)"><path class="o" d="M322.859,240.221a.827.827,0,0,0-.855-.628.864.864,0,0,0-.665.473,1.063,1.063,0,0,0-.038.827l.013.059a.942.942,0,0,0,1.06.226A.881.881,0,0,0,322.859,240.221Z" transform="translate(-321.236 -239.59)"/></g><g transform="translate(6.836 15.318)"><path class="b" d="M319.164,239.064c0-.1.64-.066,1.122-.592s.446-1.212.536-1.212c.041-.007.117.158.111.447a1.6,1.6,0,0,1-.411,1.014,1.392,1.392,0,0,1-.939.455C319.313,239.187,319.158,239.108,319.164,239.064Z" transform="translate(-319.164 -237.26)"/></g></g><g transform="translate(37.045 56.056)"><path class="h" d="M361.667,459.019a.145.145,0,0,1-.043.008l-.128.013-.491.041c-.426.034-1.044.076-1.807.121-1.527.09-3.638.183-5.972.222s-4.448.017-5.977-.023c-.765-.019-1.383-.04-1.81-.06l-.492-.024-.128-.009a.159.159,0,0,1-.044-.006.153.153,0,0,1,.044,0h.128l.492.006,1.81.03c1.529.022,3.641.033,5.974-.005s4.443-.121,5.97-.194l1.808-.09.492-.023.128,0A.156.156,0,0,1,361.667,459.019Z" transform="translate(-344.776 -459.017)"/></g></g></g></g></g></svg>