<svg xmlns="http://www.w3.org/2000/svg" xmlns:xlink="http://www.w3.org/1999/xlink" width="125.999" height="114.182" viewBox="0 0 125.999 114.182"><defs><style>.a{opacity:0.12;fill:url(#a);}.b{fill:#f5f5f5;}.c{fill:#e0e0e0;}.d{fill:#455a64;}.e{fill:#263238;}.f{fill:#fafafa;}.g{fill:#ebebeb;}.h{fill:#519d9b;}.i{fill:#eb996e;}.j{fill:#ffbe9d;}.k,.l{opacity:0.2;}.m{fill:#e8505b;}.n{opacity:0.3;}.o{opacity:0.7;}</style><linearGradient id="a" x1="0.5" x2="0.5" y2="1" gradientUnits="objectBoundingBox"><stop offset="0" stop-color="#fff"/><stop offset="1" stop-color="#6fc8c2"/></linearGradient></defs><g transform="translate(-538 -240.372)"><path class="a" d="M77.009,173.107a63.9,63.9,0,0,1-63-53.108h126a63.339,63.339,0,0,1-7.563,21.018,63.817,63.817,0,0,1-55.436,32.089Z" transform="translate(523.991 181.446)"/><g transform="translate(505.938 204.009)"><g transform="translate(53.332 38.202)"><g transform="translate(0 33.59)"><path class="b" d="M53.332,211.805v10.917a3.576,3.576,0,0,0,3.576,3.577H96.055a3.577,3.577,0,0,0,3.577-3.577V213.5l4.874-5.12-47.586-.149A3.576,3.576,0,0,0,53.332,211.805Z" transform="translate(-53.332 -208.229)"/><g transform="translate(5.006 5.358)"><path class="c" d="M110.7,232.865,75.176,232.7l0-1.092,35.523.164Z" transform="translate(-75.176 -231.609)"/></g><g transform="translate(5.006 8.95)"><path class="c" d="M110.7,248.538l-35.523-.164,0-1.092,35.523.164Z" transform="translate(-75.176 -247.282)"/></g><g transform="translate(26.474 12.547)"><rect class="c" width="1.092" height="14.056" transform="translate(0 1.092) rotate(-89.718)"/></g></g><g transform="translate(28.813 67.336)"><path class="b" d="M211.6,376.4v10.918a3.576,3.576,0,0,0,3.576,3.577h39.147a3.577,3.577,0,0,0,3.577-3.577V378.1l4.873-5.12-47.586-.149A3.577,3.577,0,0,0,211.6,376.4Z" transform="translate(-211.602 -372.828)"/><g transform="translate(5.176 5.075)"><path class="c" d="M269.711,396.227l-35.523-.164,0-1.092,35.523.164Z" transform="translate(-234.188 -394.971)"/></g><g transform="translate(5.176 8.667)"><path class="c" d="M269.711,411.9l-35.523-.164,0-1.092,35.523.164Z" transform="translate(-234.188 -410.644)"/></g><g transform="translate(26.644 12.263)"><rect class="c" width="1.092" height="14.056" transform="translate(0 1.092) rotate(-89.718)"/></g></g><path class="b" d="M144.63,44.39h23.089a2.069,2.069,0,0,1,2.07,2.069V57.753a2.069,2.069,0,0,1-2.07,2.069H148.126a2.069,2.069,0,0,1-2.07-2.069V45.817Z" transform="translate(-126.212 -44.39)"/><g transform="translate(0.369 8.607)"><path class="c" d="M88.881,84.316v7.241a2.372,2.372,0,0,1-2.372,2.372H60.545a2.372,2.372,0,0,1-2.372-2.372V85.439l-3.232-3.4,31.561-.1A2.372,2.372,0,0,1,88.881,84.316Z" transform="translate(-54.94 -81.944)"/><g transform="translate(7.057 3.554)"><path class="b" d="M85.736,98.284l23.561-.109,0-.724-23.561.109Z" transform="translate(-85.733 -97.451)"/></g><g transform="translate(7.057 5.936)"><path class="b" d="M85.736,108.679l23.561-.109,0-.724-23.561.109Z" transform="translate(-85.733 -107.846)"/></g><g transform="translate(7.057 8.321)"><rect class="b" width="9.322" height="0.724" transform="translate(0 0.046) rotate(-0.282)"/></g></g><g transform="translate(42.094 38.069)"><path class="c" d="M303.492,230.826v7.241a2.372,2.372,0,0,1-2.372,2.372H275.156a2.372,2.372,0,0,1-2.372-2.372v-6.118l-3.232-3.4,31.561-.1A2.372,2.372,0,0,1,303.492,230.826Z" transform="translate(-269.551 -228.454)"/><g transform="translate(7.057 3.554)"><path class="b" d="M300.346,244.794l23.561-.109,0-.724-23.561.109Z" transform="translate(-300.344 -243.961)"/></g><g transform="translate(7.057 5.936)"><path class="b" d="M300.346,255.189l23.561-.109,0-.724-23.561.109Z" transform="translate(-300.344 -254.356)"/></g><g transform="translate(7.056 8.322)"><rect class="b" width="9.322" height="0.724" transform="translate(0 0.046) rotate(-0.282)"/></g></g></g><g transform="translate(60.203 51.36)"><g transform="translate(0 0)"><path class="d" d="M149.307,154.245a2.551,2.551,0,0,1-.877-2.406,3.388,3.388,0,0,1,1.458-2.174,1.427,1.427,0,0,1,1.163-.3,1.091,1.091,0,0,1,.706.851,2.214,2.214,0,0,1-.133,1.141,4.384,4.384,0,0,1-2.318,2.891" transform="translate(-140.939 -146.37)"/><path class="d" d="M125.924,175.021a5.968,5.968,0,0,0-5.274-1.381c-.469.109-1,.356-1.074.831s.348.879.765,1.121a5.1,5.1,0,0,0,5.639-.454" transform="translate(-118.718 -165.002)"/><path class="d" d="M116.342,136.519a2.99,2.99,0,0,1,2.307.4,5.279,5.279,0,0,1,1.65,1.724,9.315,9.315,0,0,1,1.16,4.628,6.308,6.308,0,0,1-3.9-2.158c-1.112-1.16-2.418-3.932-1.218-4.591" transform="translate(-115.864 -136.432)"/><g transform="translate(8.311 4.989)"><path class="e" d="M153.629,165.576a6.157,6.157,0,0,1-.43-.65,10.94,10.94,0,0,1-.971-2.767,5.489,5.489,0,0,1,.215-2.918,3.6,3.6,0,0,1,.417-.791,1.007,1.007,0,0,1,.213-.249,7.635,7.635,0,0,0-.514,1.082,5.757,5.757,0,0,0-.16,2.846,12.687,12.687,0,0,0,.911,2.746" transform="translate(-152.128 -158.202)"/></g><g transform="translate(1.659 2.11)"><path class="e" d="M131.271,155.914l-.9-1.157c-.755-.979-1.8-2.329-2.977-3.8s-2.257-2.8-3.043-3.75l-.928-1.133a3.166,3.166,0,0,1-.324-.429,3.2,3.2,0,0,1,.376.385c.234.255.565.63.97,1.1.81.935,1.908,2.245,3.085,3.721s2.209,2.84,2.939,3.839c.365.5.657.906.853,1.191" transform="translate(-123.101 -145.64)"/></g><g transform="translate(3.007 9.433)"><path class="e" d="M128.987,177.816a1.081,1.081,0,0,1,.3-.091,2.488,2.488,0,0,1,.36-.069,4.2,4.2,0,0,1,.484-.052,6.279,6.279,0,0,1,1.266.048,6.712,6.712,0,0,1,2.875,1.118,6.277,6.277,0,0,1,.966.82,4.227,4.227,0,0,1,.321.365,2.5,2.5,0,0,1,.219.294c.112.168.1.246.086.253a10.121,10.121,0,0,0-.713-.824,7.016,7.016,0,0,0-.969-.774,7.087,7.087,0,0,0-2.809-1.093,7,7,0,0,0-1.237-.084C129.426,177.745,128.994,177.849,128.987,177.816Z" transform="translate(-128.987 -177.59)"/></g></g></g><g transform="translate(72.873 36.363)"><g transform="translate(0 13.054)"><path class="e" d="M188.411,163.4l-26.471-.11c-3.184-.013-5.753-2.342-5.74-5.2l.281-59.612c.014-2.861,2.607-5.171,5.793-5.158l26.471.11c3.184.013,5.753,2.342,5.74,5.2l-.281,59.612C194.19,161.1,191.6,163.414,188.411,163.4Z" transform="translate(-156.2 -93.32)"/><g transform="translate(1.758 2.291)"><path class="f" d="M194.619,103.423l-5.132-.021a1.207,1.207,0,0,0-1.252,1.156l0,.83a1.207,1.207,0,0,1-1.252,1.156l-10-.041a1.205,1.205,0,0,1-1.241-1.166l0-.83a1.205,1.205,0,0,0-1.241-1.166l-1.8-.007-4.492-.019a3.843,3.843,0,0,0-4.057,3.584l-.274,57.73a3.833,3.833,0,0,0,4.02,3.615l26.418.109a3.843,3.843,0,0,0,4.057-3.584l.274-57.73A3.833,3.833,0,0,0,194.619,103.423Z" transform="translate(-163.87 -103.314)"/></g><g transform="translate(16.465 60.655)"><path class="d" d="M229.133,393.079a.551.551,0,1,1-.543-.471A.511.511,0,0,1,229.133,393.079Z" transform="translate(-228.043 -392.608)"/></g><g transform="translate(18.155 60.663)"><path class="d" d="M236.5,393.113a.551.551,0,1,1-.543-.471A.511.511,0,0,1,236.5,393.113Z" transform="translate(-235.413 -392.642)"/></g><g transform="translate(19.843 60.671)"><path class="d" d="M243.872,393.147a.551.551,0,1,1-.543-.471A.511.511,0,0,1,243.872,393.147Z" transform="translate(-242.782 -392.676)"/></g></g><path class="g" d="M199.517,240.1c.43.061,26.4,5.155,26.4,5.155V240.1Z" transform="translate(-189.589 -197.72)"/><path class="g" d="M163.869,369.858s28.249-4,28-3.873-28,0-28,0Z" transform="translate(-162.111 -298.375)"/><g transform="translate(34.504 3.791)"><path class="e" d="M306.808,52.9c.033,0,.06,1.428.06,3.19s-.027,3.19-.06,3.19-.06-1.428-.06-3.19S306.775,52.9,306.808,52.9Z" transform="translate(-306.748 -52.905)"/></g><g transform="translate(40.031 11.131)"><path class="e" d="M336.7,84.931c.013.03-1.283.631-2.894,1.343s-2.929,1.264-2.942,1.233,1.282-.631,2.894-1.343S336.688,84.9,336.7,84.931Z" transform="translate(-330.865 -84.93)"/></g><g transform="translate(38.249 0)"><path class="e" d="M330.424,36.363a.608.608,0,0,1-.061.122l-.2.338c-.171.293-.427.712-.748,1.227-.642,1.03-1.565,2.429-2.611,3.955s-1.98,2.917-2.639,3.934l-.779,1.206-.215.326a.582.582,0,0,1-.082.109.582.582,0,0,1,.061-.122l.2-.338c.171-.293.427-.712.748-1.227.642-1.03,1.566-2.429,2.612-3.956s1.979-2.916,2.639-3.933l.779-1.206.215-.326A.583.583,0,0,1,330.424,36.363Z" transform="translate(-323.092 -36.363)"/></g></g><g transform="translate(61.484 58.346)"><g transform="translate(15.702 0)"><path class="h" d="M243.654,154.092H191.986a2.021,2.021,0,0,0-2.021,2.021V172.14a2.021,2.021,0,0,0,2.021,2.021h3.849c.31,1.674.673,3.785.673,3.785l3.484-3.785h43.662a2.021,2.021,0,0,0,2.021-2.021V156.113A2.021,2.021,0,0,0,243.654,154.092Z" transform="translate(-189.965 -154.092)"/><g transform="translate(4.903 6.17)"><g transform="translate(0 2.464)"><path class="b" d="M238.827,191.825c0,.033-6.15.06-13.734.06s-13.735-.027-13.735-.06,6.148-.06,13.735-.06S238.827,191.792,238.827,191.825Z" transform="translate(-211.358 -191.765)"/></g><path class="b" d="M238.827,181.075c0,.033-6.15.06-13.734.06s-13.735-.027-13.735-.06,6.148-.06,13.735-.06S238.827,181.042,238.827,181.075Z" transform="translate(-211.358 -181.015)"/><g transform="translate(0 4.9)"><path class="b" d="M238.827,202.456c0,.033-6.15.06-13.734.06s-13.735-.027-13.735-.06,6.148-.06,13.735-.06S238.827,202.423,238.827,202.456Z" transform="translate(-211.358 -202.396)"/></g><g transform="translate(0 7.424)"><path class="b" d="M229.35,213.468c0,.033-4.028.06-9,.06s-9-.027-9-.06,4.027-.06,9-.06S229.35,213.435,229.35,213.468Z" transform="translate(-211.358 -213.408)"/></g></g></g><g transform="translate(0 28.814)"><path class="d" d="M142.408,279.816H90.316A1.414,1.414,0,0,0,88.9,281.23v16.957a1.414,1.414,0,0,0,1.414,1.414h37.834l3.444,3.742s.361-2.1.666-3.742h10.15a1.414,1.414,0,0,0,1.414-1.414V281.23A1.414,1.414,0,0,0,142.408,279.816Z" transform="translate(-88.902 -279.816)"/><g transform="translate(23.994 6.221)"><g transform="translate(0 2.464)"><path class="b" d="M221.064,317.768c0,.033-6.15.06-13.734.06s-13.735-.027-13.735-.06,6.148-.06,13.735-.06S221.064,317.735,221.064,317.768Z" transform="translate(-193.595 -317.708)"/></g><path class="b" d="M221.064,307.018c0,.033-6.15.06-13.734.06s-13.735-.027-13.735-.06,6.148-.06,13.735-.06S221.064,306.985,221.064,307.018Z" transform="translate(-193.595 -306.958)"/><g transform="translate(0 4.9)"><path class="b" d="M221.064,328.4c0,.033-6.15.06-13.734.06s-13.735-.027-13.735-.06,6.148-.06,13.735-.06S221.064,328.366,221.064,328.4Z" transform="translate(-193.595 -328.339)"/></g><g transform="translate(0 7.424)"><path class="b" d="M211.587,339.411c0,.033-4.028.06-9,.06s-9-.027-9-.06,4.027-.06,9-.06S211.587,339.378,211.587,339.411Z" transform="translate(-193.595 -339.351)"/></g></g></g></g><g transform="translate(110.466 49.416)"><path class="e" d="M363.714,100.45a2.072,2.072,0,0,0-.693-1.336,1.371,1.371,0,0,1-.383-1.46c.14-.52.47-.482.6-.787a2.315,2.315,0,0,0,.076-.73,1.522,1.522,0,0,1,1.814-1.293,2.108,2.108,0,0,1,3.887-.4,1.621,1.621,0,0,1,2.364,1.316,1.18,1.18,0,0,1,1.534.232,1.454,1.454,0,0,1,.11,1.6,1.907,1.907,0,0,1-1.377.907,2.8,2.8,0,0,1-1.654-.3,5.355,5.355,0,0,1-1.357-1.025" transform="translate(-356.294 -93.32)"/><ellipse class="c" cx="9.921" cy="9.689" rx="9.921" ry="9.689" transform="translate(1.246 14.089)"/><g transform="translate(0 2.365)"><g transform="translate(1.521)"><path class="i" d="M410.439,187.633l-1.1-2.816-3.936,2.473,3.507,5.408A9.28,9.28,0,0,0,410.439,187.633Z" transform="translate(-390.83 -166.212)"/><g transform="translate(4.846)"><g transform="translate(0 0.395)"><g transform="translate(1.249)"><path class="j" d="M371.055,120.289h0a2.64,2.64,0,0,0,2.651-2.5c.058-1.166.107-2.289.107-2.289a2.567,2.567,0,0,0,2.365-2.273c.2-2.117.227-7.011.227-7.011h0a7.511,7.511,0,0,0-7.542.328l-.206.132-.25,10.954A2.64,2.64,0,0,0,371.055,120.289Z" transform="translate(-368.407 -105.359)"/><g transform="translate(3.401 3.89)"><g transform="translate(0.08 0.209)"><path class="e" d="M384,123.262a.308.308,0,0,1,.2.39.312.312,0,0,1-.393.2.308.308,0,0,1-.2-.39A.312.312,0,0,1,384,123.262Z" transform="translate(-383.595 -123.246)"/></g><path class="e" d="M384.33,122.668c-.036.035-.236-.138-.531-.157s-.518.119-.548.08c-.015-.018.022-.082.12-.147a.733.733,0,0,1,.862.061C384.319,122.584,384.347,122.653,384.33,122.668Z" transform="translate(-383.247 -122.333)"/></g><g transform="translate(6.672 3.897)"><g transform="translate(0.04 0.203)"><path class="e" d="M398.1,123.262a.308.308,0,0,1,.2.39.312.312,0,0,1-.394.2.308.308,0,0,1-.2-.39A.312.312,0,0,1,398.1,123.262Z" transform="translate(-397.694 -123.246)"/></g><path class="e" d="M398.6,122.7c-.036.035-.236-.138-.531-.157s-.518.119-.548.08c-.015-.018.022-.082.12-.147a.734.734,0,0,1,.861.062C398.591,122.612,398.618,122.681,398.6,122.7Z" transform="translate(-397.519 -122.362)"/></g><g transform="translate(5.531 3.97)"><path class="e" d="M392.539,125.23a1.438,1.438,0,0,1,.484-.062c.078,0,.14-.014.149-.055a.412.412,0,0,0-.037-.223l-.184-.612a8.1,8.1,0,0,1-.377-1.6,8.092,8.092,0,0,1,.538,1.553l.171.615a.485.485,0,0,1,.016.321.2.2,0,0,1-.143.111.494.494,0,0,1-.133.006A1.443,1.443,0,0,1,392.539,125.23Z" transform="translate(-392.539 -122.679)"/></g><g transform="translate(2.689 9.104)"><path class="i" d="M382.864,146.093a5.018,5.018,0,0,1-2.723-1.01,2.642,2.642,0,0,0,2.683,1.559Z" transform="translate(-380.141 -145.083)"/></g></g><g transform="translate(0 4.1)"><path class="j" d="M364.406,123.575a.321.321,0,0,0-.3-.327c-.4-.019-1.055.126-1.138,1.217a1.026,1.026,0,0,0,1.41,1.154C364.38,125.584,364.4,124.181,364.406,123.575Z" transform="translate(-362.959 -123.246)"/><g transform="translate(0.421 0.497)"><path class="i" d="M365.456,126.67c-.006-.006-.029.017-.077.034a.277.277,0,0,1-.205-.011.671.671,0,0,1-.268-.626.892.892,0,0,1,.106-.383.316.316,0,0,1,.222-.193.14.14,0,0,1,.156.086c.018.045.005.076.014.079s.036-.024.028-.089a.172.172,0,0,0-.055-.1.208.208,0,0,0-.149-.051.385.385,0,0,0-.3.22.917.917,0,0,0-.128.427.705.705,0,0,0,.349.7.3.3,0,0,0,.254-.022C365.451,126.707,365.462,126.673,365.456,126.67Z" transform="translate(-364.796 -125.413)"/></g></g><g transform="translate(4.322 2.971)"><path class="e" d="M381.833,118.745c.078.1.349.053.7.038s.626-.015.69-.124-.267-.373-.72-.336C382.05,118.342,381.746,118.642,381.833,118.745Z" transform="translate(-381.818 -118.32)"/></g><g transform="translate(7.764 2.957)"><path class="e" d="M396.842,118.594c.042.136.3.177.587.175s.544-.053.583-.19-.22-.325-.589-.319S396.8,118.462,396.842,118.594Z" transform="translate(-396.837 -118.26)"/></g></g><path class="e" d="M376.654,105.561a3.518,3.518,0,0,1-2.956-.212c-1.1-.548-2.375-.815-2.657-.595s-.341,1.351-1.428,1.681c0,0,.074,2.156-.785,2.08s-.323-3.417-.323-3.417l2.1-1.027,2.3-.434,2.163.3,1.673.458Z" transform="translate(-367.106 -103.637)"/></g><g transform="translate(0 10.739)"><g transform="translate(0 1.596)"><path class="d" d="M341.812,159.525c2.247-2.311,6.2-2.059,6.2-2.059l3.279,2.347,1.859-2.165a12.057,12.057,0,0,1,3.785,1.171l.126.039,0,.026a33.92,33.92,0,0,1,5.415,4.473l-2.322,2.155-2.57,2.281a.069.069,0,0,1,0,.046c-.027.138.357,3.276.751,5.661a9.677,9.677,0,0,1-8.636,2.609,25.714,25.714,0,0,1-2.534-.7,3.525,3.525,0,0,1-2.611-3.107h0c-.175-2-.309-4.474-.309-4.474" transform="translate(-341.812 -157.458)"/><g transform="translate(13.397 0.594)"><path class="e" d="M400.268,160.048a2.505,2.505,0,0,1,.141.369c.084.24.2.589.334,1.023.271.867.615,2.075.941,3.422s.57,2.58.724,3.475c.077.448.135.811.17,1.062a2.534,2.534,0,0,1,.043.393,2.455,2.455,0,0,1-.088-.385l-.207-1.054c-.176-.89-.433-2.117-.757-3.463s-.657-2.554-.906-3.426l-.3-1.033A2.494,2.494,0,0,1,400.268,160.048Z" transform="translate(-400.267 -160.048)"/></g><g transform="translate(15.509 5.227)"><path class="e" d="M409.483,183.892c-.021-.026.96-.859,2.19-1.861s2.244-1.794,2.265-1.768-.959.859-2.19,1.861S409.5,183.918,409.483,183.892Z" transform="translate(-409.483 -180.262)"/></g><path class="k" d="M347.991,180.32l-2.012,6.618.749.389.738-1.872S348.224,181.524,347.991,180.32Z" transform="translate(-345.024 -175.08)"/><g class="l" transform="translate(10.319 0.156)"><path d="M389.7,158.581c1.084.572-1.633,1.947-2.861,1.91l.891-2.352A12.375,12.375,0,0,1,389.7,158.581Z" transform="translate(-386.838 -158.139)"/></g></g><path class="d" d="M367.468,152.245v-1.752s3.423.881,3.547,2.929c0,0,.435-2.264,2.2-2.372l.249,3.184-2.052,1.785h-2.08l-1.648-1.421-.215-2.211" transform="translate(-361.588 -150.493)"/><g transform="translate(9.405 3.238)"><path class="e" d="M383.642,174.136a2.258,2.258,0,0,1-.006-.377c.005-.242.009-.593.011-1.025,0-.865-.024-2.061-.133-3.376s-.281-2.5-.426-3.353l-.18-1.009a2.264,2.264,0,0,1-.056-.373,2.293,2.293,0,0,1,.1.363c.059.235.134.578.217,1a31.437,31.437,0,0,1,.56,6.746c-.012.434-.029.784-.049,1.026A2.33,2.33,0,0,1,383.642,174.136Z" transform="translate(-382.85 -164.623)"/></g><g transform="translate(5.754 1.421)"><path class="e" d="M370.435,157.613a.414.414,0,0,0-.2.019c-.131.042-.248.205-.344.438a9.913,9.913,0,0,0-.651,1.894l-.018.078-.069-.041c-.2-.124-.414-.257-.625-.4a12.535,12.535,0,0,1-1.11-.843,1.4,1.4,0,0,1-.378-.495,1.56,1.56,0,0,1-.115-.529,3.064,3.064,0,0,1,.076-.766,1.132,1.132,0,0,1,.075-.271,1.453,1.453,0,0,1-.029.279,3.623,3.623,0,0,0-.038.753,1.516,1.516,0,0,0,.122.494,1.317,1.317,0,0,0,.36.452c.324.27.7.552,1.1.827.209.142.417.275.619.4l-.087.036a8.661,8.661,0,0,1,.7-1.9,1.44,1.44,0,0,1,.18-.295.458.458,0,0,1,.218-.148C370.363,157.553,370.44,157.611,370.435,157.613Z" transform="translate(-366.919 -156.695)"/></g><g transform="translate(9.689 0.556)"><path class="e" d="M386.025,152.921a1.255,1.255,0,0,1,.032.274l.055.746c.026.314.064.688.128,1.1a1.839,1.839,0,0,1,.041.673,1.157,1.157,0,0,1-.45.575,5.063,5.063,0,0,0-.753.572l-.091.1-.009-.136a4.1,4.1,0,0,0-.506-1.707c-.218-.39-.4-.591-.383-.6a.648.648,0,0,1,.135.135,3.366,3.366,0,0,1,.31.431,3.909,3.909,0,0,1,.557,1.735l-.1-.034a4.808,4.808,0,0,1,.767-.591,1.061,1.061,0,0,0,.409-.509,1.812,1.812,0,0,0-.036-.628c-.059-.415-.088-.793-.1-1.109s-.018-.573-.017-.75A1.2,1.2,0,0,1,386.025,152.921Z" transform="translate(-384.089 -152.921)"/></g></g></g><g transform="translate(0 11.735)"><g transform="translate(1.226)"><path class="e" d="M423.192,154.84c-.139.164-5.178,6.9-5.178,6.9l.709.4,5.171-6.652Z" transform="translate(-400.254 -154.84)"/><path class="j" d="M343.219,170.854s5.3,7.631,5.62,7.78c.629.3,7.881-5.972,8.573-6.571.1-.127.292-.4.678-.93,0,0,.572-2.618,1.183-2.417s-.334,1.33.063,2.325,2.219-1.378,2.292-1.591l.47-.614a8.058,8.058,0,0,1,.459,1.979,9.22,9.22,0,0,1-1.874,4.089s-7.937,9.832-13.373,10.137c-1.566.088-4.348-4.355-6.209-7.687a4.559,4.559,0,0,1,1.3-5.9Z" transform="translate(-340.524 -165.527)"/><g transform="translate(21.14 4.24)"><path class="i" d="M432.763,174.72c-.018-.011.152-.311.34-.691s.324-.7.344-.69a4.307,4.307,0,0,1-.683,1.381Z" transform="translate(-432.761 -173.339)"/></g></g><g transform="translate(0 1.603)"><path class="d" d="M338.2,161.835s-5.69,2.023-1.459,11.591l6.568-3.964-.934-2.237Z" transform="translate(-335.175 -161.835)"/><g transform="translate(1.564 0.157)"><path class="e" d="M343.023,162.529a1.976,1.976,0,0,1,.685.058,2.787,2.787,0,0,1,.746.315,4.034,4.034,0,0,1,.829.68,9.937,9.937,0,0,1,1.545,2.309c.482.93.931,1.99,1.391,3.1l.4.973.02.049-.047.025c-1.9,1.036-3.555,2.006-4.725,2.732-.585.362-1.051.66-1.371.867l-.369.236a.8.8,0,0,1-.132.077.775.775,0,0,1,.12-.095c.081-.059.2-.146.357-.254.313-.218.773-.527,1.353-.9,1.16-.745,2.81-1.729,4.71-2.769l-.026.075-.4-.973c-.46-1.113-.905-2.171-1.379-3.1a10.113,10.113,0,0,0-1.509-2.3,4.061,4.061,0,0,0-.8-.681,2.841,2.841,0,0,0-.723-.327A4.1,4.1,0,0,0,343.023,162.529Z" transform="translate(-342 -162.52)"/></g></g></g></g><g transform="translate(10.229 1.683)"><path class="d" d="M384.407,100.661a.341.341,0,0,1,.028.1,1.3,1.3,0,0,1,.017.3,1.519,1.519,0,0,1-1.965,1.379,1.353,1.353,0,0,1-.784-.568.8.8,0,0,1-.117-.518.67.67,0,0,1,.281-.473.581.581,0,0,1,.55-.035.7.7,0,0,1,.376.378,1,1,0,0,1-.15.953,1.2,1.2,0,0,1-1.5.327,2.567,2.567,0,0,0-.566-.217.712.712,0,0,0-.438.046,2.376,2.376,0,0,0-.326.215s.02-.03.067-.079a.567.567,0,0,1,.093-.084.7.7,0,0,1,.146-.094.746.746,0,0,1,.469-.07,2.513,2.513,0,0,1,.589.206,1.666,1.666,0,0,0,.331.109,1.046,1.046,0,0,0,.369-.007,1.083,1.083,0,0,0,.681-.417.9.9,0,0,0,.131-.842.54.54,0,0,0-.753-.288.553.553,0,0,0-.229.389.685.685,0,0,0,.1.442,1.249,1.249,0,0,0,.715.523,1.466,1.466,0,0,0,1.44-.341,1.557,1.557,0,0,0,.448-.936A3.143,3.143,0,0,0,384.407,100.661Z" transform="translate(-379.809 -100.661)"/></g><g transform="translate(12.465 9.76)"><path class="e" d="M390.686,136.471c0,.014-.07.045-.2.05a1.02,1.02,0,0,1-.847-.426c-.071-.1-.09-.181-.077-.187a1.57,1.57,0,0,0,1.12.564Z" transform="translate(-389.562 -135.906)"/></g><g transform="translate(6.829 8.923)"><path class="e" d="M365.722,132.642c.011-.01.075.1-.008.259a.382.382,0,0,1-.234.185.4.4,0,0,1-.356-.093.427.427,0,0,1-.151-.333.458.458,0,0,1,.1-.274c.11-.129.222-.141.224-.128s-.081.058-.155.178a.356.356,0,0,0,.056.468.3.3,0,0,0,.252.076.322.322,0,0,0,.188-.123C365.725,132.744,365.7,132.645,365.722,132.642Z" transform="translate(-364.973 -132.253)"/></g><g transform="translate(13.609 2.455)"><path class="d" d="M396.149,104.03a.755.755,0,0,1,.11.421,1.4,1.4,0,0,1-1.274,1.469.756.756,0,0,1-.432-.05c0-.02.167.01.421-.034a1.415,1.415,0,0,0,1.2-1.385C396.182,104.193,396.129,104.035,396.149,104.03Z" transform="translate(-394.553 -104.029)"/></g><g transform="translate(0.651 21.63)"><path class="c" d="M344.818,187.7c.015.03-1.5.807-3.375,1.735s-3.414,1.658-3.428,1.628,1.5-.806,3.375-1.735S344.8,187.667,344.818,187.7Z" transform="translate(-338.015 -187.695)"/></g><g transform="translate(0.011 19.03)"><path class="c" d="M341.29,176.354c.016.029-1.33.782-3,1.68s-3.045,1.6-3.061,1.575,1.329-.781,3-1.68S341.274,176.325,341.29,176.354Z" transform="translate(-335.224 -176.353)"/></g><g transform="translate(0.102 16.928)"><path class="c" d="M340.265,167.182a5.463,5.463,0,0,1-.673.4l-1.645.918-1.637.933a5.4,5.4,0,0,1-.689.37,4.77,4.77,0,0,1,.645-.442c.408-.258.98-.6,1.622-.965s1.233-.673,1.665-.889A4.758,4.758,0,0,1,340.265,167.182Z" transform="translate(-335.62 -167.181)"/></g><g transform="translate(7.403 14.524)"><path class="c" d="M369.852,158.6a1.075,1.075,0,0,1-.443-.119,3.392,3.392,0,0,1-.927-.6,6.353,6.353,0,0,1-.747-.809,1.66,1.66,0,0,1-.259-.376,1.817,1.817,0,0,1,.323.321,10.786,10.786,0,0,0,.762.775,4.246,4.246,0,0,0,.883.616C369.691,158.53,369.857,158.582,369.852,158.6Z" transform="translate(-367.475 -156.692)"/></g><g transform="translate(11.888 15.19)"><path class="c" d="M388.281,159.6a1.6,1.6,0,0,1-1.234,1.039,8.008,8.008,0,0,0,.681-.443C388.072,159.909,388.249,159.582,388.281,159.6Z" transform="translate(-387.047 -159.598)"/></g><g transform="translate(6.358 18.637)"><path class="c" d="M375.64,174.639a.554.554,0,0,1-.128.024l-.368.045c-.321.036-.785.08-1.36.125-1.15.092-2.74.181-4.5.245s-3.352.085-4.5.076c-.576,0-1.043-.015-1.365-.028l-.371-.019a.523.523,0,0,1-.129-.015.534.534,0,0,1,.13-.009l.371,0,1.364-.011c1.152-.012,2.743-.049,4.5-.111s3.347-.14,4.5-.21l1.362-.087.37-.023A.528.528,0,0,1,375.64,174.639Z" transform="translate(-362.916 -174.636)"/></g><g transform="translate(7.602 21.353)"><path class="c" d="M378.014,186.494a2.333,2.333,0,0,1-.377.059c-.243.03-.6.069-1.033.108-.873.08-2.081.163-3.418.218s-2.549.068-3.425.058c-.438,0-.793-.014-1.038-.024a2.31,2.31,0,0,1-.38-.029,2.311,2.311,0,0,1,.381-.018l1.037-.014c.876-.012,2.085-.04,3.421-.094s2.543-.124,3.417-.183l1.035-.07A2.381,2.381,0,0,1,378.014,186.494Z" transform="translate(-368.343 -186.491)"/></g><g transform="translate(7.944 24.702)"><path class="c" d="M375.056,201.108a4.589,4.589,0,0,1-.76.107c-.471.049-1.123.1-1.845.137s-1.376.049-1.85.047a4.56,4.56,0,0,1-.766-.031,5.229,5.229,0,0,1,.765-.053l1.845-.082,1.844-.1A5.21,5.21,0,0,1,375.056,201.108Z" transform="translate(-369.835 -201.101)"/></g><g transform="translate(4.773 16.701)"><path class="c" d="M359.139,166.243c0,.034-.7.042-1.569.078s-1.567.085-1.57.051a11.71,11.71,0,0,1,3.139-.129Z" transform="translate(-356 -166.189)"/></g><g transform="translate(13.508 16.564)"><path class="c" d="M398.187,165.659a34.767,34.767,0,0,1-4.073-.015,34.758,34.758,0,0,1,4.073.015Z" transform="translate(-394.114 -165.591)"/></g><g transform="translate(12.035 30.576)"><path class="c" d="M393.583,226.732a.931.931,0,0,1-.209.12c-.137.071-.341.165-.6.272a13.03,13.03,0,0,1-4.2.968c-.276.016-.5.021-.655.017a.941.941,0,0,1-.24-.016c0-.019.341-.032.889-.085a16.076,16.076,0,0,0,4.174-.962C393.263,226.852,393.575,226.715,393.583,226.732Z" transform="translate(-387.685 -226.731)"/></g></g><g transform="translate(59.961 72.731)"><g transform="translate(0 0)"><ellipse class="c" cx="9.921" cy="9.464" rx="9.921" ry="9.464" transform="translate(4.068 14.193)"/><g transform="translate(7.454)"><path class="e" d="M119.291,221.982c-1.574.082-2.192,1.723-2.38,2.089a3.174,3.174,0,0,0-.252,1.2,2.611,2.611,0,0,1-.3,1.185c-.347.553-1.074.839-1.273,1.46-.224.7.351,1.455.2,2.177-.082.387-.365.706-.465,1.09a1.6,1.6,0,0,0,.212,1.19,3.118,3.118,0,0,0,2.615,1.37,9.206,9.206,0,0,0,3.013-.574" transform="translate(-114.776 -221.144)"/><path class="e" d="M159.918,230.88a.981.981,0,0,0,.233,1.014,6.319,6.319,0,0,0,.852.694,1.391,1.391,0,0,1,.582.9c.03.336-.138.669-.092,1,.118.858,1.486,1.115,1.559,1.978.049.575-.541,1.1-.378,1.655a2.628,2.628,0,0,0,.341.565,1.682,1.682,0,0,1-.438,2.034,3.344,3.344,0,0,1-2.1.71,1.965,1.965,0,0,1-1.723-.587,2.362,2.362,0,0,1-.2-1.682,58.87,58.87,0,0,0,.209-8.1" transform="translate(-148.477 -228.003)"/><g transform="translate(2.632 0.645)"><g transform="translate(0.026 1.378)"><path class="j" d="M128.645,240.437c.012-1.411,0-2.9,0-2.9a2.954,2.954,0,0,1-2.164-2.7,39.612,39.612,0,0,1,.232-7.139h0a6.5,6.5,0,0,1,7.429,1.48h0l-.286,11.458a2.458,2.458,0,0,1-2.627,2.315h0A2.6,2.6,0,0,1,128.645,240.437Z" transform="translate(-126.375 -227.155)"/><g transform="translate(0.337 3.742)"><g transform="translate(0.494 0.277)"><path class="e" d="M130,244.961a.3.3,0,0,0,.29.31.291.291,0,0,0,.316-.27.3.3,0,0,0-.289-.311A.291.291,0,0,0,130,244.961Z" transform="translate(-129.999 -244.69)"/></g><path class="e" d="M127.849,243.8c.037.04.27-.128.6-.123.616.089.6.183.6.132.018-.018-.02-.09-.124-.167a.835.835,0,0,0-.481-.154.8.8,0,0,0-.476.148C127.866,243.707,127.831,243.778,127.849,243.8Z" transform="translate(-127.845 -243.483)"/></g><g transform="translate(3.75 3.855)"><g transform="translate(0.43 0.26)"><path class="e" d="M144.614,245.383a.3.3,0,0,0,.29.31.291.291,0,0,0,.316-.271.3.3,0,0,0-.289-.311A.291.291,0,0,0,144.614,245.383Z" transform="translate(-144.614 -245.111)"/></g><path class="e" d="M142.744,244.289c.037.04.27-.128.6-.123s.565.171.6.132c.018-.018-.019-.09-.124-.167a.836.836,0,0,0-.481-.154.8.8,0,0,0-.476.148C142.761,244.2,142.726,244.271,142.744,244.289Z" transform="translate(-142.739 -243.976)"/></g><g transform="translate(1.708 3.791)"><path class="e" d="M134.659,246.419a2.171,2.171,0,0,0-.53-.1c-.083-.01-.162-.027-.176-.084a.425.425,0,0,1,.059-.247l.254-.633a10.947,10.947,0,0,0,.574-1.658,10.957,10.957,0,0,0-.706,1.608l-.244.638a.484.484,0,0,0-.047.328.21.21,0,0,0,.136.124.578.578,0,0,0,.142.021A2.137,2.137,0,0,0,134.659,246.419Z" transform="translate(-133.828 -243.694)"/></g><g transform="translate(2.269 9.576)"><path class="i" d="M136.273,269.746a6.032,6.032,0,0,0,3.186-.81,3.007,3.007,0,0,1-3.16,1.371Z" transform="translate(-136.273 -268.936)"/></g><g transform="translate(2.635 7.089)"><path class="i" d="M137.906,258.3a.59.59,0,0,1,.531-.213.538.538,0,0,1,.369.2.341.341,0,0,1,.022.39.4.4,0,0,1-.43.1,1.239,1.239,0,0,1-.415-.255.359.359,0,0,1-.092-.1.11.11,0,0,1,0-.122" transform="translate(-137.873 -258.086)"/></g><g transform="translate(2.447 6.753)"><path class="e" d="M138.1,256.622c-.053,0-.058.352-.365.6s-.685.205-.688.255c-.005.022.084.07.243.076a.884.884,0,0,0,.574-.193.77.77,0,0,0,.283-.5C138.166,256.708,138.128,256.62,138.1,256.622Z" transform="translate(-137.05 -256.622)"/></g></g><path class="e" d="M133.023,222.856a8.794,8.794,0,0,1-4.81,2.805c.192-.253,1.2-.876,1.395-1.129a5.847,5.847,0,0,1-2.8,1.352.6.6,0,0,1-.34-.053.459.459,0,0,1-.173-.373,9.884,9.884,0,0,1,.069-2.149,2.378,2.378,0,0,1,.856-1.533,4.105,4.105,0,0,1,2.4-.631,5.42,5.42,0,0,1,2.111.284,1.98,1.98,0,0,1,1.312,1.384" transform="translate(-126.261 -221.142)"/><g transform="translate(4.745 0.274)"><path class="e" d="M151.47,229.323a13.425,13.425,0,0,0,.237-1.585c.07-1.224-.284-5.741-4.5-5.377l-.17,1.285s-.652,4.4,2.077,4.432a4.907,4.907,0,0,0,1.387,2.586s.716-.022.972-1.34" transform="translate(-146.965 -222.339)"/></g><g transform="translate(6.774 5.985)"><path class="j" d="M155.933,247.283a1.415,1.415,0,0,1,.763.058.987.987,0,0,1,.553.513,1.033,1.033,0,0,1,0,.758,1.747,1.747,0,0,1-.439.633,1.185,1.185,0,0,1-.464.3.565.565,0,0,1-.527-.088" transform="translate(-155.816 -247.257)"/></g><g transform="translate(7.008 6.34)"><path class="i" d="M156.845,250.016c-.029.009.079.164.312.1a.5.5,0,0,0,.289-.247,1.125,1.125,0,0,0,.131-.419.662.662,0,0,0-.1-.448.441.441,0,0,0-.331-.2c-.239-.008-.314.156-.287.162s.112-.065.268-.025a.427.427,0,0,1,.259.493c-.031.261-.134.5-.274.556S156.861,249.995,156.845,250.016Z" transform="translate(-156.841 -248.805)"/></g></g><path class="e" d="M157.116,220.337a1.439,1.439,0,0,0,1.947-.512.921.921,0,0,0,.133-.688.947.947,0,0,0-.709-.614,1.448,1.448,0,0,0-1.33.319,1.271,1.271,0,0,0-.344,1.306,1.133,1.133,0,0,0,1.094.755" transform="translate(-147.133 -218.442)"/><path class="e" d="M155.343,256.445a3.341,3.341,0,0,0-.656.566,1.129,1.129,0,0,0-.283.8,2.078,2.078,0,0,1,.053.481,1.607,1.607,0,0,1-.333.572,1.359,1.359,0,0,0,.214,1.593,2.2,2.2,0,0,0,1.559.634,1.334,1.334,0,0,0,1.515-1.5" transform="translate(-144.975 -247.709)"/><g transform="translate(8.126 2.841)"><path class="d" d="M152.761,230.723a1.559,1.559,0,0,1-.249.433,5.011,5.011,0,0,1-1.814,1.559,1.563,1.563,0,0,1-.465.181,7.346,7.346,0,0,0,2.528-2.173Z" transform="translate(-150.233 -230.723)"/></g><g transform="translate(9.102 2.818)"><path class="d" d="M156.481,230.624a1.879,1.879,0,0,1-.078.578,4.67,4.67,0,0,1-1.437,2.389,1.876,1.876,0,0,1-.475.34,5.89,5.89,0,0,0,1.99-3.306Z" transform="translate(-154.491 -230.624)"/></g><g transform="translate(1.912 4.729)"><path class="d" d="M123.139,238.958c.035,0,.08.395.217.863s.307.83.276.846a2.714,2.714,0,0,1-.493-1.71Z" transform="translate(-123.121 -238.958)"/></g><g transform="translate(11.096 5.224)"><path class="d" d="M164.134,248.733a.663.663,0,0,0,.349.112.713.713,0,0,0,.4-.127.815.815,0,0,0,.306-.463,1.493,1.493,0,0,0,0-.691c-.049-.249-.146-.506-.231-.786a2.075,2.075,0,0,1-.1-.924,5.184,5.184,0,0,1,.377-.91,1.191,1.191,0,0,0-.7-1.478c-.131-.056-.267-.1-.393-.172a.8.8,0,0,1-.314-.281,1.32,1.32,0,0,1-.142-.721,2.464,2.464,0,0,0-.024-.583.953.953,0,0,0-.172-.395.568.568,0,0,0-.309-.191.209.209,0,0,1,.1.008.478.478,0,0,1,.245.153.969.969,0,0,1,.2.41,2.4,2.4,0,0,1,.043.6,1.255,1.255,0,0,0,.141.668,1.275,1.275,0,0,0,.666.4,1.3,1.3,0,0,1,.766,1.619,5.5,5.5,0,0,0-.374.89,1.986,1.986,0,0,0,.092.873c.08.276.175.539.223.8a1.557,1.557,0,0,1-.02.733.875.875,0,0,1-.35.5.745.745,0,0,1-.442.118.54.54,0,0,1-.274-.09A.25.25,0,0,1,164.134,248.733Z" transform="translate(-163.191 -241.12)"/></g><g transform="translate(10.383 8.753)"><path class="d" d="M160.082,260.44c.011-.007.03.074.141.124a.376.376,0,0,0,.445-.12.7.7,0,0,0-.037-.717,3.005,3.005,0,0,1-.457-.891.645.645,0,0,1,.127-.529c.112-.138.244-.231.33-.344a1,1,0,0,0,.16-.732,2.839,2.839,0,0,0-.131-.52.683.683,0,0,1-.053-.194.636.636,0,0,1,.1.177,2.232,2.232,0,0,1,.171.524,1.061,1.061,0,0,1-.155.811c-.1.132-.231.228-.325.35a.531.531,0,0,0-.1.437,3.19,3.19,0,0,0,.437.86.779.779,0,0,1,.008.817.411.411,0,0,1-.291.159.4.4,0,0,1-.243-.047C160.079,260.53,160.078,260.436,160.082,260.44Z" transform="translate(-160.081 -256.517)"/></g><g transform="translate(0.718 6.278)"><path class="d" d="M118.59,251.518a1.02,1.02,0,0,1-.187-.186,2.263,2.263,0,0,1-.4-.6,1.2,1.2,0,0,1-.1-.5.872.872,0,0,1,.2-.555c.142-.165.348-.25.472-.4a.675.675,0,0,0,.095-.59,2.514,2.514,0,0,0-.251-.606,2.08,2.08,0,0,1-.223-.6.786.786,0,0,1,.118-.579,2.02,2.02,0,0,1,.349-.364,1.047,1.047,0,0,0,.391-.558.689.689,0,0,0-.01-.253s.018.018.035.061a.409.409,0,0,1,.021.2,1.042,1.042,0,0,1-.38.613,2.032,2.032,0,0,0-.323.356.688.688,0,0,0-.093.507,2.037,2.037,0,0,0,.218.566,2.55,2.55,0,0,1,.264.633.788.788,0,0,1-.121.69c-.156.183-.361.262-.481.4a.778.778,0,0,0-.186.486,1.145,1.145,0,0,0,.076.465,2.563,2.563,0,0,0,.357.6A1.225,1.225,0,0,1,118.59,251.518Z" transform="translate(-117.907 -245.72)"/></g><g transform="translate(9.663 1.203)"><path class="m" d="M158.235,224.567a2.316,2.316,0,0,0-1.295-.98,1.37,1.37,0,0,1,1.295.98Z" transform="translate(-156.94 -223.576)"/></g><g transform="translate(10.806)"><path class="d" d="M162.409,218.327c.012-.008.089.082.151.26a1.242,1.242,0,0,1-.371,1.341c-.144.121-.256.158-.263.146s.084-.079.2-.207a1.363,1.363,0,0,0,.347-1.257A1.733,1.733,0,0,1,162.409,218.327Z" transform="translate(-161.926 -218.326)"/></g></g><path class="n" d="M113.254,337.048s5.694,5.407,9.079,4.428a6.686,6.686,0,0,0,4.387-3.518l.082-.91-.339-.222-13.032-1.055Z" transform="translate(-106.149 -308.854)"/><g transform="translate(0 13.442)"><g transform="translate(3.543 0.537)"><path class="i" d="M98.555,309.773l1.1-2.816,3.936,2.473-3.507,5.408A9.28,9.28,0,0,1,98.555,309.773Z" transform="translate(-98.362 -300.623)"/><path class="h" d="M102.347,280.69a14.052,14.052,0,0,1,4.2-1.232h0c.688,1.378,2.858,1.553,4.171.612l1.108-.749a4.014,4.014,0,0,1,.464.019,5.916,5.916,0,0,1,5.24,4.711,11.814,11.814,0,0,1,.277,2.978,2.986,2.986,0,0,1-2.737,2.73s-.133,2.475-.308,4.474h0a3.732,3.732,0,0,1-2.268,3.234,9.21,9.21,0,0,1-2.891.891,9.708,9.708,0,0,1-8.613-2.983c.393-2.385.769-5.473.742-5.611a.069.069,0,0,1,0-.046l-2.57-2.281-1.456-1.223s3.2-4.744,4.635-5.525" transform="translate(-97.712 -279.32)"/></g><g transform="translate(7.346 3.188)"><path class="f" d="M118.323,291.149a1.366,1.366,0,0,0-.635-.176,1.045,1.045,0,0,0-.655.227,2.8,2.8,0,0,0-.292.314.76.76,0,0,1-.416.276.677.677,0,0,1-.484-.13c-.132-.084-.245-.177-.361-.243a.787.787,0,0,0-.672-.059.889.889,0,0,0-.391.27c-.072.089-.1.15-.108.146a.35.35,0,0,1,.071-.173.887.887,0,0,1,1.155-.279c.128.07.244.162.369.24a.568.568,0,0,0,.4.111.659.659,0,0,0,.35-.237,2.63,2.63,0,0,1,.31-.321,1.1,1.1,0,0,1,.725-.226,1.044,1.044,0,0,1,.491.14C118.283,291.093,118.327,291.145,118.323,291.149Z" transform="translate(-114.307 -290.888)"/></g><g transform="translate(9.969 5.859)"><path class="f" d="M129.756,303.554a1.365,1.365,0,0,0-.546-.369,1.044,1.044,0,0,0-.694.006,2.768,2.768,0,0,0-.377.2.759.759,0,0,1-.482.129.676.676,0,0,1-.417-.278c-.1-.122-.176-.246-.264-.346a.787.787,0,0,0-.618-.27.888.888,0,0,0-.456.13c-.1.062-.141.111-.149.1s.028-.064.122-.141a.886.886,0,0,1,1.183.1c.1.107.179.232.273.345a.571.571,0,0,0,.344.234.658.658,0,0,0,.407-.113,2.636,2.636,0,0,1,.4-.205,1.1,1.1,0,0,1,.76.018,1.048,1.048,0,0,1,.421.29A.389.389,0,0,1,129.756,303.554Z" transform="translate(-125.752 -302.542)"/></g><g transform="translate(15.979 1.724)"><path class="f" d="M155.769,284.637a1.361,1.361,0,0,0-.658-.037,1.045,1.045,0,0,0-.592.361,2.74,2.74,0,0,0-.219.368.758.758,0,0,1-.348.358.676.676,0,0,1-.5-.024c-.147-.055-.277-.121-.4-.162a.786.786,0,0,0-.669.085.889.889,0,0,0-.325.346c-.052.1-.064.168-.075.165a.349.349,0,0,1,.033-.184.887.887,0,0,1,1.069-.517c.14.041.273.107.411.157a.569.569,0,0,0,.415.024.659.659,0,0,0,.292-.306,2.615,2.615,0,0,1,.235-.379,1.1,1.1,0,0,1,.661-.374,1.047,1.047,0,0,1,.509.033A.386.386,0,0,1,155.769,284.637Z" transform="translate(-151.974 -284.501)"/></g><g transform="translate(14.035 4.714)"><path class="f" d="M146.553,298.455a1.175,1.175,0,0,0-.412-.295.8.8,0,0,0-.527-.016,2.146,2.146,0,0,0-.3.144.6.6,0,0,1-.385.084.534.534,0,0,1-.32-.234c-.072-.1-.127-.2-.191-.276a.6.6,0,0,0-.457-.228.833.833,0,0,0-.475.15s.021-.051.1-.109a.661.661,0,0,1,.379-.125.673.673,0,0,1,.542.243c.073.087.131.186.2.276a.427.427,0,0,0,.249.187c.211.037.4-.153.624-.215a.854.854,0,0,1,.592.043C146.492,298.229,146.565,298.458,146.553,298.455Z" transform="translate(-143.491 -297.549)"/></g><g transform="translate(8.132 7.882)"><path class="f" d="M120.8,312.276a1.163,1.163,0,0,0-.411-.295.8.8,0,0,0-.527-.016,2.148,2.148,0,0,0-.3.144.6.6,0,0,1-.385.084.534.534,0,0,1-.32-.234c-.072-.1-.127-.2-.19-.276a.6.6,0,0,0-.458-.228.832.832,0,0,0-.475.15s.021-.051.1-.109a.66.66,0,0,1,.379-.125.673.673,0,0,1,.542.243c.074.087.132.186.2.276a.426.426,0,0,0,.249.187c.211.037.4-.152.624-.215a.855.855,0,0,1,.592.043C120.737,312.049,120.81,312.278,120.8,312.276Z" transform="translate(-117.736 -311.369)"/></g><g transform="translate(13.596 8.626)"><path class="f" d="M144.694,314.849a1.173,1.173,0,0,0-.485-.146.8.8,0,0,0-.5.155,2.127,2.127,0,0,0-.233.232.6.6,0,0,1-.337.2.534.534,0,0,1-.378-.118c-.1-.07-.184-.145-.27-.2a.6.6,0,0,0-.507-.068.835.835,0,0,0-.4.3c-.006,0,0-.055.056-.135a.661.661,0,0,1,.318-.241.673.673,0,0,1,.592.054c.1.059.185.134.278.2a.427.427,0,0,0,.3.1c.211-.033.333-.275.521-.406a.854.854,0,0,1,.574-.151A.619.619,0,0,1,144.694,314.849Z" transform="translate(-141.577 -314.615)"/></g><g transform="translate(11.773 11.143)"><path class="f" d="M136.741,325.832a1.167,1.167,0,0,0-.485-.146.8.8,0,0,0-.5.155,2.122,2.122,0,0,0-.233.232.6.6,0,0,1-.337.2.534.534,0,0,1-.378-.118c-.1-.07-.184-.145-.27-.2a.6.6,0,0,0-.507-.068.834.834,0,0,0-.4.3c-.006,0,0-.055.056-.134a.659.659,0,0,1,.318-.241.673.673,0,0,1,.592.055c.1.058.185.133.278.2a.426.426,0,0,0,.3.1c.211-.033.333-.275.521-.406a.853.853,0,0,1,.574-.151A.618.618,0,0,1,136.741,325.832Z" transform="translate(-133.624 -325.598)"/></g><g transform="translate(7.969 16.754)"><path class="f" d="M120.1,350.953a1.164,1.164,0,0,0-.416-.289.8.8,0,0,0-.527-.009,2.168,2.168,0,0,0-.293.148.6.6,0,0,1-.384.089.532.532,0,0,1-.323-.229c-.073-.1-.129-.195-.194-.273a.6.6,0,0,0-.461-.222.835.835,0,0,0-.473.156s.02-.051.095-.11a.659.659,0,0,1,.377-.13.673.673,0,0,1,.545.235c.075.086.134.184.2.273a.425.425,0,0,0,.252.183c.211.034.4-.158.621-.224a.854.854,0,0,1,.593.035C120.031,350.728,120.107,350.956,120.1,350.953Z" transform="translate(-117.024 -350.083)"/></g><g transform="translate(12.424 18.712)"><path class="f" d="M139.582,358.865a1.168,1.168,0,0,0-.483-.153.8.8,0,0,0-.506.148,2.165,2.165,0,0,0-.236.228.6.6,0,0,1-.34.2.534.534,0,0,1-.377-.123c-.1-.072-.182-.148-.267-.2a.6.6,0,0,0-.506-.075.833.833,0,0,0-.4.29c-.006,0,0-.055.058-.134a.66.66,0,0,1,.322-.236.672.672,0,0,1,.591.063c.1.06.183.136.275.2a.426.426,0,0,0,.295.1c.212-.03.337-.27.526-.4a.853.853,0,0,1,.576-.143A.618.618,0,0,1,139.582,358.865Z" transform="translate(-136.462 -358.623)"/></g><path class="e" d="M82.956,276.979c.139.164,5.178,6.9,5.178,6.9l-.709.4-5.171-6.652Z" transform="translate(-82.254 -276.979)"/><path class="j" d="M108.023,292.473s-4.726,8.151-5.046,8.3c-.629.3-7.881-5.972-8.573-6.571-.1-.127-.292-.4-.678-.93,0,0-.572-2.618-1.183-2.417s.334,1.33-.063,2.325-2.219-1.378-2.292-1.591l-.47-.614a8.06,8.06,0,0,0-.459,1.979,9.22,9.22,0,0,0,1.874,4.09s7.181,9,12.618,9.3c1.566.088,4.557-4.42,6.417-7.752a3.942,3.942,0,0,0-1.26-5.413Z" transform="translate(-87.653 -287.666)"/><g transform="translate(1.814 4.24)"><path class="i" d="M90.854,296.86a4.3,4.3,0,0,1-.683-1.381,7.686,7.686,0,0,1,.344.689C90.7,296.549,90.871,296.849,90.854,296.86Z" transform="translate(-90.169 -295.479)"/></g><path class="h" d="M154.755,288.061c-.187.112-4.582,8.271-4.582,8.271l5.657,4.431a65.518,65.518,0,0,0,2.248-6.573,9.444,9.444,0,0,0-.2-3.762c-.423-1.172-1.06-.88-2.014-1.567Z" transform="translate(-134.607 -285.521)"/><g class="o" transform="translate(15.491 2.304)"><path d="M156.36,287.268c0,.005-.055-.031-.161-.084a.95.95,0,0,0-.5-.1,1.357,1.357,0,0,0-.738.308,3.666,3.666,0,0,0-.736.793c-.239.326-.436.723-.678,1.137l-.756,1.327-1.739,3.037-1.085,1.885-.015-.074,3.828,3.025,1.111.892.294.243a.623.623,0,0,1,.1.09.654.654,0,0,1-.11-.073l-.306-.228-1.132-.865-3.854-2.992-.039-.031.025-.044,1.081-1.886,1.746-3.032.765-1.322a13.092,13.092,0,0,1,.7-1.14,3.668,3.668,0,0,1,.765-.8,1.388,1.388,0,0,1,.776-.3.935.935,0,0,1,.51.13.826.826,0,0,1,.115.075C156.35,287.256,156.361,287.266,156.36,287.268Z" transform="translate(-149.845 -287.032)"/></g><g transform="translate(17.255 9.284)"><path class="f" d="M160.6,318.393a1.172,1.172,0,0,0-.412-.295.8.8,0,0,0-.527-.017,2.2,2.2,0,0,0-.3.144.6.6,0,0,1-.385.084.534.534,0,0,1-.32-.234c-.072-.1-.127-.2-.191-.276a.6.6,0,0,0-.457-.228.835.835,0,0,0-.475.15s.021-.051.1-.109a.66.66,0,0,1,.379-.125.673.673,0,0,1,.542.243c.074.087.132.186.2.276a.426.426,0,0,0,.249.187c.211.037.4-.152.624-.215a.854.854,0,0,1,.592.043C160.542,318.166,160.615,318.4,160.6,318.393Z" transform="translate(-157.541 -317.486)"/></g><g transform="translate(20.135 7.543)"><path class="f" d="M172.877,311.482a1.17,1.17,0,0,0-.317-.395.8.8,0,0,0-.5-.158,2.156,2.156,0,0,0-.323.059.6.6,0,0,1-.393-.023.533.533,0,0,1-.245-.311c-.043-.114-.069-.223-.109-.317a.6.6,0,0,0-.379-.343.834.834,0,0,0-.5.016c0-.005.034-.043.122-.079a.66.66,0,0,1,.4-.018.673.673,0,0,1,.457.38c.047.1.076.215.117.319a.427.427,0,0,0,.19.247c.193.092.43-.038.659-.039a.854.854,0,0,1,.559.2A.618.618,0,0,1,172.877,311.482Z" transform="translate(-170.11 -309.89)"/></g><g transform="translate(20.268 4.17)"><path class="f" d="M173.457,296.767a1.166,1.166,0,0,0-.317-.4.8.8,0,0,0-.5-.158,2.121,2.121,0,0,0-.323.059.6.6,0,0,1-.393-.023.534.534,0,0,1-.245-.311c-.043-.114-.069-.223-.109-.317a.6.6,0,0,0-.379-.343.832.832,0,0,0-.5.016c0-.005.034-.043.122-.079a.661.661,0,0,1,.4-.018.673.673,0,0,1,.456.38c.047.1.077.215.118.319a.426.426,0,0,0,.19.247c.193.093.43-.038.659-.039a.854.854,0,0,1,.559.2A.617.617,0,0,1,173.457,296.767Z" transform="translate(-170.69 -295.174)"/></g><g transform="translate(19.017 11.923)"><path class="f" d="M168,330.6a1.169,1.169,0,0,0-.317-.4.8.8,0,0,0-.5-.158,2.16,2.16,0,0,0-.323.059.6.6,0,0,1-.393-.023.534.534,0,0,1-.245-.311c-.043-.114-.069-.223-.109-.317a.6.6,0,0,0-.379-.343.833.833,0,0,0-.5.016c0-.005.034-.043.122-.079a.658.658,0,0,1,.4-.018.673.673,0,0,1,.457.38c.047.1.076.215.117.319a.427.427,0,0,0,.19.247c.193.092.43-.038.659-.039a.855.855,0,0,1,.559.2A.618.618,0,0,1,168,330.6Z" transform="translate(-165.229 -329.004)"/></g></g></g></g></g></g></svg>