<svg xmlns="http://www.w3.org/2000/svg" xmlns:xlink="http://www.w3.org/1999/xlink" width="125.999" height="96.554" viewBox="0 0 125.999 96.554"><defs><style>.a{opacity:0.12;fill:url(#a);}.b{fill:#1ae5be;}.c{fill:#519d9b;}.d{fill:#a8deda;}</style><linearGradient id="a" x1="0.5" x2="0.5" y2="1" gradientUnits="objectBoundingBox"><stop offset="0" stop-color="#fff"/><stop offset="1" stop-color="#6fc8c2"/></linearGradient></defs><g transform="translate(-266 -399)"><path class="a" d="M77.009,173.107a63.9,63.9,0,0,1-63-53.108h126a63.339,63.339,0,0,1-7.563,21.018,63.817,63.817,0,0,1-55.436,32.089Z" transform="translate(251.99 322.446)"/><g transform="translate(302.945 399)"><path class="b" d="M87.714,161.082a1.25,1.25,0,0,1-.953-.439l-6.619-7.751a1.253,1.253,0,0,1,1.906-1.628l5.824,6.821,14.466-11.769a1.253,1.253,0,1,1,1.582,1.944L88.5,160.8A1.247,1.247,0,0,1,87.714,161.082Zm0,0" transform="translate(-65.581 -120.38)"/><path class="c" d="M21.735,64.438,25.122,65.9a1.262,1.262,0,0,0,.994,0l3.817-1.629A35.676,35.676,0,0,0,52.055,31.377V14.453a1.234,1.234,0,0,0-.662-1.09L26.295.145a1.26,1.26,0,0,0-1.188.007L.7,13.37a1.233,1.233,0,0,0-.648,1.083V31.719A35.738,35.738,0,0,0,21.735,64.438ZM2.554,15.185,25.715,2.638l23.84,12.556V31.377A33.212,33.212,0,0,1,28.955,62l-.009,0L25.623,63.42l-2.888-1.245A33.266,33.266,0,0,1,2.553,31.719Zm0,0" transform="translate(0)"/><path class="d" d="M45.788,112.3l-.008,0-3.322,1.42-2.886-1.245A33.281,33.281,0,0,1,19.4,82.012V69.629l-5.352,2.9V89.072A33.281,33.281,0,0,0,34.22,119.54l2.886,1.245,3.322-1.42.008,0a33.583,33.583,0,0,0,16.323-14.431A33.831,33.831,0,0,1,45.788,112.3Zm0,0" transform="translate(-11.491 -57.404)"/></g></g></svg>