<svg xmlns="http://www.w3.org/2000/svg" xmlns:xlink="http://www.w3.org/1999/xlink" width="233" height="178" viewBox="0 0 233 178"><defs><style>.a,.d,.q,.t,.x{fill:#fff;}.a{stroke:#707070;}.b,.c{fill:#92e3a9;}.c,.d,.e,.f,.h,.u,.v,.w,.z{stroke:#263238;}.aa,.c,.d,.e,.f,.h,.u,.v,.w,.z{stroke-linecap:round;stroke-linejoin:round;}.e,.l{fill:#263238;}.f,.k{fill:#999;}.g{clip-path:url(#a);}.aa,.h,.z{fill:none;}.i,.j,.m,.u,.v{fill:#0065ff;}.i{opacity:0;}.j,.t{opacity:0.4;}.n{clip-path:url(#b);}.o{opacity:0.1;}.p{clip-path:url(#c);}.ac,.q{opacity:0.2;}.r{fill:#99c1ff;}.s{clip-path:url(#d);}.v{opacity:0.5;}.w{fill:#3383ff;}.y{clip-path:url(#e);}.aa,.z{stroke-width:0.75px;}.aa{stroke:#7f7f7f;}.ab{clip-path:url(#f);}.ad{clip-path:url(#g);}.ae{clip-path:url(#h);}.af{clip-path:url(#i);}.ag{clip-path:url(#j);}</style><clipPath id="a"><path class="a" d="M0,0H233a0,0,0,0,1,0,0V162a16,16,0,0,1-16,16H0a0,0,0,0,1,0,0V0A0,0,0,0,1,0,0Z"/></clipPath><clipPath id="b"><path class="b" d="M428.417,316.1s5.057,10.442,9.5,5.144-3.065-7.289-3.065-7.289,9.042,1.072,9.042-3.831-6.436-1.839-6.436-1.839,8.365-6.523,4.291-9.274c-2.835-1.915-9.654,5-9.654,5s2.6-6.764-.46-6.917-5.057,9.654-5.057,9.654-1.686-7.228-4.751-5.146,2.409,10.109,2.409,10.109-3.941-3.89-5.014-1.132,5.014,4.6,5.014,4.6.043,10.114,3.414,8.888S428.417,316.1,428.417,316.1Z" transform="translate(-419.096 -297.096)"/></clipPath><clipPath id="c"><path class="b" d="M397.193,259.52s-12.093.494-11.336-5.955c.635-5.416,9.2-1.8,9.2-1.8s-7.026-8.191-2.2-11.428,7.694,6.21,7.694,6.21,3.076-13.63,8.474-11.436c3.756,1.526-2.365,12.806-2.365,12.806s7.116-4.85,9.291-1.935-8.343,9.172-8.343,9.172,8.227-3.114,8.2,1.278-11.54,4.3-11.54,4.3,6.431,1.311,4.424,4.188-7.835-1.9-7.835-1.9-7.876,5.7-8.9,1.57S397.193,259.52,397.193,259.52Z" transform="translate(-385.823 -234.875)"/></clipPath><clipPath id="d"><path class="c" d="M220.053,47.458h0a3.446,3.446,0,0,1-3.419,3.011H198.663a3.445,3.445,0,0,1-3.418-3.011h0a3.446,3.446,0,0,0-3.419-3.012H179.185a3.446,3.446,0,0,0-3.446,3.446V171.448a3.446,3.446,0,0,0,3.446,3.446h57.521a3.446,3.446,0,0,0,3.446-3.446V47.892a3.446,3.446,0,0,0-3.446-3.446H223.472A3.446,3.446,0,0,0,220.053,47.458Z" transform="translate(-175.739 -44.446)"/></clipPath><clipPath id="e"><path class="d" d="M225.11,104.365l1.322-5.4,3.681,1.11,1.1,4.385a2.953,2.953,0,0,0,1.583,1.95,9.261,9.261,0,0,1,1.573.923s-4.366,5.6-12.748,0a8.771,8.771,0,0,1,1.795-1A2.9,2.9,0,0,0,225.11,104.365Z" transform="translate(-221.625 -98.96)"/></clipPath><clipPath id="f"><path class="e" d="M80.376,198.51c1.067-2.545-1.513-10.237-2.657-13.392a1.19,1.19,0,0,0-1.915-.48c-1.034.927-2.3,2.728-2.5,6.07,0,0-7.984,14.063-7.984,20.479,0,6.015,11.89,18.535,11.89,18.535a5.553,5.553,0,0,0,3.171-2.54s-4.446-10.978-7.893-15.7C72.483,211.485,79.2,201.323,80.376,198.51Z" transform="translate(-65.315 -184.332)"/></clipPath><clipPath id="g"><path class="f" d="M92.877,266.2s-1.842,7.621-1.116,24.074l.474,18.63s-2.651,13.065,2.43,36.776c0,0,1.551,3.507,7.9-.879l.726-36.139,6.62-39.922Z" transform="translate(-91.543 -266.202)"/></clipPath><clipPath id="h"><path class="f" d="M111.171,286.406c4.718,7.608,11.343,22.569,11.343,22.569a5.892,5.892,0,0,0,0,4.637s-2.633,10.108,1.178,34.269c0,0,3.266,2.082,7.985-1.578,0,0,2.359-36.32,1.451-41.22s-9.436-37.256-9.436-37.256H104.983" transform="translate(-104.983 -267.827)"/></clipPath><clipPath id="i"><path class="e" d="M103.079,177.45c4.678.51,12.824,1.652,12.34,14.214s-2.3,32.889-2.3,32.889-23.375,9.99-26.009.722c0,0,1.21-10.448-2.662-26.757S82.312,175.187,103.079,177.45Z" transform="translate(-82.802 -177.037)"/></clipPath><clipPath id="j"><path class="e" d="M125.027,172.046s8.1.052,11.727,2.23c0,0,6.412-1.089,8.952,0l2.3-8.589s3.024-1.452,4.476.726c0,0,1.089,13.065-.726,14.154s-16.19,4.353-16.19,4.353A15.9,15.9,0,0,1,125.027,172.046Z" transform="translate(-125.027 -165.212)"/></clipPath></defs><g class="g"><g transform="translate(28.446 24.692)"><g transform="translate(13.774 4.449)"><g transform="translate(188.106 20.554)"><path class="b" d="M439.352,91.961v.628a48.2,48.2,0,0,0-3.271-6.085A47.394,47.394,0,0,1,439.352,91.961Z" transform="translate(-436.081 -86.504)"/></g><line class="h" x1="9.978" transform="translate(0 168.321)"/><g transform="translate(0.001)"><path class="i" d="M258.144,179.511c-1.325,16.772-5.321,30.405-13.654,40.837l-4.507-4.468H56.549c-18.144-19.027-12.967-75.029,44.684-81.934,60.684-7.266,46.817-87.679,94.567-86.705,22.23.457,34.42,9.532,41.1,19.1a.053.053,0,0,1,.021.027c.005.005.005.01.01.016a44.917,44.917,0,0,1,3.049,5.67C249.088,91.774,261.219,140.579,258.144,179.511Z" transform="translate(-47.249 -47.232)"/><path class="j" d="M258.144,179.511c-1.325,16.772-5.321,30.405-13.654,40.837l-4.507-4.468H56.549c-18.144-19.027-12.967-75.029,44.684-81.934,60.684-7.266,46.817-87.679,94.567-86.705,22.23.457,34.42,9.532,41.1,19.1a.053.053,0,0,1,.021.027c.005.005.005.01.01.016a44.917,44.917,0,0,1,3.049,5.67C249.088,91.774,261.219,140.579,258.144,179.511Z" transform="translate(-47.249 -47.232)"/></g></g><g transform="translate(23.752 172.77)"><path class="k" d="M252.547,397.829c-13.165,17.85-40.238,26.849-81.866,28.719C116.339,428.99,91.468,418,66.313,393.034H248.081Z" transform="translate(-66.313 -393.034)"/></g><g transform="translate(0 4.45)"><g transform="translate(0 18.615)"><line class="h" x2="202.869" transform="translate(0 149.705)"/><path class="h" d="M442.332,82.8V233.538l14.428,13.395" transform="translate(-237.18 -82.8)"/></g><g transform="translate(153.183)"><line class="h" y1="28.23" transform="translate(12.182)"/><g transform="translate(0 28.23)"><path class="h" d="M336.7,113.352a12.182,12.182,0,0,1,24.364,0Z" transform="translate(-336.702 -101.171)"/></g></g></g><g transform="translate(4.289 110.526)"><rect class="h" width="10.464" height="65.024" transform="translate(49.438)"/><rect class="h" width="42.273" height="15.791" transform="translate(3.423 4.825)"/><rect class="h" width="42.273" height="15.791" transform="translate(3.423 22.34)"/><rect class="h" width="42.273" height="15.791" transform="translate(3.423 39.856)"/><path class="h" d="M67.55,280.2a1.761,1.761,0,0,0,1.761,1.761h5.375a1.761,1.761,0,0,0,1.761-1.761" transform="translate(-47.439 -274.23)"/><path class="h" d="M67.55,313.664a1.761,1.761,0,0,0,1.761,1.761h5.375a1.761,1.761,0,0,0,1.761-1.761" transform="translate(-47.439 -290.182)"/><path class="h" d="M67.55,347.13a1.761,1.761,0,0,0,1.761,1.761h5.375a1.761,1.761,0,0,0,1.761-1.761" transform="translate(-47.439 -306.133)"/><path class="h" d="M76.85,333.82H29.124V268.8H76.85" transform="translate(-29.124 -268.797)"/></g><g transform="translate(64.808 104.943)"><path class="h" d="M181.766,332.716v24.6l12.883,4.539a.822.822,0,0,1,.549.776v.762a.823.823,0,0,1-1.054.789l-13.229-3.887-.241,3.179a.876.876,0,0,1-.874.81h-.68a.876.876,0,0,1-.874-.81l-.24-3.179-13.229,3.887a.823.823,0,0,1-1.055-.789v-.762a.822.822,0,0,1,.549-.776l12.883-4.539v-24.6" transform="translate(-159.159 -293.796)"/><line class="h" y1="7.125" transform="translate(16.729 22.888)"/><line class="h" y2="7.125" transform="translate(13.712 22.888)"/><path class="h" d="M158.648,281.607A3.592,3.592,0,0,1,155,277.723V265.241a3.908,3.908,0,0,1,2.483-3.462" transform="translate(-155.004 -259.985)"/><path class="h" d="M160.87,262.023v14.013c0,2.416,1.93,3.754,4.365,3.322a35.67,35.67,0,0,1,15.972.7c2.4.647,4.281-.516,4.281-2.932V263.116a3.2,3.2,0,0,0-2-2.811,36.922,36.922,0,0,0-20.569-.91A2.86,2.86,0,0,0,160.87,262.023Z" transform="translate(-157.8 -258.351)"/><path class="h" d="M169.34,317.675h-6.96a4.469,4.469,0,0,0-4.469,4.468h0a2.047,2.047,0,0,0,2.047,2.047h8.1" transform="translate(-156.39 -286.627)"/><path class="h" d="M179.978,324.19h22.986a2.047,2.047,0,0,0,2.047-2.047h0a4.468,4.468,0,0,0-4.468-4.468H182.4a4.468,4.468,0,0,0-4.468,4.468h0A2.047,2.047,0,0,0,179.978,324.19Z" transform="translate(-165.932 -286.627)"/></g><g transform="translate(91.718 76.648)"><path class="h" d="M388.626,226.588a1.141,1.141,0,0,0,1.107-1l2.292-21.337a.881.881,0,0,0-.892-1" transform="translate(-303.3 -203.251)"/><g transform="translate(2.371 36.124)"><rect class="h" width="73.764" height="6.846" transform="translate(100.023 6.846) rotate(180)"/><path class="h" d="M230.126,272.272v6.846h25.117" transform="translate(-230.126 -272.272)"/></g><path class="h" d="M360.266,266.975v-4.281H288.34" transform="translate(-255.501 -231.583)"/><rect class="h" width="31.697" height="4.281" transform="translate(31.697 35.392) rotate(180)"/><g transform="translate(4.204 44.112)"><g transform="translate(92.021)"><path class="h" d="M413.594,287.535v55.214h1.6l.571-55.214" transform="translate(-411.426 -287.535)"/><path class="h" d="M409.452,287.535l.571,55.214h1.6V287.535" transform="translate(-409.452 -287.535)"/></g><g transform="translate(70.927)"><path class="h" d="M373.289,287.535v55.214h1.6l.571-55.214" transform="translate(-371.122 -287.535)"/><path class="h" d="M369.148,287.535l.571,55.214h1.6V287.535" transform="translate(-369.148 -287.535)"/></g><g transform="translate(21.094)"><path class="h" d="M278.075,287.535v55.214h1.6l.571-55.214" transform="translate(-275.907 -287.535)"/><path class="h" d="M273.933,287.535l.571,55.214h1.6V287.535" transform="translate(-273.933 -287.535)"/></g><path class="h" d="M237.77,287.535v55.214h1.6l.571-55.214" transform="translate(-235.603 -287.535)"/><path class="h" d="M233.629,287.535l.571,55.214h1.6V287.535" transform="translate(-233.629 -287.535)"/></g><rect class="h" width="15.518" height="1.332" transform="translate(44.86 29.779)"/><g transform="translate(84.387 27.666)"><path class="h" d="M1.733,0H3.681A1.732,1.732,0,0,1,5.414,1.732v.313a0,0,0,0,1,0,0H0a0,0,0,0,1,0,0V1.733A1.733,1.733,0,0,1,1.733,0Z" transform="translate(5.414 3.444) rotate(180)"/><path class="h" d="M392.246,257.52c0-.777-1.212-1.407-2.707-1.407s-2.707.63-2.707,1.407Z" transform="translate(-386.832 -256.113)"/><path class="h" d="M386.832,257.52c0-.777,1.212-1.407,2.707-1.407v1.407Z" transform="translate(-386.832 -256.113)"/></g><path class="h" d="M358.116,226.588H327.862a.881.881,0,0,1-.892-1l2.293-21.337a1.141,1.141,0,0,1,1.107-1h30.253a.881.881,0,0,1,.892,1l-2.293,21.337A1.141,1.141,0,0,1,358.116,226.588Z" transform="translate(-273.911 -203.251)"/><path class="h" d="M365.94,248.931l.516,4.8H367.6l-.516-4.8" transform="translate(-292.488 -225.023)"/><path class="h" d="M351.761,248.931l.516,4.8H359.7l-.516-4.8" transform="translate(-285.73 -225.023)"/><path class="h" d="M358.413,226.45H331.018a.764.764,0,0,1-.774-.867l1.989-18.516a.99.99,0,0,1,.96-.867h27.395a.764.764,0,0,1,.774.867l-1.989,18.516A.99.99,0,0,1,358.413,226.45Z" transform="translate(-275.472 -204.656)"/><rect class="h" width="15.046" height="2.401" transform="translate(61.21 28.71)"/><rect class="h" width="4.402" height="2.401" transform="translate(76.255 28.71)"/><g transform="translate(45.665 6.073)"><rect class="d" width="49.275" height="11.1"/><g transform="translate(3.029 3.52)"><path class="l" d="M321.563,224.77l-.8-.607.13.976a.442.442,0,0,1-.437.5h0a.442.442,0,0,1-.438-.5l.13-.976-.8.607a.442.442,0,0,1-.649-.129l-.011-.019a.442.442,0,0,1,.211-.63l.913-.383-.913-.384a.441.441,0,0,1-.21-.63l.011-.019a.441.441,0,0,1,.649-.129l.8.607-.13-.976a.442.442,0,0,1,.438-.5h0a.442.442,0,0,1,.438.5l-.13.976.8-.607a.441.441,0,0,1,.65.129l.011.019a.441.441,0,0,1-.21.63l-.913.384.913.383a.441.441,0,0,1,.21.63l-.011.019A.441.441,0,0,1,321.563,224.77Z" transform="translate(-318.636 -221.58)"/><g transform="translate(7.104)"><path class="l" d="M335.135,224.77l-.8-.607.13.976a.442.442,0,0,1-.437.5h0a.442.442,0,0,1-.438-.5l.13-.976-.8.607a.441.441,0,0,1-.649-.129l-.011-.019a.441.441,0,0,1,.21-.63l.913-.383-.913-.384a.442.442,0,0,1-.211-.63l.011-.019a.441.441,0,0,1,.649-.129l.8.607-.13-.976a.442.442,0,0,1,.438-.5h0a.442.442,0,0,1,.438.5l-.13.976.8-.607a.441.441,0,0,1,.649.129l.011.019a.442.442,0,0,1-.211.63l-.913.384.913.383a.441.441,0,0,1,.21.63l-.011.019A.441.441,0,0,1,335.135,224.77Z" transform="translate(-332.208 -221.58)"/></g><g transform="translate(14.207)"><path class="l" d="M348.707,224.77l-.8-.607.13.976a.442.442,0,0,1-.438.5h0a.442.442,0,0,1-.438-.5l.13-.976-.8.607a.441.441,0,0,1-.649-.129l-.011-.019a.441.441,0,0,1,.21-.63l.913-.383-.913-.384a.441.441,0,0,1-.21-.63l.011-.019a.441.441,0,0,1,.65-.129l.8.607-.13-.976a.442.442,0,0,1,.438-.5h0a.442.442,0,0,1,.438.5l-.13.976.8-.607a.442.442,0,0,1,.65.129l.011.019a.441.441,0,0,1-.21.63l-.913.384.913.383a.442.442,0,0,1,.211.63l-.011.019A.442.442,0,0,1,348.707,224.77Z" transform="translate(-345.781 -221.58)"/></g><g transform="translate(21.31)"><path class="l" d="M362.28,224.77l-.8-.607.13.976a.442.442,0,0,1-.438.5h0a.442.442,0,0,1-.438-.5l.131-.976-.8.607a.442.442,0,0,1-.65-.129l-.011-.019a.441.441,0,0,1,.211-.63l.913-.383-.913-.384a.442.442,0,0,1-.21-.63l.011-.019a.442.442,0,0,1,.65-.129l.8.607-.131-.976a.442.442,0,0,1,.438-.5h0a.442.442,0,0,1,.438.5l-.13.976.8-.607a.441.441,0,0,1,.65.129l.011.019a.441.441,0,0,1-.21.63l-.913.384.913.383a.441.441,0,0,1,.21.63l-.011.019A.442.442,0,0,1,362.28,224.77Z" transform="translate(-359.353 -221.58)"/></g><g transform="translate(28.414)"><path class="l" d="M375.852,224.77l-.8-.607.13.976a.442.442,0,0,1-.438.5h0a.442.442,0,0,1-.437-.5l.13-.976-.8.607a.441.441,0,0,1-.649-.129l-.011-.019a.441.441,0,0,1,.21-.63l.913-.383-.913-.384a.442.442,0,0,1-.211-.63l.012-.019a.441.441,0,0,1,.649-.129l.8.607-.13-.976a.442.442,0,0,1,.438-.5h0a.442.442,0,0,1,.438.5l-.13.976.8-.607a.441.441,0,0,1,.649.129l.012.019a.442.442,0,0,1-.211.63l-.913.384.913.383a.441.441,0,0,1,.21.63l-.011.019A.441.441,0,0,1,375.852,224.77Z" transform="translate(-372.925 -221.58)"/></g><g transform="translate(36.753 0.222)"><path class="d" d="M395.322,223.812a3.792,3.792,0,0,1-6.463,0,3.791,3.791,0,0,1,6.463,0Z" transform="translate(-388.86 -222.004)"/><path class="f" d="M395.133,224.448a1.11,1.11,0,1,1-1.11-1.111A1.11,1.11,0,0,1,395.133,224.448Z" transform="translate(-390.792 -222.639)"/></g></g></g></g><g transform="translate(152.815 89.995)"><g transform="translate(0 20.911)"><path class="m" d="M360.677,297.353s-5.993,12.375-11.26,6.1,3.633-8.639,3.633-8.639-10.716,1.271-10.716-4.541,7.628-2.179,7.628-2.179-9.914-7.731-5.085-10.991c3.36-2.269,11.442,5.931,11.442,5.931s-3.087-8.016.545-8.2,5.994,11.442,5.994,11.442,2-8.567,5.63-6.1-2.854,11.98-2.854,11.98,4.671-4.61,5.942-1.341-5.942,5.449-5.942,5.449-.051,11.987-4.047,10.534S360.677,297.353,360.677,297.353Z" transform="translate(-342.333 -274.83)"/><path class="h" d="M386.835,336.474s0-27.606-16.423-35.961" transform="translate(-355.716 -287.071)"/><path class="h" d="M372.741,308.929s-4.584.819-9.76,6.448" transform="translate(-352.174 -291.083)"/><path class="h" d="M366.429,303.606a28.155,28.155,0,0,1-9.955.984" transform="translate(-349.073 -288.545)"/><path class="h" d="M378.223,299.888a15,15,0,0,0,5.372-6.4" transform="translate(-359.439 -283.722)"/></g><g transform="translate(40.176 32.564)"><path class="m" d="M428.417,316.1s5.057,10.442,9.5,5.144-3.065-7.289-3.065-7.289,9.042,1.072,9.042-3.831-6.436-1.839-6.436-1.839,8.365-6.523,4.291-9.274c-2.835-1.915-9.654,5-9.654,5s2.6-6.764-.46-6.917-5.057,9.654-5.057,9.654-1.686-7.228-4.751-5.146,2.409,10.109,2.409,10.109-3.941-3.89-5.014-1.132,5.014,4.6,5.014,4.6.043,10.114,3.414,8.888S428.417,316.1,428.417,316.1Z" transform="translate(-419.096 -297.096)"/><g class="n"><path class="o" d="M428.417,316.1s5.057,10.442,9.5,5.144-3.065-7.289-3.065-7.289,9.042,1.072,9.042-3.831-6.436-1.839-6.436-1.839,8.365-6.523,4.291-9.274c-2.835-1.915-9.654,5-9.654,5s2.6-6.764-.46-6.917-5.057,9.654-5.057,9.654-1.686-7.228-4.751-5.146,2.409,10.109,2.409,10.109-3.941-3.89-5.014-1.132,5.014,4.6,5.014,4.6.043,10.114,3.414,8.888S428.417,316.1,428.417,316.1Z" transform="translate(-419.096 -297.096)"/></g><path class="h" d="M428.3,322.418H428.3c-7.144,5.155-8.165,23.044-8.165,23.044" transform="translate(-419.589 -309.165)"/><path class="h" d="M431.71,326.385a20.531,20.531,0,0,1,7.6,5.106" transform="translate(-425.108 -311.056)"/><path class="h" d="M438.046,305.719c0,3.905-2.313,8.74-2.313,8.74l1.693.53" transform="translate(-427.025 -301.206)"/><path class="h" d="M441.64,324.216s4.306.963,7.576,0" transform="translate(-429.841 -310.022)"/></g><g transform="translate(22.761)"><path class="m" d="M397.193,259.52s-12.093.494-11.336-5.955c.635-5.416,9.2-1.8,9.2-1.8s-7.026-8.191-2.2-11.428,7.694,6.21,7.694,6.21,3.076-13.63,8.474-11.436c3.756,1.526-2.365,12.806-2.365,12.806s7.116-4.85,9.291-1.935-8.343,9.172-8.343,9.172,8.227-3.114,8.2,1.278-11.54,4.3-11.54,4.3,6.431,1.311,4.424,4.188-7.835-1.9-7.835-1.9-7.876,5.7-8.9,1.57S397.193,259.52,397.193,259.52Z" transform="translate(-385.823 -234.875)"/><g class="p"><path class="q" d="M397.193,259.52s-12.093.494-11.336-5.955c.635-5.416,9.2-1.8,9.2-1.8s-7.026-8.191-2.2-11.428,7.694,6.21,7.694,6.21,3.076-13.63,8.474-11.436c3.756,1.526-2.365,12.806-2.365,12.806s7.116-4.85,9.291-1.935-8.343,9.172-8.343,9.172,8.227-3.114,8.2,1.278-11.54,4.3-11.54,4.3,6.431,1.311,4.424,4.188-7.835-1.9-7.835-1.9-7.876,5.7-8.9,1.57S397.193,259.52,397.193,259.52Z" transform="translate(-385.823 -234.875)"/></g><path class="h" d="M410.506,317.277s-1.931-34.167,4.917-57.04" transform="translate(-397.468 -246.963)"/><path class="h" d="M394.692,272.127A21.522,21.522,0,0,1,405.811,275" transform="translate(-390.05 -252.622)"/><path class="h" d="M402.791,251.583a30.967,30.967,0,0,1,7.173,12.166" transform="translate(-393.91 -242.839)"/><path class="h" d="M417.37,266.6s3.313-3.65,7.505-4.6" transform="translate(-400.859 -247.801)"/></g><g transform="translate(20.699 65.138)"><path class="d" d="M411.807,362.764H385.761l2.1,23.615a1,1,0,0,0,1,.911h0l.519,5.836a1,1,0,0,0,.995.911H407.2a1,1,0,0,0,1-.911l.519-5.836h0a1,1,0,0,0,1-.911Z" transform="translate(-383.731 -360.968)"/><path class="e" d="M410.127,363.056H383.745a1.862,1.862,0,0,1-1.862-1.862h0a1.861,1.861,0,0,1,1.862-1.862h26.382a1.862,1.862,0,0,1,1.862,1.862h0A1.862,1.862,0,0,1,410.127,363.056Z" transform="translate(-381.883 -359.333)"/></g><line class="h" x2="1.728" transform="translate(40.877 91.532)"/><line class="h" x2="10.254" transform="translate(28.894 91.532)"/></g><g transform="translate(68.705)"><path class="f" d="M293.763,38.731h-7.133V175.162h7.133a4.284,4.284,0,0,0,4.284-4.284V43.015A4.284,4.284,0,0,0,293.763,38.731Z" transform="translate(-223.415 -38.731)"/><rect class="e" width="69.928" height="136.431" rx="7.505" transform="translate(2.421)"/><g transform="translate(5.178 2.991)"><path class="r" d="M220.053,47.458h0a3.446,3.446,0,0,1-3.419,3.011H198.663a3.445,3.445,0,0,1-3.418-3.011h0a3.446,3.446,0,0,0-3.419-3.012H179.185a3.446,3.446,0,0,0-3.446,3.446V171.448a3.446,3.446,0,0,0,3.446,3.446h57.521a3.446,3.446,0,0,0,3.446-3.446V47.892a3.446,3.446,0,0,0-3.446-3.446H223.472A3.446,3.446,0,0,0,220.053,47.458Z" transform="translate(-175.739 -44.446)"/><g class="s"><path class="t" d="M192.844,174.431H171.826L222.5,25.268h21.019Z" transform="translate(-173.874 -35.305)"/><path class="t" d="M234.981,174.431h-5.589L280.063,25.268h5.589Z" transform="translate(-201.312 -35.305)"/></g><path class="h" d="M220.053,47.458h0a3.446,3.446,0,0,1-3.419,3.011H198.663a3.445,3.445,0,0,1-3.418-3.011h0a3.446,3.446,0,0,0-3.419-3.012H179.185a3.446,3.446,0,0,0-3.446,3.446V171.448a3.446,3.446,0,0,0,3.446,3.446h57.521a3.446,3.446,0,0,0,3.446-3.446V47.892a3.446,3.446,0,0,0-3.446-3.446H223.472A3.446,3.446,0,0,0,220.053,47.458Z" transform="translate(-175.739 -44.446)"/></g><path class="u" d="M222.577,46.385a1.583,1.583,0,1,1-1.583-1.583A1.583,1.583,0,0,1,222.577,46.385Z" transform="translate(-191.377 -41.624)"/><path class="f" d="M240.562,44.918h-7.944a1.522,1.522,0,1,0,0,3.044h7.944a1.522,1.522,0,1,0,0-3.044Z" transform="translate(-196.946 -41.68)"/><path class="f" d="M235.675,280.865h-15.3a1.583,1.583,0,0,0,0,3.166h15.3a1.583,1.583,0,1,0,0-3.166Z" transform="translate(-191.084 -154.139)"/><g transform="translate(73.703 23.663)"><path class="l" d="M308.375,95V84.8a.853.853,0,0,0-1.705,0V95a.853.853,0,1,0,1.705,0Z" transform="translate(-306.67 -83.943)"/><path class="l" d="M308.375,115.677v-3.4a.853.853,0,1,0-1.705,0v3.4a.853.853,0,0,0,1.705,0Z" transform="translate(-306.67 -97.043)"/></g><rect class="d" width="76.992" height="17.343" transform="translate(0 49.824)"/><g transform="translate(4.734 55.324)"><path class="l" d="M179.464,149.422l-1.244-.948.2,1.525a.69.69,0,0,1-.684.781h0a.69.69,0,0,1-.684-.781l.2-1.525-1.244.948a.691.691,0,0,1-1.015-.2l-.017-.029a.69.69,0,0,1,.329-.984l1.427-.6-1.427-.6a.69.69,0,0,1-.329-.983L175,146a.691.691,0,0,1,1.015-.2l1.244.949-.2-1.525a.691.691,0,0,1,.684-.781h0a.69.69,0,0,1,.684.781l-.2,1.525,1.243-.949a.69.69,0,0,1,1.015.2l.017.03a.69.69,0,0,1-.329.983l-1.427.6,1.427.6a.69.69,0,0,1,.329.984l-.017.029A.69.69,0,0,1,179.464,149.422Z" transform="translate(-174.89 -144.437)"/><g transform="translate(11.099)"><path class="l" d="M200.67,149.422l-1.243-.948.2,1.525a.69.69,0,0,1-.684.781h0a.69.69,0,0,1-.684-.781l.2-1.525-1.244.948a.69.69,0,0,1-1.014-.2l-.017-.029a.69.69,0,0,1,.329-.984l1.427-.6-1.427-.6a.69.69,0,0,1-.329-.983l.017-.03a.691.691,0,0,1,1.015-.2l1.244.949-.2-1.525a.69.69,0,0,1,.684-.781h0a.69.69,0,0,1,.684.781l-.2,1.525,1.243-.949a.691.691,0,0,1,1.015.2l.017.03a.689.689,0,0,1-.329.983l-1.427.6,1.427.6a.69.69,0,0,1,.329.984l-.017.029A.691.691,0,0,1,200.67,149.422Z" transform="translate(-196.097 -144.437)"/></g><g transform="translate(22.198)"><path class="l" d="M221.877,149.422l-1.244-.948.2,1.525a.69.69,0,0,1-.684.781h0a.69.69,0,0,1-.684-.781l.2-1.525-1.244.948a.69.69,0,0,1-1.014-.2l-.017-.029a.69.69,0,0,1,.329-.984l1.427-.6-1.427-.6a.689.689,0,0,1-.329-.983l.017-.03a.69.69,0,0,1,1.015-.2l1.243.949-.2-1.525a.69.69,0,0,1,.684-.781h0a.691.691,0,0,1,.684.781l-.2,1.525,1.244-.949a.691.691,0,0,1,1.015.2l.017.03a.69.69,0,0,1-.329.983l-1.427.6,1.427.6a.69.69,0,0,1,.329.984l-.017.029A.691.691,0,0,1,221.877,149.422Z" transform="translate(-217.304 -144.437)"/></g><g transform="translate(33.297)"><path class="l" d="M243.084,149.422l-1.244-.948.2,1.525a.69.69,0,0,1-.684.781h0a.69.69,0,0,1-.684-.781l.2-1.525-1.244.948a.69.69,0,0,1-1.014-.2l-.017-.029a.69.69,0,0,1,.329-.984l1.427-.6-1.427-.6a.69.69,0,0,1-.329-.983l.018-.03a.69.69,0,0,1,1.014-.2l1.244.949-.2-1.525a.69.69,0,0,1,.684-.781h0a.69.69,0,0,1,.684.781l-.2,1.525,1.244-.949a.69.69,0,0,1,1.014.2l.018.03a.69.69,0,0,1-.329.983l-1.427.6,1.427.6a.69.69,0,0,1,.329.984l-.017.029A.69.69,0,0,1,243.084,149.422Z" transform="translate(-238.51 -144.437)"/></g><g transform="translate(44.396)"><path class="l" d="M264.291,149.422l-1.244-.948.2,1.525a.69.69,0,0,1-.684.781h0a.69.69,0,0,1-.683-.781l.2-1.525-1.243.948a.69.69,0,0,1-1.014-.2l-.017-.029a.69.69,0,0,1,.329-.984l1.427-.6-1.427-.6a.69.69,0,0,1-.329-.983l.017-.03a.691.691,0,0,1,1.015-.2l1.243.949-.2-1.525a.69.69,0,0,1,.683-.781h0a.69.69,0,0,1,.684.781l-.2,1.525,1.244-.949a.69.69,0,0,1,1.014.2l.017.03a.689.689,0,0,1-.329.983l-1.427.6,1.427.6a.69.69,0,0,1,.329.984l-.017.029A.69.69,0,0,1,264.291,149.422Z" transform="translate(-259.717 -144.437)"/></g><g transform="translate(57.427 0.346)"><path class="d" d="M294.713,147.924s-2.26,2.825-5.049,2.825-5.05-2.825-5.05-2.825,2.26-2.825,5.05-2.825S294.713,147.924,294.713,147.924Z" transform="translate(-284.615 -145.099)"/><path class="f" d="M294.417,148.917a1.735,1.735,0,1,1-1.734-1.735A1.735,1.735,0,0,1,294.417,148.917Z" transform="translate(-287.633 -146.092)"/></g></g><g transform="translate(8.321 75.832)"><rect class="v" width="8.747" height="10.071" rx="3.973"/><rect class="v" width="8.747" height="10.071" rx="3.973" transform="translate(9.752)"/><rect class="v" width="8.747" height="10.071" rx="3.973" transform="translate(19.504)"/><rect class="v" width="8.747" height="10.071" rx="3.973" transform="translate(29.255)"/><rect class="v" width="8.747" height="10.071" rx="3.973" transform="translate(39.007)"/><rect class="v" width="8.747" height="10.071" rx="3.973" transform="translate(48.759)"/><rect class="v" width="8.747" height="10.071" rx="3.973" transform="translate(4.876 11.671)"/><rect class="v" width="8.747" height="10.071" rx="3.973" transform="translate(14.628 11.671)"/><rect class="v" width="8.747" height="10.071" rx="3.973" transform="translate(24.379 11.671)"/><rect class="v" width="8.747" height="10.071" rx="3.973" transform="translate(34.131 11.671)"/><rect class="v" width="8.747" height="10.071" rx="3.973" transform="translate(43.883 11.671)"/><rect class="v" width="8.747" height="10.071" rx="3.973" transform="translate(0 23.341)"/><rect class="v" width="8.747" height="10.071" rx="3.973" transform="translate(9.752 23.341)"/><rect class="v" width="8.747" height="10.071" rx="3.973" transform="translate(19.504 23.341)"/><rect class="v" width="8.747" height="10.071" rx="3.973" transform="translate(29.255 23.341)"/><rect class="v" width="8.747" height="10.071" rx="3.973" transform="translate(39.007 23.341)"/><rect class="v" width="8.747" height="10.071" rx="3.973" transform="translate(48.759 23.341)"/><rect class="v" width="8.747" height="10.071" rx="3.973" transform="translate(4.876 35.012)"/><rect class="v" width="8.747" height="10.071" rx="3.973" transform="translate(14.628 35.012)"/><rect class="v" width="8.747" height="10.071" rx="3.973" transform="translate(24.379 35.012)"/><rect class="v" width="8.747" height="10.071" rx="3.973" transform="translate(34.131 35.012)"/><rect class="v" width="8.747" height="10.071" rx="3.973" transform="translate(43.883 35.012)"/></g><g transform="translate(17.23 9.332)"><circle class="d" cx="14.579" cy="14.579" r="14.579" transform="translate(0 25.752) rotate(-62.03)"/><path class="w" d="M227.771,117.6a14.51,14.51,0,0,0,8.819-2.972,31.071,31.071,0,0,0-10.676-1.948,22.787,22.787,0,0,0-7.654,1.385A14.52,14.52,0,0,0,227.771,117.6Z" transform="translate(-208.058 -83.311)"/><path class="e" d="M226.7,90.4a29.615,29.615,0,0,0-1.459-8.225c-1.332-3.473-2.093-8.611,3-9.324s7.109.133,10.024-.1c5.6-.439-.571,5.994-.571,5.994l-7.5,2.926S227.59,90.634,226.7,90.4Z" transform="translate(-210.916 -64.186)"/><g transform="translate(11.963 22.19)"><path class="x" d="M225.11,104.365l1.322-5.4,3.681,1.11,1.1,4.385a2.953,2.953,0,0,0,1.583,1.95,9.261,9.261,0,0,1,1.573.923s-4.366,5.6-12.748,0a8.771,8.771,0,0,1,1.795-1A2.9,2.9,0,0,0,225.11,104.365Z" transform="translate(-221.625 -98.96)"/><g class="y"><path class="e" d="M238.255,83.358l.478,3.206a2.238,2.238,0,0,1-.082,1.01l-.28.877.165,2.089a2.173,2.173,0,0,1,0,.324c-.07,1.071-.588,6.19-3.679,6.424-2.741.208-5.47-2.611-6.44-3.955a3.275,3.275,0,0,1-.516-1.112l-.415-1.626a1.849,1.849,0,0,1-1.747-1.288c-.414-1.314-1.1-2.163.227-2.817s1.8,1.2,1.8,1.2a13.278,13.278,0,0,1,.709-2.782c.322-.545,1.5-1.2,1.844-1.732a7.637,7.637,0,0,0,.468-1.3,22.055,22.055,0,0,0,7.121.154Z" transform="translate(-223.324 -90.815)"/></g><path class="h" d="M225.11,104.365l1.322-5.4,3.681,1.11,1.1,4.385a2.953,2.953,0,0,0,1.583,1.95,9.261,9.261,0,0,1,1.573.923s-4.366,5.6-12.748,0a8.771,8.771,0,0,1,1.795-1A2.9,2.9,0,0,0,225.11,104.365Z" transform="translate(-221.625 -98.96)"/></g><path class="d" d="M238.255,82.267l.478,3.206a2.24,2.24,0,0,1-.082,1.011l-.28.877.165,2.089a2.18,2.18,0,0,1,0,.325c-.07,1.071-.588,6.189-3.679,6.424-2.741.208-5.47-2.611-6.44-3.955a3.282,3.282,0,0,1-.516-1.112l-.415-1.626a1.85,1.85,0,0,1-1.747-1.289c-.414-1.314-1.1-2.162.227-2.817s1.8,1.2,1.8,1.2a13.278,13.278,0,0,1,.709-2.782c.322-.544,1.5-1.2,1.844-1.731a7.654,7.654,0,0,0,.468-1.3,22.054,22.054,0,0,0,7.121.154Z" transform="translate(-211.361 -68.105)"/><path class="z" d="M245.353,93.855l1,2.425a.54.54,0,0,1-.464.746l-1.252.082" transform="translate(-220.631 -74.337)"/><path class="z" d="M240.048,101.8a1.549,1.549,0,0,0,2.341.583" transform="translate(-218.443 -78.122)"/><g transform="translate(15.136 9.736)"><path class="aa" d="M234.109,76.195c-5.423-.618-6.422,1.522-6.422,1.522" transform="translate(-227.687 -75.602)"/><path class="aa" d="M247.039,75.165a20.247,20.247,0,0,1-4.754.614" transform="translate(-234.645 -75.165)"/></g><g transform="translate(20.345 10.179)"><path class="aa" d="M242,77.72c1.542.018,4.66-.286,5.909-1.709" transform="translate(-239.719 -76.011)"/><path class="aa" d="M237.64,78.783a10.059,10.059,0,0,0,1.215.2" transform="translate(-237.64 -77.332)"/></g><path class="l" d="M241.157,92.5c0,.416-.169.753-.377.753s-.376-.337-.376-.753.169-.753.376-.753S241.157,92.081,241.157,92.5Z" transform="translate(-218.612 -73.331)"/><path class="l" d="M248.027,92.4c0,.361-.146.654-.327.654s-.327-.293-.327-.654.146-.654.327-.654S248.027,92.037,248.027,92.4Z" transform="translate(-221.934 -73.331)"/><path class="z" d="M238.765,89.865s.451-1.341,1.234-1.308a1.421,1.421,0,0,1,1.135.785" transform="translate(-217.831 -71.811)"/><path class="z" d="M247.768,89.306c-.144-.363-.372-.768-.67-.75-.538.033-.78.785-.78.785" transform="translate(-221.431 -71.811)"/></g></g><g transform="translate(23.23 32.345)"><g transform="translate(0 31.197)"><path class="l" d="M80.376,198.51c1.067-2.545-1.513-10.237-2.657-13.392a1.19,1.19,0,0,0-1.915-.48c-1.034.927-2.3,2.728-2.5,6.07,0,0-7.984,14.063-7.984,20.479,0,6.015,11.89,18.535,11.89,18.535a5.553,5.553,0,0,0,3.171-2.54s-4.446-10.978-7.893-15.7C72.483,211.485,79.2,201.323,80.376,198.51Z" transform="translate(-65.315 -184.332)"/><g class="ab"><path class="ac" d="M83.08,212.518s-3.805-8.1-5.257-7.379-5.135,14.4-3.716,16.573,9.155,17.549,11.093,17.242S83.08,212.518,83.08,212.518Z" transform="translate(-69.353 -194.227)"/></g><path class="h" d="M80.376,198.51c1.067-2.545-1.513-10.237-2.657-13.392a1.19,1.19,0,0,0-1.915-.48c-1.034.927-2.3,2.728-2.5,6.07,0,0-7.984,14.063-7.984,20.479,0,6.015,11.89,18.535,11.89,18.535a5.553,5.553,0,0,0,3.171-2.54s-4.446-10.978-7.893-15.7C72.483,211.485,79.2,201.323,80.376,198.51Z" transform="translate(-65.315 -184.332)"/></g><path class="d" d="M89.65,264.3l1.8,2.876s5.586,1.747,6.168,3.6-2.281,4.418-3.983,3.9-4.476-5.651-4.476-5.651L86.9,266.389Z" transform="translate(-75.601 -191.248)"/><path class="c" d="M85.428,266.53l1.21,1.391a6.91,6.91,0,0,0,4.063-3.1l-.736-1.743A6.986,6.986,0,0,1,85.428,266.53Z" transform="translate(-74.901 -190.67)"/><path class="e" d="M97.668,415.528l-1.559,6.516a1.486,1.486,0,0,0,1.445,1.831h9.157a1.486,1.486,0,0,0,1.466-1.74,3.538,3.538,0,0,0-1.528-2.434c-2.087-1.361-3.085-5.625-3.085-5.625Z" transform="translate(-79.973 -262.638)"/><path class="e" d="M140.739,417.939a12.292,12.292,0,0,0-1.7,5.928,1.271,1.271,0,0,0,1.272,1.33h16.263a1.531,1.531,0,0,0,.964-2.72,4.7,4.7,0,0,0-2.371-.91c-3.992-.544-7.524-2.359-8.163-4.718Z" transform="translate(-100.452 -263.96)"/><g transform="translate(13.727 74.045)"><path class="k" d="M92.877,266.2s-1.842,7.621-1.116,24.074l.474,18.63s-2.651,13.065,2.43,36.776c0,0,1.551,3.507,7.9-.879l.726-36.139,6.62-39.922Z" transform="translate(-91.543 -266.202)"/><g class="ad"><path class="ac" d="M108.149,298.331s-2.7,10.767-3.79,17.057-7.562,5.807-8.343,9.92,6.814-.726,6.066,14.154-3.39,22.979.774,22.861,4.285-11.852,4.285-11.852l2.54-35.687v-4.96l.605-9.436Z" transform="translate(-93.648 -281.516)"/></g><path class="h" d="M92.877,266.2s-1.842,7.621-1.116,24.074l.474,18.63s-2.651,13.065,2.43,36.776c0,0,1.551,3.507,7.9-.879l.726-36.139,6.62-39.922Z" transform="translate(-91.543 -266.202)"/></g><g transform="translate(15.314 116.043)"><path class="h" d="M95.356,355.521a13.237,13.237,0,0,0-.78,1.159" transform="translate(-94.576 -350.772)"/><path class="h" d="M96.7,347.092s6.073-1.452,6.484,0c.358,1.263-2.927-.221-6.162,3.318" transform="translate(-95.587 -346.447)"/></g><g transform="translate(20.761 74.896)"><path class="k" d="M111.171,286.406c4.718,7.608,11.343,22.569,11.343,22.569a5.892,5.892,0,0,0,0,4.637s-2.633,10.108,1.178,34.269c0,0,3.266,2.082,7.985-1.578,0,0,2.359-36.32,1.451-41.22s-9.436-37.256-9.436-37.256H104.983" transform="translate(-104.983 -267.827)"/><g class="ae"><path class="ac" d="M114.783,304.146s2.852,1.452,8.322,0,.933,4.718,2.747,11.432,6.9,9.8,6.079,12.7-3.234,3.629-3.749,11.432,6.325,22.217,3.631,25.172-9.227-4.032-9.227-4.032l-5.465-36.989Z" transform="translate(-109.654 -285.036)"/></g><path class="h" d="M111.171,286.406c4.718,7.608,11.343,22.569,11.343,22.569a5.892,5.892,0,0,0,0,4.637s-2.633,10.108,1.178,34.269c0,0,3.266,2.082,7.985-1.578,0,0,2.359-36.32,1.451-41.22s-9.436-37.256-9.436-37.256H104.983" transform="translate(-104.983 -267.827)"/></g><g transform="translate(39.289 117.052)"><path class="h" d="M143.68,348.65c2.147-.325,4.9-.551,4.788.45-.182,1.633-4.015-.025-6.351,2.722" transform="translate(-141.21 -348.374)"/><path class="h" d="M140.384,349.587s.375-.083.954-.192" transform="translate(-140.384 -348.861)"/></g><path class="d" d="M168.9,154.34l.339-3.457s-.678-3.593-.339-4.813,3.321-8.948,4.271-8.609-1.424,4.542-1.356,5.762c0,0,1.262.068,1.58.881,0,0,1.2.2,1.267,1.288a1.909,1.909,0,0,1,.881,1.762c-.136,1.152-2.44,4.271-2.44,4.271l.136,4.474Z" transform="translate(-114.639 -130.79)"/><path class="d" d="M117.217,146.875a25.351,25.351,0,0,1-1.53-3.6c-.139-.681.14-2.1,0-2.783a41.866,41.866,0,0,0-2.559-5.986,1.22,1.22,0,0,0-.4-.47l-1.305,1.611h-3.553l-5.419,7.159,2.671,6.425-.785.927c.48.473.785.746.785.746l-.785,4.663,7.643.775.2-2.962H114.5a1.182,1.182,0,0,0,1.182-1.182v-4.049l1.067-.3A.714.714,0,0,0,117.217,146.875Z" transform="translate(-83.016 -129.161)"/><path class="e" d="M93.788,140.111a21.1,21.1,0,0,0,6.39,6.353l1.3-3.241a2.411,2.411,0,0,1-2.226-2.818c.614-3.753,3.673-.381,3.673-.381l.66-2.9s1.63-1.749,1.516-2.363a11.373,11.373,0,0,0-.35-1.313s5.89-5.6,5.267-8.726c0,0-4.9.993-10.755,2.068C92.129,128.105,90.312,135,93.788,140.111Z" transform="translate(-78.07 -124.725)"/><path class="l" d="M119.636,167.887s-4.1-.7-5.666-2.622-.316.133.416,1.311C115.959,169.1,117.313,167.887,119.636,167.887Z" transform="translate(-88.147 -143.672)"/><path class="z" d="M120.658,159.741a2.646,2.646,0,0,0,2.294.864" transform="translate(-91.693 -141.415)"/><path class="l" d="M125.8,149.571c0,.364-.137.659-.307.659s-.307-.3-.307-.659.137-.659.307-.659S125.8,149.207,125.8,149.571Z" transform="translate(-93.852 -136.253)"/><path class="z" d="M124.341,146.457a1.835,1.835,0,0,0-2.093,1.108" transform="translate(-92.451 -135.066)"/><path class="u" d="M98.431,176.254s.025-3.58,6.17-3.025c7.5.679,10.525,4.519,10.525,4.519Z" transform="translate(-81.099 -147.816)"/><g transform="translate(9.152 27.378)"><path class="l" d="M103.079,177.45c4.678.51,12.824,1.652,12.34,14.214s-2.3,32.889-2.3,32.889-23.375,9.99-26.009.722c0,0,1.21-10.448-2.662-26.757S82.312,175.187,103.079,177.45Z" transform="translate(-82.802 -177.037)"/><g class="af"><path class="ac" d="M116.427,224.812s-3.055.735-12.4-4.355c-14.669-7.99-16.3-19.721-20.429-17.785s4.07,39.752,4.07,39.752l15.178.951h14.065Z" transform="translate(-82.628 -189.154)"/></g><path class="h" d="M103.079,177.45c4.678.51,12.824,1.652,12.34,14.214s-2.3,32.889-2.3,32.889-23.375,9.99-26.009.722c0,0,1.21-10.448-2.662-26.757S82.312,175.187,103.079,177.45Z" transform="translate(-82.802 -177.037)"/></g><g transform="translate(1.627 57.592)"><path class="aa" d="M69.255,235.2c-.263.063-.54.14-.831.233" transform="translate(-68.424 -234.974)"/><path class="aa" d="M74.536,235.227a4.466,4.466,0,0,0-3.126-.376" transform="translate(-69.847 -234.765)"/></g><g transform="translate(31.252 21.19)"><path class="l" d="M125.027,172.046s8.1.052,11.727,2.23c0,0,6.412-1.089,8.952,0l2.3-8.589s3.024-1.452,4.476.726c0,0,1.089,13.065-.726,14.154s-16.19,4.353-16.19,4.353A15.9,15.9,0,0,1,125.027,172.046Z" transform="translate(-125.027 -165.212)"/><g class="ag"><path class="ac" d="M144.941,190.2s-.423-3.364,5.746-2.93,10.993.555,11.606-2.349,7.387-7.93,5.21,1.479l-2.178,9.409-12.947.851Z" transform="translate(-134.516 -172.716)"/></g><path class="h" d="M125.027,172.046s8.1.052,11.727,2.23c0,0,6.412-1.089,8.952,0l2.3-8.589s3.024-1.452,4.476.726c0,0,1.089,13.065-.726,14.154s-16.19,4.353-16.19,4.353A15.9,15.9,0,0,1,125.027,172.046Z" transform="translate(-125.027 -165.212)"/></g><g transform="translate(52.112 30.337)"><path class="aa" d="M167.379,183.763a8.2,8.2,0,0,1,1.779,2.016" transform="translate(-166.074 -183.201)"/><path class="aa" d="M164.885,182.691a1.287,1.287,0,0,1,.569.126" transform="translate(-164.885 -182.689)"/></g><g transform="translate(8.47 34.009)"><path class="aa" d="M84.844,200.833c-.281-2.708-1.049-7.688-.743-11.128" transform="translate(-82.705 -189.705)"/><path class="aa" d="M81.5,198.625s1.417,8.391,2.1,8.391" transform="translate(-81.498 -193.957)"/></g><line class="aa" y2="4.7" transform="translate(13.551 69.781)"/><path class="f" d="M106.448,280.636s.763,5.316,3.092,8.6" transform="translate(-84.92 -199.036)"/><path class="w" d="M167.152,163.915l-.535,1.951a10.511,10.511,0,0,1,6.668.839l-.317-2.274S170.954,162.917,167.152,163.915Z" transform="translate(-113.598 -143.242)"/><g transform="translate(16.693 68.783)"><path class="aa" d="M114.746,260.127c-2.553,1.135-7.606,2.126-17.535,1.148" transform="translate(-97.211 -258.044)"/><path class="aa" d="M134.674,256.148a2.777,2.777,0,0,1-1,1.183" transform="translate(-114.589 -256.148)"/></g><g transform="translate(15.629 30.482)"><path class="aa" d="M149.027,182.966l4.133,2.559" transform="translate(-120.843 -182.966)"/><g transform="translate(0 10.517)"><path class="aa" d="M136.676,214.058a20.258,20.258,0,0,0,4.7-11" transform="translate(-114.957 -203.06)"/><path class="aa" d="M120.917,222.619a33.911,33.911,0,0,1-12.253,8.963" transform="translate(-101.605 -212.382)"/><path class="aa" d="M134.915,217.545q-.6.845-1.241,1.651" transform="translate(-113.526 -209.964)"/><path class="aa" d="M137.847,213.925q-.3.5-.619.982" transform="translate(-115.22 -208.239)"/><path class="aa" d="M95.177,252.032a29.661,29.661,0,0,0,16.943,2.32" transform="translate(-95.177 -226.401)"/></g></g><g transform="translate(15.882 0.756)"><path class="aa" d="M122.248,127.032a8.632,8.632,0,0,0,1.538-.862" transform="translate(-108.332 -126.17)"/><path class="aa" d="M96.825,140.69s-2.9-5.327.454-8.23c2.559-2.213,7.12-2.423,10.772-3.564" transform="translate(-95.66 -127.469)"/></g><g transform="translate(19.367 2.39)"><path class="aa" d="M102.447,137.093a2.768,2.768,0,0,1,.637-2.826c2-1.892,7.814-2.074,10.712-4.977" transform="translate(-102.319 -129.291)"/><path class="aa" d="M104.239,147.948a8.063,8.063,0,0,1-.64-1.058" transform="translate(-102.929 -137.679)"/></g></g></g></g></svg>