<svg xmlns="http://www.w3.org/2000/svg" xmlns:xlink="http://www.w3.org/1999/xlink" width="416.526" height="250.551" viewBox="0 0 416.526 250.551"><defs><style>.a{opacity:0.5;}.b{opacity:0.42;}.c{fill:#0065ff;}.d{fill:#005c52;}.e{fill:#00796c;}.f{fill:#002b2b;}.g{fill:#dbe2ef;}.az,.h{fill:#fff;}.i{fill:#50ac20;}.j{fill:#408e8c;}.k{fill:#ffab91;}.l{fill:#3f72af;}.m{fill:#112d4e;}.n{fill:#ff8a65;}.o{fill:#2b4e78;}.p{fill:#3e2723;}.q{fill:#09121f;}.r{fill:#519d9b;}.s{fill:#ab7361;}.t{fill:#96513c;}.u{fill:#315887;}.v{fill:#d01968;}.w{fill:#637373;opacity:0.22;mix-blend-mode:multiply;isolation:isolate;}.x{fill:#d3a84c;}.y{fill:url(#a);}.z{fill:#253858;}.aa{fill:url(#m);}.ab{fill:url(#n);}.ac{fill:url(#o);}.ad{fill:url(#q);}.ae{fill:url(#r);}.af{fill:url(#s);}.ag{fill:url(#t);}.ah{fill:url(#u);}.ai{fill:url(#v);}.aj{fill:url(#w);}.ak{fill:url(#x);}.al{fill:url(#y);}.am{fill:url(#z);}.an{fill:url(#aa);}.ao{fill:url(#ab);}.ap{fill:url(#ac);}.aq{fill:url(#ad);}.ar{fill:url(#ae);}.as{fill:url(#af);}.at{fill:url(#ag);}.au{fill:url(#ah);}.av{fill:url(#ai);}.aw{fill:url(#aj);}.ax{fill:url(#ak);}.ay{opacity:0.95;}.az{opacity:0.9;}</style><linearGradient id="a" x1="1.354" y1="1.447" x2="-1.16" y2="-1.964" gradientUnits="objectBoundingBox"><stop offset="0" stop-color="#a47a1e"/><stop offset="0.228" stop-color="#d3a84c"/><stop offset="0.414" stop-color="#ffec94"/><stop offset="0.586" stop-color="#e6be69"/><stop offset="0.772" stop-color="#ffd87c"/><stop offset="1" stop-color="#956d13"/><stop offset="1" stop-color="#b58f3e"/></linearGradient><linearGradient id="m" x1="1.354" y1="1.447" x2="-1.16" y2="-1.964" gradientUnits="objectBoundingBox"><stop offset="0" stop-color="#725109"/><stop offset="0.27" stop-color="#d3a84c"/><stop offset="0.393" stop-color="#e6be69"/><stop offset="0.493" stop-color="#ffec94"/><stop offset="0.772" stop-color="#ffd87c"/><stop offset="1" stop-color="#956d13"/><stop offset="1" stop-color="#b58f3e"/></linearGradient><linearGradient id="n" x1="0.979" y1="0.946" x2="-1.372" y2="-1.898" xlink:href="#a"/><linearGradient id="o" x1="0.581" y1="0.565" x2="-1.871" y2="-2.072" xlink:href="#a"/><linearGradient id="q" x1="1.663" y1="2.053" x2="-0.886" y2="-1.922" xlink:href="#a"/><linearGradient id="r" x1="1.979" y1="2.687" x2="-0.68" y2="-1.732" xlink:href="#a"/><linearGradient id="s" x1="2.425" y1="3.587" x2="-0.678" y2="-1.667" xlink:href="#a"/><linearGradient id="t" x1="2.872" y1="4.035" x2="-0.655" y2="-1.291" xlink:href="#a"/><linearGradient id="u" x1="3.603" y1="4.735" x2="-0.796" y2="-1.175" xlink:href="#a"/><linearGradient id="v" x1="3.984" y1="4.96" x2="-0.774" y2="-0.951" xlink:href="#a"/><linearGradient id="w" x1="4.358" y1="5.168" x2="-0.796" y2="-0.827" xlink:href="#a"/><linearGradient id="x" x1="5.664" y1="6.261" x2="-1.156" y2="-1.038" xlink:href="#a"/><linearGradient id="y" x1="5.383" y1="6.987" x2="-0.961" y2="-1.44" xlink:href="#a"/><linearGradient id="z" x1="-19.771" y1="0.946" x2="-22.123" y2="-1.898" xlink:href="#a"/><linearGradient id="aa" x1="-20.303" y1="0.565" x2="-22.755" y2="-2.072" xlink:href="#a"/><linearGradient id="ab" x1="-21.306" y1="1.447" x2="-23.82" y2="-1.964" xlink:href="#a"/><linearGradient id="ac" x1="-21.646" y1="2.053" x2="-24.195" y2="-1.922" xlink:href="#a"/><linearGradient id="ad" x1="-22.484" y1="2.687" x2="-25.143" y2="-1.732" xlink:href="#a"/><linearGradient id="ae" x1="-25.962" y1="3.587" x2="-29.066" y2="-1.667" xlink:href="#a"/><linearGradient id="af" x1="-29.151" y1="4.035" x2="-32.678" y2="-1.291" xlink:href="#a"/><linearGradient id="ag" x1="-35.915" y1="4.735" x2="-40.314" y2="-1.175" xlink:href="#a"/><linearGradient id="ah" x1="-38.27" y1="4.96" x2="-43.028" y2="-0.951" xlink:href="#a"/><linearGradient id="ai" x1="-40.777" y1="5.168" x2="-45.931" y2="-0.827" xlink:href="#a"/><linearGradient id="aj" x1="-53.304" y1="6.261" x2="-60.123" y2="-1.037" xlink:href="#a"/><linearGradient id="ak" x1="-48.527" y1="6.987" x2="-54.871" y2="-1.44" xlink:href="#a"/></defs><g transform="translate(-43.263 -59.735)"><g class="a" transform="translate(58.936 48.883)"><g class="b" transform="translate(0)"><path class="c" d="M77.5,324.3a47.968,47.968,0,0,1,16.843-71.12c9.691-4.949,21.3-6.77,29.055-14.4,6.866-6.759,9.322-16.911,9.378-26.546s-1.961-19.155-2.632-28.767c-1.7-24.374,5.858-49.676,22.319-67.73s42.023-28.022,66.092-23.82c29.172,5.094,52.066,28.862,80.855,35.805,16.611,4.007,33.995,2.121,51.009.551s34.583-2.743,50.823,2.571,31,18.667,32.865,35.652c2.485,22.645-17.66,45.483-8.924,66.522,3.239,7.8,9.942,13.536,15,20.3,15.509,20.752,13.343,52.73-4.821,71.2Z" transform="translate(-68.228 -64.544)"/><path class="c" d="M120.335,266.094a37.884,37.884,0,0,1-23.118,21.951c-5.708,1.881-12.232,2.282-17.523-.568s-8.684-9.607-6.376-15.156c2.1-5.058,7.794-7.487,11.471-11.547,3.619-4,5.147-9.43,6.215-14.714s1.824-10.74,4.288-15.534,7.115-8.908,12.506-8.956C124.336,221.425,123.981,256.7,120.335,266.094Z" transform="translate(-69.849 -113.158)"/><path class="c" d="M653.4,274.275a21.914,21.914,0,0,0,4.474,13.547c3.069,3.75,8.048,6.1,12.826,5.294s8.929-5.176,8.78-10.019c-.128-4.2-3.179-7.985-2.945-12.184.151-2.7,1.652-5.165,1.909-7.856.494-5.183-4.209-9.968-9.391-10.466C656.75,251.409,653.244,264.691,653.4,274.275Z" transform="translate(-286.03 -124.677)"/></g></g><g transform="translate(43.263 56.735)"><g transform="translate(70.798 106.023)"><g transform="translate(64.726 51.428)"><path class="d" d="M279.625,379.231c-.848-3.543-1.755-7.231-2.557-10.983-.994.881-2.015,1.742-2.959,2.665-7.115,6.958-6.19,38.076-6.19,38.076s.592-.313,1.579-.855c3.5-8.076,7.182-16.34,11.323-24.293Q280.176,381.537,279.625,379.231Z" transform="translate(-262.39 -333.056)"/><path class="d" d="M289.2,345.208c.821,4.556,1.664,9.108,2.738,13.612a120.03,120.03,0,0,1,15.787-22.307q-.776-3.811-1.423-7.65c-.642-3.818-1.507-7.81-2.159-11.837-5.777,2.76-10.577,7.4-12.2,13.5-1.226,4.594-.645,9.735-2.88,13.9Q289.133,344.817,289.2,345.208Z" transform="translate(-270.274 -313.99)"/><path class="d" d="M323.543,312.777c-.952.168-1.9.393-2.842.657.08.481.16.963.238,1.45.763,4.8,1.332,9.618,2.207,14.4.088.482.185.962.276,1.443a66.011,66.011,0,0,1,20.932-13.666,9.716,9.716,0,0,1,5.813-2.195C341.394,313.049,332.366,311.224,323.543,312.777Z" transform="translate(-282.051 -312.191)"/><path class="e" d="M328.2,351.112a24.986,24.986,0,0,0,3.354-10.472c.616-4.781.7-9.714,2.435-14.21a15.333,15.333,0,0,1,4.69-6.48c-14,5.625-24.607,15.853-33.227,28.142A85.022,85.022,0,0,1,328.2,351.112Z" transform="translate(-276.374 -315.079)"/><path class="e" d="M275.928,412.224c-1.891,4.1-3.709,8.211-5.471,12.278a146.634,146.634,0,0,0,17.3-10.964A81.736,81.736,0,0,0,275.928,412.224Z" transform="translate(-263.35 -349.424)"/><path class="e" d="M296.518,394.78a10.6,10.6,0,0,0,1.316-1.77c2.431-4.307,3.89-9.359,7.6-12.628,3.042-2.681,7.2-3.788,10.52-6.061A82.957,82.957,0,0,0,293.8,372.2a195.069,195.069,0,0,0-11.238,20.584A91.654,91.654,0,0,1,296.518,394.78Z" transform="translate(-267.856 -334.503)"/><path class="f" d="M292.763,349.447a161.369,161.369,0,0,0-33.627,71.822h2.978a158.93,158.93,0,0,1,33.074-70.208C296.379,349.61,293.941,348.013,292.763,349.447Z" transform="translate(-259.136 -325.849)"/></g><g transform="translate(0 77.931)"><path class="e" d="M183.9,357.6a23.622,23.622,0,0,0-6.636-2.509c-6.972-1.48-14.2-.28-21.228.922a7.73,7.73,0,0,1,4.562,1.907c8.848,3.919,15.854,10.157,21.652,17.671A132.139,132.139,0,0,0,183.9,357.6Z" transform="translate(-156.036 -354.408)"/><path class="e" d="M217.675,389.477c-1.811-1.9-4.024-3.494-5.27-5.8-1.849-3.427-1.175-7.63-2.047-11.425a15.276,15.276,0,0,0-4.167-7.311,137.52,137.52,0,0,1-2.4,19.875c6.862,10.453,11.915,22.67,16.514,34.388.77.459,1.232.724,1.232.724S223.139,395.208,217.675,389.477Z" transform="translate(-173.811 -358.327)"/><path class="d" d="M168.391,376.655c.356,3.818,1.282,7.837,4.022,10.52,2.126,2.082,5.068,3.1,7.559,4.714,4.613.057,9.235-.085,13.859-.26-7.25-13.582-16.621-25.462-30.529-31.623a12.2,12.2,0,0,1,3.548,5.283C168.107,368.912,168.034,372.836,168.391,376.655Z" transform="translate(-158.74 -356.491)"/><path class="d" d="M196.626,417.946c1.246,2.233,2.1,4.756,3.289,7.043,2.256,4.344,13.891,11.529,17.723,13.812-2.767-7.05-5.7-14.282-9.087-21.2C204.574,417.755,200.6,417.9,196.626,417.946Z" transform="translate(-171.144 -377.928)"/><path class="f" d="M216.52,432.289h2.4A128.329,128.329,0,0,0,190.616,378.9c-.981-1.1-2.87.242-1.877,1.359A126.4,126.4,0,0,1,216.52,432.289Z" transform="translate(-168.104 -363.372)"/></g><g transform="translate(43.867)"><path class="d" d="M249.951,281.331a109.046,109.046,0,0,1,8.288-20.068,109.393,109.393,0,0,1-6.4-19.32c-.5.255-1,.513-1.489.787A33.985,33.985,0,0,0,237.3,255.562,125.766,125.766,0,0,0,249.951,281.331Z" transform="translate(-230.149 -234.617)"/><path class="d" d="M234.217,297.774a22.391,22.391,0,0,1-2.708,6.53,115.794,115.794,0,0,0,10.64,14.458A192.482,192.482,0,0,1,246.13,299.1a139.16,139.16,0,0,1-13.506-25.163,21.461,21.461,0,0,0-.544,6.522C232.513,286.293,235.349,292.031,234.217,297.774Z" transform="translate(-227.994 -246.524)"/><path class="d" d="M226.92,329.783c-4.639,11.231,8.215,44.9,8.215,44.9s.546-.587,1.447-1.588c.67-9.058,1.441-18.328,2.635-27.516A123.237,123.237,0,0,1,226.92,329.783Z" transform="translate(-225.91 -267.311)"/><path class="d" d="M267.227,235.7a102.608,102.608,0,0,0,5.056,16.274,76.478,76.478,0,0,1,14.4-16.931,11.62,11.62,0,0,1,5.7-4.766C283.867,231.393,275.165,232.579,267.227,235.7Z" transform="translate(-241.288 -230.273)"/><path class="e" d="M284.993,266.091c-.117-.69-.248-1.376-.39-2.053-1.186-5.642-3.035-11.246-2.841-17.009a18.342,18.342,0,0,1,2.747-9.165c-10.876,9.485-18.135,21.444-23.118,34.683A132.252,132.252,0,0,1,284.993,266.091Z" transform="translate(-239.116 -233.098)"/><path class="e" d="M269.989,311.5c2.914-3.915,7.243-6.819,9.577-11.135a19.481,19.481,0,0,0,2-10.3,119.674,119.674,0,0,0-25.312,7.328,2.494,2.494,0,0,1-.752.183,159.136,159.136,0,0,0-4.686,18.588C257.171,314.445,263.555,312.823,269.989,311.5Z" transform="translate(-235.18 -252.527)"/><path class="e" d="M246.97,337.043c-2.067,12.277-3.158,24.886-4.061,37.112,4.488-4.983,18-20.473,19.312-27.715.827-4.576.8-9.433,2.158-13.805C258.545,333.94,252.748,335.463,246.97,337.043Z" transform="translate(-232.237 -268.373)"/><path class="f" d="M245.512,394.273a190.14,190.14,0,0,1,13.279-115.727c.93-2.045-2.381-3.136-3.3-1.116A193.147,193.147,0,0,0,241.96,394.273Z" transform="translate(-230.535 -247.425)"/></g></g><g transform="translate(153.858 3)"><path d="M458.686,69.151V303.777a7.762,7.762,0,0,1-7.766,7.76H296.106a7.762,7.762,0,0,1-7.766-7.76V69.151a7.762,7.762,0,0,1,7.766-7.76H450.92A7.762,7.762,0,0,1,458.686,69.151Z" transform="translate(-288.34 -61.391)"/><path class="g" d="M11.164,0H142.616A11.164,11.164,0,0,1,153.78,11.164v203.5a11.165,11.165,0,0,1-11.165,11.165H11.164A11.164,11.164,0,0,1,0,214.66V11.164A11.164,11.164,0,0,1,11.164,0Z" transform="translate(8.284 12.161)"/><g transform="translate(20.735 136.435)"><rect class="h" width="12.539" height="12.539" rx="4.431"/><g transform="translate(27.867 1.665)"><path class="h" d="M468.007,284.619H367.383a1.626,1.626,0,0,1-1.626-1.626h0a1.626,1.626,0,0,1,1.626-1.626H468.007a1.626,1.626,0,0,1,1.626,1.626h0A1.626,1.626,0,0,1,468.007,284.619Z" transform="translate(-365.757 -281.367)"/><path class="h" d="M416.863,294.107h-49.48a1.626,1.626,0,0,1-1.626-1.626h0a1.626,1.626,0,0,1,1.626-1.625h49.48a1.625,1.625,0,0,1,1.625,1.625h0A1.625,1.625,0,0,1,416.863,294.107Z" transform="translate(-365.757 -284.899)"/></g></g><g transform="translate(20.735 171.567)"><rect class="h" width="12.539" height="12.539" rx="4.431"/><g transform="translate(27.867 1.665)"><path class="h" d="M468.007,340.579H367.383a1.626,1.626,0,0,1-1.626-1.626h0a1.626,1.626,0,0,1,1.626-1.626H468.007a1.626,1.626,0,0,1,1.626,1.626h0A1.626,1.626,0,0,1,468.007,340.579Z" transform="translate(-365.757 -337.327)"/><path class="h" d="M416.863,350.068h-49.48a1.626,1.626,0,0,1-1.626-1.626h0a1.626,1.626,0,0,1,1.626-1.626h49.48a1.625,1.625,0,0,1,1.625,1.626h0A1.626,1.626,0,0,1,416.863,350.068Z" transform="translate(-365.757 -340.859)"/></g></g><g transform="translate(20.735 206.698)"><rect class="h" width="12.539" height="12.539" rx="4.431"/><g transform="translate(27.867 1.665)"><path class="h" d="M468.007,396.539H367.383a1.626,1.626,0,0,1-1.626-1.626h0a1.626,1.626,0,0,1,1.626-1.626H468.007a1.626,1.626,0,0,1,1.626,1.626h0A1.626,1.626,0,0,1,468.007,396.539Z" transform="translate(-365.757 -393.287)"/><path class="h" d="M416.863,406.028h-49.48a1.626,1.626,0,0,1-1.626-1.626h0a1.626,1.626,0,0,1,1.626-1.626h49.48a1.625,1.625,0,0,1,1.625,1.626h0A1.626,1.626,0,0,1,416.863,406.028Z" transform="translate(-365.757 -396.819)"/></g></g><g transform="translate(22.375 132.819)"><path class="i" d="M329.238,288.747l-4.8-4.8a1.569,1.569,0,0,1,2.22-2.219l2.577,2.577,10.892-10.893a1.569,1.569,0,0,1,2.22,2.219Z" transform="translate(-323.981 -272.955)"/></g><g transform="translate(22.375 168.313)"><path class="i" d="M329.238,345.285l-4.8-4.8a1.569,1.569,0,0,1,2.22-2.219l2.577,2.577,10.892-10.893a1.569,1.569,0,1,1,2.22,2.219Z" transform="translate(-323.981 -329.492)"/></g><g transform="translate(22.375 203.445)"><path class="i" d="M329.238,401.245l-4.8-4.8a1.569,1.569,0,0,1,2.22-2.219l2.577,2.577,10.892-10.893a1.569,1.569,0,0,1,2.22,2.219Z" transform="translate(-323.981 -385.453)"/></g><g transform="translate(20.735 79.323)"><path class="h" d="M451.486,227.755H322.995a1.626,1.626,0,0,1-1.626-1.626h0a1.625,1.625,0,0,1,1.626-1.625H451.486a1.626,1.626,0,0,1,1.626,1.625h0A1.626,1.626,0,0,1,451.486,227.755Z" transform="translate(-321.369 -201.426)"/><path class="h" d="M451.486,218.565H322.995a1.626,1.626,0,0,1-1.626-1.626h0a1.626,1.626,0,0,1,1.626-1.626H451.486a1.626,1.626,0,0,1,1.626,1.626h0A1.626,1.626,0,0,1,451.486,218.565Z" transform="translate(-321.369 -198.005)"/><path class="h" d="M451.486,209.375H322.995a1.626,1.626,0,0,1-1.626-1.626h0a1.626,1.626,0,0,1,1.626-1.626H451.486a1.626,1.626,0,0,1,1.626,1.626h0A1.626,1.626,0,0,1,451.486,209.375Z" transform="translate(-321.369 -194.584)"/><path class="h" d="M451.486,200.185H322.995a1.626,1.626,0,0,1-1.626-1.626h0a1.626,1.626,0,0,1,1.626-1.626H451.486a1.626,1.626,0,0,1,1.626,1.626h0A1.626,1.626,0,0,1,451.486,200.185Z" transform="translate(-321.369 -191.164)"/><rect class="h" width="131.743" height="3.252" rx="1.626"/><path class="h" d="M386.621,237.244H322.995a1.626,1.626,0,0,1-1.626-1.626h0a1.626,1.626,0,0,1,1.626-1.626h63.626a1.626,1.626,0,0,1,1.625,1.626h0A1.626,1.626,0,0,1,386.621,237.244Z" transform="translate(-321.369 -204.957)"/></g><g transform="translate(20.735 30.032)"><path class="h" d="M451.486,149.24H322.995a1.626,1.626,0,0,1-1.626-1.626h0a1.625,1.625,0,0,1,1.626-1.625H451.486a1.626,1.626,0,0,1,1.626,1.625h0A1.626,1.626,0,0,1,451.486,149.24Z" transform="translate(-321.369 -122.911)"/><path class="h" d="M451.486,140.05H322.995a1.626,1.626,0,0,1-1.626-1.626h0a1.626,1.626,0,0,1,1.626-1.626H451.486a1.626,1.626,0,0,1,1.626,1.626h0A1.626,1.626,0,0,1,451.486,140.05Z" transform="translate(-321.369 -119.49)"/><path class="h" d="M451.486,130.86H322.995a1.626,1.626,0,0,1-1.626-1.626h0a1.626,1.626,0,0,1,1.626-1.626H451.486a1.626,1.626,0,0,1,1.626,1.626h0A1.626,1.626,0,0,1,451.486,130.86Z" transform="translate(-321.369 -116.069)"/><path class="h" d="M451.486,121.67H322.995a1.626,1.626,0,0,1-1.626-1.626h0a1.626,1.626,0,0,1,1.626-1.626H451.486a1.626,1.626,0,0,1,1.626,1.626h0A1.626,1.626,0,0,1,451.486,121.67Z" transform="translate(-321.369 -112.649)"/><path class="h" d="M451.486,112.48H322.995a1.626,1.626,0,0,1-1.626-1.626h0a1.626,1.626,0,0,1,1.626-1.626H451.486a1.626,1.626,0,0,1,1.626,1.626h0A1.626,1.626,0,0,1,451.486,112.48Z" transform="translate(-321.369 -109.228)"/><rect class="h" width="66.878" height="3.252" rx="1.626" transform="translate(0 29.035)"/></g></g><g transform="translate(202.395 74.255)"><g transform="translate(0 34.267)"><path class="j" d="M423.787,231.068c-3.333,1.327-5.322,4.728-6.727,8.029a124.407,124.407,0,0,0-6.764,21.521s-5.326-1.433-8.456-.835a24.81,24.81,0,0,0-2.935,4.766,5.336,5.336,0,0,0-.865,3.673,10.718,10.718,0,0,0,2.973,1.959,116.143,116.143,0,0,0,11.518,3.727c3.667-4.535,7.4-8.981,10.728-13.766Z" transform="translate(-377.672 -231.068)"/><path class="k" d="M368.509,264.037a14.924,14.924,0,0,1,4.656.112c.947,1.569,2.523,3.659,3.646,5.12a49.22,49.22,0,0,0,13.785,3.309,5.691,5.691,0,0,1-.068,4.565,5.822,5.822,0,0,1-3.233,3.307c-3.258-1.783-8.546-6.342-11.8-8.125a3.821,3.821,0,0,1-3.135.542,4.3,4.3,0,0,1-2.3-1.532c-.033.013-.067.024-.1.037-.47.194-.743.676-1.209.834a.492.492,0,0,1-.623-.3c-.169-.761.512-1.406,1.136-1.737l.02-.01a3.382,3.382,0,0,0-1.63.522.635.635,0,0,1-.844-.926,3.424,3.424,0,0,1,2.438-1.2,6.455,6.455,0,0,1,1.224.019c.005-.028.009-.057.013-.084-1.288-.153-2.663-.583-3.568.483a.539.539,0,0,1-.937-.44,2.509,2.509,0,0,1,2.334-1.893,11.83,11.83,0,0,1,2.087.058c.095.007.188.012.28.016.008-.152.014-.3.016-.453a5.8,5.8,0,0,0-1.931-.456,1.672,1.672,0,0,0-.913.281,5.839,5.839,0,0,1-.845.471,1.076,1.076,0,0,1-.935-.028c-.276-.169-.587-.681-.3-.834C366.626,265.234,367.536,264.125,368.509,264.037Z" transform="translate(-365.653 -243.292)"/><g transform="translate(0.565 16.167)"><path class="l" d="M368.21,274.142l-.563.863a.446.446,0,0,1-.584.149h0a.446.446,0,0,1-.2-.569l.408-.946a.445.445,0,0,1,.62-.216l.156.083A.446.446,0,0,1,368.21,274.142Z" transform="translate(-366.655 -262.979)"/><rect class="m" width="10.341" height="3.117" transform="matrix(0.473, -0.881, 0.881, 0.473, 0.284, 9.11)"/><path class="m" d="M369.261,272.736l-1.21,1.528-1.5-.8.605-1.852Z" transform="translate(-366.553 -262.323)"/></g><g transform="translate(3.587 20.912)"><path class="k" d="M372.7,265.246a.682.682,0,0,0-.65.133.617.617,0,0,0-.033.569,2.37,2.37,0,0,0,2.581,1.62.89.89,0,0,0,.52-1.512,3.152,3.152,0,0,0-1.05-.473A8.609,8.609,0,0,0,372.7,265.246Z" transform="translate(-371.589 -264.693)"/><path class="n" d="M371.532,264.612a.36.36,0,0,1,.48-.208c.008,0,.014,0,.023,0a16.6,16.6,0,0,1,3.271.969c.534.218.094,1-.435.783a15.326,15.326,0,0,0-2.618-.792c-.006.989,1.964,1.677,2.625,1.893a.438.438,0,0,1,.3.324.452.452,0,0,1,.01.385A2.04,2.04,0,0,0,375.3,270a1.282,1.282,0,0,0,1.836.3c.471-.335.934.433.467.765a2.165,2.165,0,0,1-2.872-.348,2.779,2.779,0,0,1-.488-2.73C372.794,267.449,370.77,266.376,371.532,264.612Z" transform="translate(-371.366 -264.378)"/></g><path class="o" d="M400.928,285.11a6.07,6.07,0,0,0,2.321-2.912,5.521,5.521,0,0,0,.325-4.123c-.152-.374.455-.536.606-.166a6.087,6.087,0,0,1-.347,4.508,6.692,6.692,0,0,1-2.59,3.236C400.9,285.867,400.584,285.323,400.928,285.11Z" transform="translate(-378.727 -248.425)"/><path class="o" d="M418.883,278.4a1.838,1.838,0,0,1,.717.726q.34.514.633,1.058a14.742,14.742,0,0,1,.968,2.224c.131.382-.475.547-.606.166a13.766,13.766,0,0,0-.868-2.005q-.252-.475-.541-.928a1.643,1.643,0,0,0-.614-.695C418.205,278.772,418.518,278.228,418.883,278.4Z" transform="translate(-385.289 -248.672)"/></g><path class="p" d="M445.911,201.224a11.078,11.078,0,0,1,2.528-4.572,7.516,7.516,0,0,1,1.063-1.165c.723-.6,1.238-.681,1.379-1.718.547-4.016-.147-9.861-3.841-12.353a6.376,6.376,0,0,0-1.739-.905c-.66-.191-1.231.08-1.858-.034-.907-.165-.6-1.566-.862-2.192a3.316,3.316,0,0,0-3.664-1.74,5.8,5.8,0,0,0-3.482,2.5,4.349,4.349,0,0,0-.76,1.571.037.037,0,0,1-.01.019,2.924,2.924,0,0,0-3.286-.723,5.726,5.726,0,0,0-2.558,2.672,11.679,11.679,0,0,0,.24,10.335,19.711,19.711,0,0,0,7.321,7.65,13.973,13.973,0,0,0,4.8,2.091A6.341,6.341,0,0,0,445.911,201.224Z" transform="translate(-388.757 -176.485)"/><g transform="translate(30.63 75.359)"><path class="q" d="M417.113,350.61c-2.62-17.762-.541-36.488,3.006-54.088,5.609.222,10.4.493,15.82,1.941a109.591,109.591,0,0,1-13.66,54.156Z" transform="translate(-414.998 -296.522)"/><path class="k" d="M465.426,439.377a2.63,2.63,0,0,1-1.351-.151c.816,3.087,1.6,6.181,2.343,9.288a10.235,10.235,0,0,0,5.041-1.006c.122-3.379.328-6.917.469-10.512A16.308,16.308,0,0,1,465.426,439.377Z" transform="translate(-432.916 -348.807)"/><path class="m" d="M462.626,390.4A36.235,36.235,0,0,0,450.1,373.578l-1.48,2.7a8.513,8.513,0,0,0-.368,7.046c3.94,10.335,6.7,25.377,9.539,36.11.252.955,2.741.589,4.1.384.593-.089,4.751-.969,4.775-1.583C466.973,410.478,465.173,397.294,462.626,390.4Z" transform="translate(-426.807 -325.203)"/><path class="m" d="M438.648,355.106c-3.777-12.716-5.909-36.366-5.909-36.366s-10.661-8.833-10.661-20.712c5.584-.576,21.935,2.864,27.509,3.527a109.6,109.6,0,0,1-5.843,55.546Z" transform="translate(-417.285 -297.058)"/><path class="q" d="M464.5,443.31a20.785,20.785,0,0,0,7.38-1.706c.529-.228.771.636.248.861a21.449,21.449,0,0,1-7.617,1.741C463.936,444.232,463.926,443.336,464.5,443.31Z" transform="translate(-432.916 -350.508)"/><path class="q" d="M456.15,381.421a9.216,9.216,0,0,0,2.023-4.156c.118-.564.985-.336.867.228a10.167,10.167,0,0,1-2.249,4.555C456.416,382.487,455.778,381.858,456.15,381.421Z" transform="translate(-429.925 -326.453)"/><path class="q" d="M457.268,386.178l1.131-2.015a.448.448,0,0,1,.779.443l-1.132,2.015A.448.448,0,0,1,457.268,386.178Z" transform="translate(-430.36 -329.06)"/><g transform="translate(1.92 45.807)"><path class="k" d="M433.7,435.089a2.625,2.625,0,0,1-1.345-.192c.723,3.11,1.418,6.227,2.062,9.355,2.184.117,3.156.566,5.2-.181.224-3.373.4-7.577.652-11.167A16.313,16.313,0,0,1,433.7,435.089Z" transform="translate(-423.029 -393.091)"/><path class="q" d="M432.154,386.674a36.231,36.231,0,0,0-12.017-17.187l-1.561,2.65a8.513,8.513,0,0,0-.58,7.031c3.628,10.449,6.316,28.327,8.827,39.14.224.962,3.958.708,5.308.547.6-.071,3.169-.121,3.211-.735C435.882,410.381,434.492,393.645,432.154,386.674Z" transform="translate(-417.501 -369.487)"/><path class="m" d="M433.151,443.365a10.47,10.47,0,0,0,6.515-1.937c.469-.331,1.048.353.577.686a11.492,11.492,0,0,1-7.18,2.143C432.486,444.237,432.576,443.344,433.151,443.365Z" transform="translate(-423.148 -396.231)"/><path class="m" d="M424.333,377.779l1.91-2.914c.316-.483,1.047.035.731.517l-1.91,2.914C424.748,378.78,424.017,378.261,424.333,377.779Z" transform="translate(-420.015 -371.417)"/><path class="m" d="M426.422,381.774q.409-1.548.816-3.1c.147-.557.985-.239.839.315q-.409,1.547-.816,3.1C427.114,382.646,426.276,382.328,426.422,381.774Z" transform="translate(-420.815 -372.8)"/></g><path class="h" d="M420.5,451.539l5.265-1.35,7.464-.129a17.97,17.97,0,0,1,1.176,6.1H414.443C414.457,453.116,417.453,451.539,420.5,451.539Z" transform="translate(-414.443 -353.669)"/><path class="h" d="M454.234,451.539l5.265-1.35,7.465-.129a17.97,17.97,0,0,1,1.176,6.1H448.177C448.191,453.116,451.187,451.539,454.234,451.539Z" transform="translate(-426.999 -353.669)"/></g><path class="r" d="M436.984,226.91a22.51,22.51,0,0,1,7.817-.76c5.02.4,11.446,3.469,10.408,9.505-.53,3.083-2.4,5.786-3.01,8.87a126.844,126.844,0,0,0-1.905,34.873c.136,1.8.78,4.179-.932,4.75-7.973,2.661-14.971,2.67-23.375,2.369a16.336,16.336,0,0,1-5.672-1,3.694,3.694,0,0,1-2.208-3.739c1.085-12.361,2.064-24.4,3.162-36.8l.012-.136C422.056,235.931,428.8,229.181,436.984,226.91Z" transform="translate(-385.171 -194.944)"/><g transform="translate(32.952 32.404)"><path class="r" d="M444.252,232.338c.68.674,1.79.49,2.637.323a11.392,11.392,0,0,0,2.681-.883,11.568,11.568,0,0,0,4.336-3.542c.238-.321.786-.014.546.309a12.219,12.219,0,0,1-4.9,3.93,11.915,11.915,0,0,1-2.978.876,3.11,3.11,0,0,1-2.763-.57A.314.314,0,0,1,444.252,232.338Z" transform="translate(-427.66 -228.1)"/><path class="r" d="M418.376,287.625q.181-1.2.247-2.408c.167-3.181-.121-6.361.218-9.536.335-3.137.807-6.264,1.22-9.392.416-3.143.839-6.288,1.419-9.406.324-1.744.7-3.479,1.146-5.2a14.985,14.985,0,0,1,1.737-4.482c.22-.338.767-.029.546.309a13.331,13.331,0,0,0-1.559,3.891c-.395,1.468-.734,2.951-1.033,4.442-.6,3.01-1.04,6.049-1.448,9.091q-.62,4.621-1.221,9.244a41.055,41.055,0,0,0-.37,4.611c-.024,1.556.031,3.112.021,4.668a37.536,37.536,0,0,1-.413,4.985c-.208,1.492-.24,3.254,1.052,4.288.315.252-.132.694-.444.444a4.157,4.157,0,0,1-1.352-3.337A15.657,15.657,0,0,1,418.376,287.625Z" transform="translate(-418.141 -235.156)"/><path class="r" d="M439.409,310c4.752-.455,9.807-1.266,13.656-4.315.313-.247.761.193.444.444-4,3.166-9.16,4.026-14.1,4.5C439.006,310.664,439.009,310.037,439.409,310Z" transform="translate(-425.945 -256.95)"/></g><g transform="translate(42.124 8.204)"><path class="k" d="M445.757,211.809c1.214,3.074.526,9.966.129,10.4a1.245,1.245,0,0,0-.239,1.58c.389.449,1.108.321,1.67.127a17.453,17.453,0,0,0,7.083-4.635c-.193-.171-.522-.515-.714-.686-2.283-2.029-1.455-8.473-1.18-11.515Z" transform="translate(-437.478 -196.075)"/><path class="n" d="M452.333,213.415c.061-1.286.2-4.893.3-6.066l-6.7,4.562a15.672,15.672,0,0,1,.684,5.271C448.517,215.913,450.468,214.7,452.333,213.415Z" transform="translate(-437.66 -196.177)"/><path class="k" d="M433.2,193.7c-1,4.821-.805,15.425,5.844,16.212a6.367,6.367,0,0,0,5.565-2.784,18.765,18.765,0,0,0,2.592-5.941,7.084,7.084,0,0,0,2.406-.611,2.289,2.289,0,0,0,1.244-1.925,1.414,1.414,0,0,0-1.58-1.384c-1.554.368-2.82,2.342-3.016.72-1.428-11.83-8.386-5.613-10.669-8.437-.038-.046-1.71,2.32-1.846,2.587A6.139,6.139,0,0,0,433.2,193.7Z" transform="translate(-432.751 -189.553)"/><path class="n" d="M458.31,203.57c-.556-.323-1.219.053-1.67.42-.3.24-.92.876-.613,1.289a.027.027,0,0,0,.025.008c.365-.062.61-.582.9-.8.416-.311.934-.318,1.345-.605A.184.184,0,0,0,458.31,203.57Z" transform="translate(-441.384 -194.725)"/></g><g transform="translate(56.684 33.951)"><path class="r" d="M462.738,231.377a4.684,4.684,0,0,1,4.685-.339,10.021,10.021,0,0,1,5.8,5.946c2.536,7.365,5.279,15.217,7.614,22.647,1.777,5.654-2.426,11.744-4.889,17.134-2.917-1.181-5.7-2.526-8.621-3.707a50.286,50.286,0,0,1,2.155-11.621c-4.429-8.925-5.717-13.507-9.294-22.807" transform="translate(-457.522 -230.565)"/><g transform="translate(0 40.972)"><path class="k" d="M455.944,317.235v-.055a8.148,8.148,0,0,1,5.43-7.476q.3-.11.6-.212a49.207,49.207,0,0,0,4.66-13.389,5.69,5.69,0,0,1,4.535.52,5.821,5.821,0,0,1,2.97,3.545c-2.1,3.064-7.158,7.875-9.255,10.939a3.819,3.819,0,0,1,.229,3.173,4.3,4.3,0,0,1-1.752,2.14c.009.035.017.069.026.1.147.486.6.805.71,1.286a.492.492,0,0,1-.361.59c-.773.093-1.349-.648-1.616-1.3l-.008-.021a3.379,3.379,0,0,0,.357,1.674.636.636,0,0,1-1.006.749,3.428,3.428,0,0,1-.952-2.544,6.492,6.492,0,0,1,.141-1.217l-.082-.021c-.279,1.267-.844,2.592.127,3.6a.54.54,0,0,1-.531.89,2.51,2.51,0,0,1-1.652-2.511,11.833,11.833,0,0,1,.264-2.071c.016-.094.03-.186.043-.277-.151-.022-.3-.044-.45-.061a5.776,5.776,0,0,0-.645,1.876,1.67,1.67,0,0,0,.189.936,5.861,5.861,0,0,1,.386.888,1.048,1.048,0,0,1-.159.974.605.605,0,0,1-.973-.146C456.728,318.993,455.936,318.1,455.944,317.235Z" transform="translate(-455.944 -295.827)"/></g><path class="o" d="M477.32,278.78a8.635,8.635,0,0,1,3.687.288c.393.09.288.709-.107.619a8.211,8.211,0,0,0-3.526-.281.316.316,0,0,1-.34-.286A.322.322,0,0,1,477.32,278.78Z" transform="translate(-463.793 -248.472)"/><path class="o" d="M478.926,280.341l1.2.126a.316.316,0,0,1,.256.363.322.322,0,0,1-.363.256l-1.2-.126a.316.316,0,0,1-.256-.363A.322.322,0,0,1,478.926,280.341Z" transform="translate(-464.361 -249.091)"/><path class="o" d="M464.069,253.806q3.065,7.894,6.778,15.515c.177.362-.415.573-.591.213q-3.709-7.614-6.778-15.515A.314.314,0,0,1,464.069,253.806Z" transform="translate(-458.739 -239.142)"/><path class="o" d="M462.9,257.569a10.149,10.149,0,0,0,2.669,2.7.314.314,0,0,1-.4.486,10.648,10.648,0,0,1-2.784-2.82C462.161,257.6,462.674,257.232,462.9,257.569Z" transform="translate(-458.321 -240.566)"/><path class="o" d="M472.544,295.316a5.782,5.782,0,0,1,5.02.35,7.538,7.538,0,0,1,3.213,3.829c.149.375-.441.589-.591.213a6.849,6.849,0,0,0-2.882-3.47,5.192,5.192,0,0,0-4.548-.33C472.384,296.063,472.171,295.472,472.544,295.316Z" transform="translate(-462.05 -254.51)"/></g></g><g transform="translate(79.766 8.119)"><g transform="translate(29.401 34.36)"><path class="p" d="M247.055,150.037c.422-2.872-1.206-5.814-3.766-7.589a14.843,14.843,0,0,0-9.159-2.289l-.1.006a9.921,9.921,0,0,0-8.755,12.854,17.464,17.464,0,0,0,2.89,5.606c1.962,2.524,4.909,4.793,8.347,4.769a9.428,9.428,0,0,0,7.532-4.449A24.174,24.174,0,0,0,247.055,150.037Z" transform="translate(-220.011 -133.177)"/><g transform="translate(9.382 11.676)"><path class="s" d="M246.8,187.449c-.407.469-1.161.337-1.747.133a18.238,18.238,0,0,1-7.4-4.842c.2-.18.547-.539.746-.715,2.387-2.122,1.521-6.279,1.235-9.456l7.05,2.368a8.746,8.746,0,0,0-.434,1.622,24.711,24.711,0,0,0-.262,4.908,14.824,14.824,0,0,0,.563,4.334A1.3,1.3,0,0,1,246.8,187.449Z" transform="translate(-234.166 -156.926)"/><path class="t" d="M248.57,182.986c-.086-.055-.172-.114-.258-.168a8.208,8.208,0,0,1-3.724-6.131l0-.035,4.248,1.426A24.711,24.711,0,0,0,248.57,182.986Z" transform="translate(-236.744 -158.446)"/><path class="s" d="M249.372,151.489c1.912,4.778,3.638,15.725-3.06,17.746a6.655,6.655,0,0,1-6.233-1.851,19.628,19.628,0,0,1-3.749-5.641,7.414,7.414,0,0,1-2.587-.191,2.393,2.393,0,0,1-1.631-1.753,1.478,1.478,0,0,1,1.373-1.713c5.455.313,10.034-5.65,12.677-10.432.03-.055,2.182,2.075,2.37,2.325A6.4,6.4,0,0,1,249.372,151.489Z" transform="translate(-232.096 -147.652)"/><path class="t" d="M236.177,166.187a1.856,1.856,0,0,0-2.527-.664c-.437.247-.075.94.365.692a1.063,1.063,0,0,1,1.472.337C235.752,166.975,236.446,166.614,236.177,166.187Z" transform="translate(-232.601 -154.21)"/></g><path class="p" d="M217.829,141.457a8.306,8.306,0,0,1,.571-7.641,10.24,10.24,0,0,1,6.355-4.473,9.41,9.41,0,0,1,7.788,1.393,6.86,6.86,0,0,1,2.569,7.232c-1.1,3.567-5.465,5.993-8.763,7.114A6.76,6.76,0,0,1,217.829,141.457Z" transform="translate(-217.152 -129.054)"/></g><g transform="translate(0 106.03)"><path class="l" d="M250.667,258.687c-.872-5.275-1.546-10.448-4.455-15.43-6.613-.259-19.99.78-20.545,1.384-1.316,1.435-8.835,11.281-9.336,15.173-.982,7.626-.454,15.374.323,22.935.76,7.394,2.647,15.279,2.675,22.781,2.28.272,2.9.616,5.182.889a185.1,185.1,0,0,0,8.33-37.4c.51.072,1.433.17,1.942.242a303.019,303.019,0,0,1,3.52,38.2,13.371,13.371,0,0,0,5.044.268c.525-.075,1.913-6.088,2.127-6.844a190.965,190.965,0,0,0,5.29-23.894A59.71,59.71,0,0,0,250.667,258.687Z" transform="translate(-187.247 -243.216)"/><g transform="translate(46.461 54.467)"><path class="s" d="M253.355,387.882a1.868,1.868,0,0,0,.914-.316c-.085,2.271-.149,4.543-.177,6.815a7.282,7.282,0,0,1-3.657.089c-.613-2.327-1.307-4.752-1.966-7.226A11.617,11.617,0,0,0,253.355,387.882Z" transform="translate(-245.868 -351.291)"/><path class="l" d="M244.566,346.44a31.143,31.143,0,0,1,7.335-16.465l1.75,1.981a7.32,7.32,0,0,1,1.637,5.839,269.994,269.994,0,0,0-2.561,28.455,1.868,1.868,0,0,1-.914.316,11.617,11.617,0,0,1-4.886-.638C245.209,359.485,243.731,352.7,244.566,346.44Z" transform="translate(-244.326 -329.975)"/></g><g transform="translate(4.173 58.121)"><path class="s" d="M183.824,372.117a1.872,1.872,0,0,0,.845.471q-2.624,2.174-5.2,4.409a7.281,7.281,0,0,1-2.5-2.668c1.327-2.007,2.673-4.141,4.078-6.282A11.618,11.618,0,0,0,183.824,372.117Z" transform="translate(-176.967 -347.8)"/><path class="l" d="M196.42,341.3a31.137,31.137,0,0,1,17.165-5.5l-.312,2.625a7.316,7.316,0,0,1-3.263,5.112,270.043,270.043,0,0,0-22.923,17.052,1.872,1.872,0,0,1-.845-.471,11.617,11.617,0,0,1-2.78-4.069C187.122,350.469,191.192,344.849,196.42,341.3Z" transform="translate(-179.384 -335.795)"/></g><path class="h" d="M259.786,399.169l-4.285-1.1-6.075-.1a14.63,14.63,0,0,0-.957,4.965h16.247C264.7,400.452,262.266,399.169,259.786,399.169Z" transform="translate(-199.407 -300.814)"/><path class="h" d="M178.142,384.732l-.632-4.379-2.238-5.649a14.634,14.634,0,0,0-4.951,1.025l2.784,6.686,1.131,2.718,2.33,5.6C178.847,389.765,179.095,387.021,178.142,384.732Z" transform="translate(-170.32 -292.157)"/><path class="u" d="M221.446,330.974a.391.391,0,0,0-.762.175l1.787,8.911a.391.391,0,0,0,.762-.175Z" transform="translate(-189.062 -275.771)"/><path class="u" d="M219.083,339.311c.2-.458-.493-.818-.7-.356l-1.1,2.522c-.2.459.493.819.7.357Z" transform="translate(-187.787 -278.77)"/><path class="u" d="M252.851,339.971a16.769,16.769,0,0,1-1.1-7.585c.041-.5-.74-.535-.78-.034a17.645,17.645,0,0,0,1.193,7.984C252.343,340.8,253.033,340.435,252.851,339.971Z" transform="translate(-200.314 -276.259)"/><path class="u" d="M250.523,342.348c-.083-.5-.845-.321-.762.175l.486,2.917c.083.5.844.321.762-.175Z" transform="translate(-199.886 -280.003)"/><path class="u" d="M189.168,369.926l-1.875-3.224c-.254-.436-.912-.013-.659.421l1.876,3.224C188.763,370.783,189.42,370.36,189.168,369.926Z" transform="translate(-176.371 -289.11)"/><path class="u" d="M252.548,384.093l-3.077-.654c-.488-.1-.732.639-.24.744l3.077.654C252.795,384.941,253.039,384.2,252.548,384.093Z" transform="translate(-199.59 -295.404)"/></g><g transform="translate(74.949 47.247)"><path class="s" d="M297.672,194.035a208.314,208.314,0,0,0,5.349-23.37c-1.339-.389-3.028-.427-4.366-.816-2.845,6.909-6.015,15.459-8.951,22.827l4.6,2.7A2.3,2.3,0,0,0,297.672,194.035Z" transform="translate(-289.705 -157.125)"/><g transform="translate(8.742)"><path class="s" d="M303.671,167.382a23.342,23.342,0,0,1,1.106-8.193,7.172,7.172,0,0,1,4.786-.453,1.135,1.135,0,0,1,.772,1.187,18.283,18.283,0,0,1-2.549,7.682Z" transform="translate(-303.629 -152.902)"/><g transform="translate(1.066)"><path class="s" d="M311.049,159.182c-.3,1,.914,1.451,1.219.445a12.5,12.5,0,0,1,2.161-4.841c.671-.75.257-1.625-.417-.871A13.83,13.83,0,0,0,311.049,159.182Z" transform="translate(-307.44 -151.087)"/><path class="s" d="M309.44,157.285c-.261,1,.954,1.457,1.219.445a15.127,15.127,0,0,1,2.04-5.393c.594-.842.1-1.849-.493-1.009A18.32,18.32,0,0,0,309.44,157.285Z" transform="translate(-306.845 -150.114)"/><path class="s" d="M307.367,156.7c-.167,1.024,1.156,1.063,1.323.037.35-2.148.389-3.8,1.524-5.656.541-.884.219-2.07-.324-1.183A18.732,18.732,0,0,0,307.367,156.7Z" transform="translate(-306.082 -149.582)"/><path class="s" d="M306.687,150.605a20.465,20.465,0,0,0-1.359,6.707c-.035,1.017,1.3.639,1.338-.368.068-2-.083-3.563.656-5.482C307.7,150.485,307.064,149.625,306.687,150.605Z" transform="translate(-305.328 -149.802)"/></g></g><path class="t" d="M307.342,163.57a2.083,2.083,0,0,1-.6,3.319c-.443.239-.01.89.429.654a2.865,2.865,0,0,0,.685-4.56C307.512,162.617,307,163.208,307.342,163.57Z" transform="translate(-295.977 -154.527)"/><path class="t" d="M306.131,158.377a2.586,2.586,0,0,1,.785,2.836c-.158.476.611.621.767.148a3.338,3.338,0,0,0-1.036-3.572C306.262,157.467,305.745,158.053,306.131,158.377Z" transform="translate(-295.768 -152.602)"/></g><g transform="translate(28.548 70.94)"><path class="d" d="M252.16,245.053c.564-2.109-4.751-26.784-6.308-34.359,1.73-3.729,4.949-9.207,2.366-12.8-4.5-6.257-7.612-10.571-14.827-10.571-2.534,0-5.794-.134-8.053,1.251a8.165,8.165,0,0,0-3.886,7.277c.224,3.028,2.3,5.307,3.386,8.046,1.232,3.109,3.747,11.328,2.043,14.27-3.255,5.623-11.233,18.4-11.084,20.344C225.869,246.005,240.3,248.624,252.16,245.053Z" transform="translate(-215.794 -187.321)"/><path class="v" d="M247.472,194.608c.122,2.414-5.054-.158-5.467-.391a13.838,13.838,0,0,1-3.364-2.721.391.391,0,0,0-.576.528,14.142,14.142,0,0,0,6.609,4.15c1.4.384,3.683.536,3.579-1.531C248.228,194.144,247.447,194.105,247.472,194.608Z" transform="translate(-224.044 -188.828)"/><path class="q" d="M250.86,273.639a37.08,37.08,0,0,1-31.426-6.627c-.4-.308-.819.352-.423.657a37.833,37.833,0,0,0,32.025,6.732A.391.391,0,0,0,250.86,273.639Z" transform="translate(-216.932 -216.953)"/></g><path class="d" d="M270.313,192.138,253.6,189.553l3.87,11.172L271.049,202A34.344,34.344,0,0,0,270.313,192.138Z" transform="translate(-201.318 -117.212)"/><path class="s" d="M292.833,195.622l-12.612-1.951a34.343,34.343,0,0,1,.736,9.864l10.688,1Z" transform="translate(-211.226 -118.745)"/><path class="q" d="M278.4,198.516c-.075-.644-.179-1.284-.292-1.922a9.328,9.328,0,0,0-.422-1.81c-.146-.372-.755-.216-.608.159a8.666,8.666,0,0,1,.4,1.669c.113.632.222,1.266.3,1.9a11,11,0,0,1-.109,3.731c-.089.393.517.555.607.159A11.453,11.453,0,0,0,278.4,198.516Z" transform="translate(-210.049 -119.08)"/><g transform="translate(64.714)"><path class="w" d="M331.615,125.672l9.687,12.5-6.893,1.117-2.787,6.391-10.566-13.623-.76-.979a4.946,4.946,0,0,1-2.361,1.67c-1.563.27-3.334-1.456-4.972-1.456s-3.415,1.726-4.978,1.456a4.975,4.975,0,0,1-2.361-1.67l-.251.326-4.275,5.512V79.46a6.6,6.6,0,0,0,2.712-.075c1.494-.546,2.574-2.775,4.175-3.057,1.563-.276,3.334,1.45,4.978,1.45s3.409-1.726,4.972-1.45c1.607.283,2.681,2.511,4.181,3.057,1.526.559,3.779-.458,5.167.345s1.645,3.271,2.875,4.307,3.7.854,4.74,2.091.427,3.629,1.237,5.029,3.189,2.053,3.748,3.578c.546,1.5-.848,3.547-.565,5.154.27,1.563,2.285,3.007,2.285,4.646s-2.015,3.089-2.285,4.652c-.283,1.607,1.111,3.647.565,5.148-.559,1.526-2.944,2.191-3.748,3.578s-.2,3.8-1.237,5.035c-.873,1.042-2.775,1.08-4.087,1.689Z" transform="translate(-283.71 -75.058)"/><g transform="translate(0.301 37.789)"><g transform="translate(0 0)"><path class="m" d="M308.058,134.516l-5.835,7.531-7.591,9.788-11.07,14.275-2.8-6.39L273.88,158.6l9.935-12.813,8.74-11.27Z" transform="translate(-273.88 -134.516)"/><path class="m" d="M343.9,158.6l-6.89,1.122-2.791,6.39L323.655,152.49l-8.092-10.442-5.842-7.531h15.5l8.987,11.584Z" transform="translate(-287.22 -134.516)"/></g><path class="w" d="M326.761,146.1a3.231,3.231,0,0,0-.848.494c-1.235,1.035-1.482,3.5-2.878,4.307s-3.645-.207-5.167.347a4.869,4.869,0,0,0-1.663,1.242l-8.092-10.442-7.592,9.788a3.391,3.391,0,0,0-.961-.588c-1.529-.554-3.786.461-5.174-.347s-1.643-3.271-2.871-4.307a4.736,4.736,0,0,0-1.81-.807l8.74-11.271h19.329Z" transform="translate(-279.77 -134.516)"/></g><path class="x" d="M330.68,102.562c0,1.641-2.012,3.086-2.286,4.648-.281,1.607,1.111,3.651.566,5.15-.555,1.526-2.941,2.195-3.744,3.582s-.2,3.8-1.237,5.031-3.506,1.05-4.741,2.087-1.476,3.5-2.876,4.309-3.643-.212-5.169.343c-1.5.546-2.573,2.779-4.18,3.06-1.563.274-3.333-1.453-4.974-1.453s-3.411,1.727-4.973,1.453c-1.607-.281-2.681-2.514-4.18-3.06-1.525-.555-3.782.46-5.169-.343s-1.645-3.275-2.876-4.309-3.7-.853-4.741-2.088-.427-3.631-1.237-5.031-3.188-2.055-3.743-3.581c-.546-1.5.847-3.543.565-5.149-.274-1.563-2.285-3.008-2.285-4.649s2.011-3.086,2.285-4.649c.282-1.607-1.111-3.651-.565-5.15.555-1.525,2.941-2.194,3.743-3.581s.2-3.8,1.237-5.031,3.507-1.05,4.742-2.087,1.476-3.5,2.876-4.309,3.643.212,5.168-.343c1.5-.546,2.574-2.778,4.18-3.059,1.563-.274,3.333,1.453,4.973,1.453s3.411-1.726,4.974-1.453c1.607.281,2.681,2.514,4.18,3.059,1.526.556,3.782-.459,5.169.343s1.645,3.275,2.876,4.309,3.7.853,4.741,2.087.427,3.631,1.237,5.031,3.188,2.056,3.743,3.581c.546,1.5-.847,3.543-.566,5.15C328.668,99.476,330.68,100.921,330.68,102.562Z" transform="translate(-273.401 -74.323)"/><g transform="translate(5.311 4.909)"><path d="M305.189,128.8a23.329,23.329,0,1,1,23.33-23.329A23.355,23.355,0,0,1,305.189,128.8Zm0-45.877a22.548,22.548,0,1,0,22.548,22.548A22.573,22.573,0,0,0,305.189,82.925Z" transform="translate(-281.86 -82.143)"/></g><circle cx="23.329" cy="23.329" r="23.329" transform="translate(5.311 4.91)"/><g transform="translate(-109.09 -88.317)"><g transform="translate(117 117.37)"><g transform="translate(3.202 2.017)"><path class="y" d="M264.572,459.756a29.841,29.841,0,0,1-35.056.1l3.517-4.87a23.829,23.829,0,0,0,27.994-.081Zm-34.454.1a29.5,29.5,0,0,0,33.853-.1l-3.063-4.34a24.181,24.181,0,0,1-27.752.08Z" transform="translate(-229.516 -454.906)"/></g><g transform="translate(0)"><g transform="translate(3.592 2.275)"><path class="y" d="M266.955,461.474a29.669,29.669,0,0,1-34.453.1l3.275-4.616a24.005,24.005,0,0,0,27.876-.081Z" transform="translate(-232.502 -456.877)"/></g><g transform="translate(0.415 0.365)"><path class="y" d="M213.571,444.119a24.706,24.706,0,0,1-2.17-1.879q-.291,1.341-.458,2.739a27.454,27.454,0,0,1-2.788.6,29.342,29.342,0,0,0,2.583,2.236Z" transform="translate(-208.155 -442.24)"/></g><path class="y" d="M208.062,445.67a29.579,29.579,0,0,1-3.086-2.687,27.536,27.536,0,0,0,3.011-.6,29.339,29.339,0,0,1,.527-2.936,24.571,24.571,0,0,0,2.559,2.228ZM205.8,443.3q1.008.954,2.083,1.794l2.65-3.4q-.914-.714-1.773-1.527-.249,1.247-.393,2.54-1.25.352-2.567.591Z" transform="translate(-204.976 -439.445)"/><g transform="translate(35.363 0)"><g transform="translate(0.267 0.365)"><path class="y" d="M478.035,444.119a24.775,24.775,0,0,0,2.17-1.879q.291,1.341.458,2.739a27.449,27.449,0,0,0,2.788.6,29.344,29.344,0,0,1-2.583,2.236Z" transform="translate(-478.035 -442.24)"/></g><path class="y" d="M482.086,442.984A29.6,29.6,0,0,1,479,445.671l-3.012-4a24.549,24.549,0,0,0,2.559-2.228,29.34,29.34,0,0,1,.528,2.935A27.469,27.469,0,0,0,482.086,442.984Zm-2.912,2.115q1.073-.84,2.083-1.794-1.316-.237-2.567-.591-.143-1.292-.393-2.54-.858.812-1.773,1.527Z" transform="translate(-475.989 -439.446)"/></g><g transform="translate(3.29 2.017)"><path class="y" d="M265.246,459.756a29.841,29.841,0,0,1-35.056.1l3.517-4.87a23.829,23.829,0,0,0,27.994-.081Zm-34.455.1a29.5,29.5,0,0,0,33.853-.1l-3.063-4.34a24.181,24.181,0,0,1-27.752.08Z" transform="translate(-230.19 -454.906)"/></g></g><g transform="translate(9.016 5.977)"><g transform="translate(0 0)"><path class="z" d="M266.523,488.291l-.42-.182-.417.963-.5-.218,1.087-2.507.923.4a.852.852,0,1,1-.67,1.544Zm.154-.415c.284.123.47.037.567-.185s.033-.421-.251-.544l-.4-.173-.316.729Z" transform="translate(-265.183 -486.346)"/><path class="z" d="M284.424,496.063l-1.124-.353.819-2.607,1.076.338c.545.171.759.55.637.939a.63.63,0,0,1-.632.458.662.662,0,0,1,.306.79C285.375,496.042,284.966,496.233,284.424,496.063Zm.268-1.155-.516-.162-.22.7.527.165c.254.08.442,0,.511-.217A.378.378,0,0,0,284.692,494.908Zm.295-1.069-.478-.15-.205.654.478.15c.246.077.424.01.49-.2S285.233,493.917,284.987,493.839Z" transform="translate(-280.936 -492.221)"/><path class="z" d="M311.065,503.464l-1.073-.184-.265.483-.567-.1,1.43-2.531.629.108.506,2.863-.571-.1Zm-.269-1.651-.583,1.06.779.134Z" transform="translate(-303.422 -499.205)"/><path class="z" d="M335.5,504.959a1.317,1.317,0,0,1-1.526,1.266l-.953-.062.178-2.727.953.062A1.32,1.32,0,0,1,335.5,504.959Zm-1.515.8a.817.817,0,0,0,.957-.836.826.826,0,0,0-.839-.965l-.387-.025-.117,1.8Z" transform="translate(-324.167 -501.206)"/><path class="z" d="M355.468,503.869l.583-.024-.89,2.77-.665.027-1.112-2.689.586-.024.839,2.14Z" transform="translate(-341.875 -501.562)"/><path class="z" d="M375.746,502.964l.544-.063.314,2.714-.544.063Z" transform="translate(-361.319 -500.741)"/><path class="z" d="M385.354,503.566a.887.887,0,0,1-1.144-.618l.578-.106a.375.375,0,0,0,.474.283c.254-.047.38-.209.344-.4-.107-.581-1.429.024-1.6-.951-.089-.485.25-.85.8-.952a.864.864,0,0,1,1.1.589l-.593.109a.361.361,0,0,0-.444-.249c-.213.031-.352.164-.312.384.1.539,1.422-.015,1.6.933A.862.862,0,0,1,385.354,503.566Z" transform="translate(-368.486 -498.91)"/><path class="z" d="M404,498.58a1.4,1.4,0,1,1,.947-1.738A1.373,1.373,0,0,1,404,498.58Zm-.138-.47a.911.911,0,1,0-1.061-.64A.826.826,0,0,0,403.862,498.111Z" transform="translate(-384.321 -494.595)"/><path class="z" d="M423.43,489a.859.859,0,0,1,1.23.4.789.789,0,0,1-.28.964l1.024.779-.587.239-.96-.759-.239.1.4.986-.508.207-1.031-2.531Zm.153.428-.424.173.3.743.424-.173a.382.382,0,0,0,.256-.544A.376.376,0,0,0,423.583,489.424Z" transform="translate(-401.955 -488.561)"/></g></g><g transform="translate(5.704 11.594)"><path class="y" d="M367.919,546.017l-.984-.97,1.368-.191.618-1.235.6,1.242,1.366.206-.994.959.226,1.363-1.22-.649-1.226.636Z" transform="translate(-353.707 -541.243)"/><path class="y" d="M405.313,540.422l-.752-.741,1.045-.146.472-.944.462.949,1.044.157-.76.733.173,1.041-.932-.5-.937.486Z" transform="translate(-383.329 -536.709)"/><path class="y" d="M435.189,529.483l-.52-.512.723-.1.326-.652.319.656.722.109-.525.507.12.72-.644-.343-.648.336Z" transform="translate(-406.341 -528.217)"/><path class="y" d="M340.418,542.907l.752-.741-1.046-.146-.472-.944-.462.949-1.044.158.76.733-.173,1.041.932-.5.937.486Z" transform="translate(-332.015 -539.194)"/><path class="y" d="M305.186,534.677l.52-.512-.723-.1-.327-.653-.319.656-.722.109.525.507-.12.72.644-.343.648.336Z" transform="translate(-303.616 -533.411)"/></g></g><g transform="translate(123.811 100)"><circle class="aa" cx="8.885" cy="8.885" r="8.885" transform="translate(4.755 0)"/><g transform="translate(0 0.574)"><g transform="translate(0 0)"><path class="ab" d="M1127.195,1291.184c-.269-.783-.725-2.728.958-3.665,0,0,1.286,2.912-.775,3.975-1.927,1.29-3.854-1.245-3.854-1.245C1125.158,1289.23,1126.64,1290.57,1127.195,1291.184Z" transform="translate(-1121.609 -1273.137)"/><path class="ac" d="M1149.948,1310.622c-.42-.713-1.257-2.527.2-3.782,0,0,1.844,2.6.038,4.049-1.629,1.65-4.025-.447-4.025-.447C1147.561,1309.116,1149.282,1310.132,1149.948,1310.622Z" transform="translate(-1142.321 -1290.813)"/><path class="y" d="M1115.612,1271.77c-.119-.745-.222-2.562,1.435-3.139,0,0,.7,2.816-1.319,3.446-1.932.855-3.263-1.722-3.263-1.722C1114.09,1269.7,1115.21,1271.132,1115.612,1271.77Z" transform="translate(-1111.49 -1255.858)"/><path class="ad" d="M1106.49,1251.213c.012-.726.216-2.465,1.882-2.736,0,0,.192,2.785-1.824,3.046-1.973.489-2.806-2.175-2.806-2.175C1105.394,1248.995,1106.216,1250.541,1106.49,1251.213Z" transform="translate(-1103.512 -1237.42)"/><path class="ae" d="M1103.512,1228.069c.059-.686.368-2.321,1.964-2.467,0,0,0,2.65-1.929,2.764-1.9.332-2.513-2.246-2.513-2.246C1102.62,1225.9,1103.3,1227.415,1103.512,1228.069Z" transform="translate(-1101.033 -1216.494)"/><path class="af" d="M1110.1,1204.869c.173-.563.725-1.873,2.086-1.708,0,0-.479,2.214-2.11,1.963-1.649-.064-1.7-2.33-1.7-2.33C1109.742,1202.892,1110.034,1204.283,1110.1,1204.869Z" transform="translate(-1107.75 -1195.628)"/><path class="ag" d="M1117.057,1182.555c.218-.481.856-1.581,2.045-1.281,0,0-.676,1.912-2.1,1.5-1.457-.244-1.243-2.26-1.243-2.26C1116.966,1180.759,1117.068,1182.028,1117.057,1182.555Z" transform="translate(-1114.499 -1175.249)"/><path class="ah" d="M1127.151,1165.32a1.514,1.514,0,0,1,1.813-.786s-.782,1.466-1.882.961c-1.15-.376-.729-1.983-.729-1.983A1.513,1.513,0,0,1,1127.151,1165.32Z" transform="translate(-1124.129 -1159.691)"/><path class="ai" d="M1135.354,1149.349a1.424,1.424,0,0,1,1.78-.536s-.891,1.283-1.863.691c-1.032-.477-.463-1.932-.463-1.932A1.424,1.424,0,0,1,1135.354,1149.349Z" transform="translate(-1131.788 -1145.109)"/><path class="aj" d="M1144.845,1135.655a1.339,1.339,0,0,1,1.719-.321s-.963,1.11-1.812.458c-.917-.551-.238-1.854-.238-1.854A1.339,1.339,0,0,1,1144.845,1135.655Z" transform="translate(-1140.589 -1132.636)"/><path class="ak" d="M1155.629,1127.408a1.046,1.046,0,0,1,1.364-.053s-.87.748-1.452.149c-.646-.529.025-1.459.025-1.459A1.045,1.045,0,0,1,1155.629,1127.408Z" transform="translate(-1150.642 -1125.415)"/><path class="al" d="M1164.841,1120.106s1.054.24,1.862-1.44A1.7,1.7,0,0,0,1164.841,1120.106Z" transform="translate(-1159.406 -1118.653)"/><g transform="translate(18.584)"><path class="am" d="M1340.8,1291.184c.269-.783.725-2.728-.958-3.665,0,0-1.286,2.912.774,3.975,1.927,1.29,3.854-1.245,3.854-1.245C1342.838,1289.23,1341.357,1290.57,1340.8,1291.184Z" transform="translate(-1337.726 -1273.137)"/><path class="an" d="M1320.27,1310.622c.42-.713,1.257-2.527-.2-3.782,0,0-1.844,2.6-.038,4.049,1.629,1.65,4.025-.447,4.025-.447C1322.656,1309.116,1320.937,1310.132,1320.27,1310.622Z" transform="translate(-1319.235 -1290.813)"/><path class="ao" d="M1355.885,1271.77c.118-.745.222-2.562-1.435-3.139,0,0-.7,2.816,1.319,3.446,1.932.855,3.263-1.722,3.263-1.722C1357.406,1269.7,1356.286,1271.132,1355.885,1271.77Z" transform="translate(-1351.344 -1255.858)"/><path class="ap" d="M1365.7,1251.213c-.012-.726-.216-2.465-1.882-2.736,0,0-.192,2.785,1.824,3.046,1.973.489,2.806-2.175,2.806-2.175C1366.795,1248.995,1365.973,1250.541,1365.7,1251.213Z" transform="translate(-1360.015 -1237.42)"/><path class="aq" d="M1370.737,1228.069c-.059-.686-.368-2.321-1.964-2.467,0,0,0,2.65,1.929,2.764,1.9.332,2.513-2.246,2.513-2.246C1371.629,1225.9,1370.953,1227.415,1370.737,1228.069Z" transform="translate(-1364.554 -1216.494)"/><path class="ar" d="M1370.983,1204.869c-.173-.563-.725-1.873-2.085-1.708,0,0,.479,2.214,2.11,1.963,1.649-.064,1.7-2.33,1.7-2.33C1371.338,1202.892,1371.046,1204.283,1370.983,1204.869Z" transform="translate(-1364.668 -1195.628)"/><path class="as" d="M1368.933,1182.555c-.218-.481-.856-1.581-2.045-1.281,0,0,.676,1.912,2.1,1.5,1.457-.244,1.243-2.26,1.243-2.26C1369.024,1180.759,1368.922,1182.028,1368.933,1182.555Z" transform="translate(-1362.829 -1175.249)"/><path class="at" d="M1365.97,1165.32a1.513,1.513,0,0,0-1.813-.786s.782,1.466,1.881.961c1.15-.376.729-1.983.729-1.983A1.514,1.514,0,0,0,1365.97,1165.32Z" transform="translate(-1360.331 -1159.691)"/><path class="au" d="M1359.946,1149.349a1.424,1.424,0,0,0-1.78-.536s.891,1.283,1.863.691c1.033-.477.463-1.932.463-1.932A1.424,1.424,0,0,0,1359.946,1149.349Z" transform="translate(-1354.85 -1145.109)"/><path class="av" d="M1352.5,1135.655a1.339,1.339,0,0,0-1.719-.321s.964,1.11,1.812.458c.917-.551.238-1.854.238-1.854A1.339,1.339,0,0,0,1352.5,1135.655Z" transform="translate(-1348.096 -1132.636)"/><path class="aw" d="M1347.733,1127.408a1.046,1.046,0,0,0-1.364-.053s.87.748,1.452.149c.646-.529-.026-1.459-.026-1.459A1.046,1.046,0,0,0,1347.733,1127.408Z" transform="translate(-1344.058 -1125.415)"/><path class="ax" d="M1337.126,1120.106s-1.054.24-1.862-1.44A1.7,1.7,0,0,1,1337.126,1120.106Z" transform="translate(-1333.899 -1118.653)"/></g></g></g><g class="ay" transform="translate(8.51 4.004)"><path class="az" d="M-186.78,41.994a.514.514,0,0,1-.514.514.514.514,0,0,1-.514-.514.514.514,0,0,1,.514-.514A.514.514,0,0,1-186.78,41.994Zm2.087-.514a.514.514,0,0,0-.514.514.514.514,0,0,0,.514.514.514.514,0,0,0,.514-.514A.514.514,0,0,0-184.694,41.48Zm3.705.228v.977a.888.888,0,0,1-.888.888h-.644a4.164,4.164,0,0,1-3.473,2.844,4.164,4.164,0,0,1-3.473-2.844h-.644a.888.888,0,0,1-.888-.888v-.977a.888.888,0,0,1,.466-.781,4.285,4.285,0,0,1,1.2-3.219,4.68,4.68,0,0,1,3.337-1.119,4.68,4.68,0,0,1,3.337,1.119,4.285,4.285,0,0,1,1.2,3.219A.888.888,0,0,1-180.988,41.708Zm-1.88.29c0-.229-.012-.443-.029-.651a3.676,3.676,0,0,0-2.013-.736,1.309,1.309,0,0,1,.283.54c-.553-.436-1.639-.332-2.46-1.307-.047-.054-.088-.106-.123-.154v0h0c-.146-.2-.2-.315-.2-.185a2.137,2.137,0,0,1-1.7,2.118c-.006.123-.01.248-.01.378a4.02,4.02,0,0,0,.209,1.295,2.793,2.793,0,0,0,2.038.811.926.926,0,0,1,.787-.363c.476,0,.862.274.862.612s-.386.612-.862.612a.906.906,0,0,1-.8-.391,4.246,4.246,0,0,1-1.559-.35,3.41,3.41,0,0,0,2.454,1.572A3.744,3.744,0,0,0-182.868,42Zm.879-1.178c-.057-2.42-1.438-3.7-4.006-3.7s-3.949,1.279-4.006,3.7h.342a4.265,4.265,0,0,1,.79-2,3.43,3.43,0,0,1,2.874-1.239,3.43,3.43,0,0,1,2.874,1.239,4.264,4.264,0,0,1,.79,2Z" transform="translate(191 -36.588)"/></g></g></g></g><g transform="translate(34.659 35.677)"><g transform="translate(32.531)"><path class="s" d="M283.909,173.369a168.908,168.908,0,0,0,3.548-21.151c-1.327-.4-2.969-.481-4.3-.876-1.78,4.864-3.685,10.639-5.545,16.1a6.064,6.064,0,0,0,3.118,7.051h0A2.1,2.1,0,0,0,283.909,173.369Z" transform="translate(-277.345 -138.667)"/><g transform="translate(5.538)"><path class="s" d="M286.228,148.726a29.66,29.66,0,0,1,1.029-9.269c1.58-.7,3.233.073,4.678.5a1.135,1.135,0,0,1,.8,1.169,18.29,18.29,0,0,1-2.384,7.734Z" transform="translate(-286.166 -134.139)"/><g transform="translate(0.938)"><path class="s" d="M293.4,140.726c-.28,1,.945,1.431,1.228.419a12.5,12.5,0,0,1,2.057-4.886c.655-.764.223-1.63-.436-.861A13.835,13.835,0,0,0,293.4,140.726Z" transform="translate(-289.782 -132.621)"/><path class="s" d="M291.763,138.867c-.24,1,.984,1.436,1.228.419a15.126,15.126,0,0,1,1.925-5.435c.576-.854.06-1.851-.514-1A18.328,18.328,0,0,0,291.763,138.867Z" transform="translate(-289.175 -131.664)"/><path class="s" d="M289.686,138.329c-.145,1.027,1.178,1.038,1.323.009.3-2.155.308-3.806,1.4-5.687.521-.9.174-2.075-.35-1.176A18.743,18.743,0,0,0,289.686,138.329Z" transform="translate(-288.41 -131.153)"/><path class="s" d="M288.875,132.267A20.458,20.458,0,0,0,287.66,139c-.013,1.018,1.317.611,1.33-.4.026-2-.158-3.56.539-5.494C289.885,132.125,289.232,131.278,288.875,132.267Z" transform="translate(-287.66 -131.403)"/></g></g></g><g transform="translate(0 28.63)"><path class="s" d="M253.135,191.141c6.61-1.9,13.091-4.291,19.519-6.753l1.021-6.306a1.142,1.142,0,0,0-1.31-1.31q-9.709,1.608-19.264,4.012A17.752,17.752,0,0,0,253.135,191.141Z" transform="translate(-235.508 -176.756)"/><path class="d" d="M226.143,190.175a4.158,4.158,0,0,0-.15,4.08c1.333,2.4,4.366,2.214,6.847,1.748,3.48-.652,6.914-1.5,10.314-2.475a17.752,17.752,0,0,1-.035-10.357q-5.1,1.279-10.135,2.775C230.36,186.727,227.6,187.641,226.143,190.175Z" transform="translate(-225.527 -179.144)"/></g><path class="q" d="M250.361,193.176a8.494,8.494,0,0,1-.724-3.292,15.977,15.977,0,0,1,.487-3.567c.084-.394-.523-.556-.608-.159a16.207,16.207,0,0,0-.5,3.853,9.308,9.308,0,0,0,.8,3.475C249.977,193.856,250.522,193.543,250.361,193.176Z" transform="translate(-234.267 -151.541)"/></g></g><g transform="translate(107.097 212.861)"><rect class="m" width="28.078" height="1.626" transform="translate(18.133 3.137)"/><rect class="m" width="28.078" height="1.626" transform="translate(10.28 14.319)"/><rect class="m" width="28.078" height="1.626" transform="translate(0 25.501)"/><path class="m" d="M251.271,402.335a11.994,11.994,0,0,1,11.625,8.327l7.144,21.021a2.952,2.952,0,0,1-2.795,3.9H235.3a2.952,2.952,0,0,1-2.795-3.9l7.144-21.021a11.994,11.994,0,0,1,11.625-8.327m0-1.883a13.912,13.912,0,0,0-13.408,9.6l-7.989,23.51a2.952,2.952,0,0,0,2.795,3.9h37.206a2.952,2.952,0,0,0,2.795-3.9l-7.989-23.51a13.912,13.912,0,0,0-13.408-9.6Z" transform="translate(-219.758 -400.452)"/></g><path class="m" d="M457.483,461.223H45.57c-1.274,0-2.307-.324-2.307-.723h0c0-.4,1.033-.723,2.307-.723H457.483c1.274,0,2.307.324,2.307.723h0C459.789,460.9,458.757,461.223,457.483,461.223Z" transform="translate(-43.263 -207.671)"/><g transform="translate(282.822 162.322)"><g transform="translate(0 29.764)"><path class="d" d="M540.258,406.159c.491-2.05,1.016-4.185,1.48-6.356.575.51,1.166,1.008,1.713,1.542,4.118,4.027,3.583,22.037,3.583,22.037s-.343-.181-.914-.5c-2.025-4.674-4.157-9.457-6.553-14.06Q539.94,407.494,540.258,406.159Z" transform="translate(-510.811 -379.435)"/><path class="d" d="M532.751,386.469c-.475,2.636-.964,5.271-1.585,7.878a69.486,69.486,0,0,0-9.136-12.911q.449-2.205.823-4.427c.371-2.21.872-4.521,1.249-6.851a12.6,12.6,0,0,1,7.064,7.814c.709,2.659.374,5.634,1.667,8.043C532.805,386.167,532.778,386.317,532.751,386.469Z" transform="translate(-504.283 -368.401)"/><path class="d" d="M509.171,367.7c.551.1,1.1.227,1.644.38q-.07.417-.138.839c-.442,2.777-.77,5.566-1.277,8.335-.051.279-.107.556-.16.835a38.215,38.215,0,0,0-12.114-7.91,5.624,5.624,0,0,0-3.365-1.27C498.839,367.856,504.064,366.8,509.171,367.7Z" transform="translate(-493.762 -367.36)"/><path class="e" d="M505.186,389.885a14.462,14.462,0,0,1-1.941-6.061c-.357-2.767-.4-5.622-1.409-8.224a8.87,8.87,0,0,0-2.714-3.75c8.1,3.255,14.241,9.175,19.23,16.287A49.21,49.21,0,0,0,505.186,389.885Z" transform="translate(-495.757 -369.031)"/><path class="e" d="M540.9,425.253c1.094,2.372,2.146,4.752,3.167,7.106a84.816,84.816,0,0,1-10.012-6.345A47.271,47.271,0,0,1,540.9,425.253Z" transform="translate(-508.76 -388.908)"/><path class="e" d="M523.466,415.158a6.1,6.1,0,0,1-.762-1.024c-1.407-2.492-2.251-5.416-4.4-7.309-1.76-1.551-4.165-2.192-6.088-3.508a48.025,48.025,0,0,1,12.82-1.23,113.042,113.042,0,0,1,6.5,11.913A53.033,53.033,0,0,0,523.466,415.158Z" transform="translate(-500.631 -380.273)"/><path class="f" d="M543.335,436.526a92.022,92.022,0,0,0-20.122-46.671c-.69-.84.721-1.764,1.4-.934a93.468,93.468,0,0,1,20.423,47.605Z" transform="translate(-504.655 -375.264)"/></g><g transform="translate(46.188 45.102)"><path class="e" d="M590.54,393.642a13.635,13.635,0,0,1,3.84-1.452c4.035-.857,8.219-.163,12.285.533a4.473,4.473,0,0,0-2.64,1.1,32.482,32.482,0,0,0-12.531,10.227A76.26,76.26,0,0,1,590.54,393.642Z" transform="translate(-575.971 -391.792)"/><path class="e" d="M574.389,412.089a17.174,17.174,0,0,0,3.05-3.359c1.07-1.983.681-4.416,1.185-6.612a8.84,8.84,0,0,1,2.411-4.231,79.642,79.642,0,0,0,1.389,11.5c-3.971,6.05-6.9,13.12-9.557,19.9-.446.265-.713.419-.713.419S571.227,415.406,574.389,412.089Z" transform="translate(-569.081 -394.061)"/><path class="d" d="M598.6,404.668c-.207,2.21-.742,4.536-2.328,6.088-1.23,1.2-2.933,1.795-4.375,2.728-2.669.033-5.344-.049-8.021-.151,4.2-7.861,9.619-14.736,17.669-18.3a7.061,7.061,0,0,0-2.053,3.057C598.765,400.187,598.807,402.458,598.6,404.668Z" transform="translate(-573.491 -392.998)"/><path class="d" d="M585.525,428.565c-.721,1.293-1.217,2.753-1.9,4.076-1.306,2.515-8.04,6.673-10.258,7.994,1.6-4.081,3.3-8.266,5.259-12.272C580.925,428.454,583.226,428.54,585.525,428.565Z" transform="translate(-569.578 -405.404)"/><path class="f" d="M568.7,442.9h-1.365A74.358,74.358,0,0,1,585,405.97c.568-.639,1.661.139,1.086.786A73.207,73.207,0,0,0,568.7,442.9Z" transform="translate(-567.334 -396.98)"/></g><g transform="translate(21.923)"><path class="d" d="M554.687,349.5a63.132,63.132,0,0,0-4.8-11.615,63.3,63.3,0,0,0,3.7-11.181c.289.147.578.3.862.456a19.668,19.668,0,0,1,7.554,7.426A72.817,72.817,0,0,1,554.687,349.5Z" transform="translate(-536.576 -322.464)"/><path class="d" d="M565.962,359.016a12.962,12.962,0,0,0,1.568,3.779,66.959,66.959,0,0,1-6.158,8.367,111.2,111.2,0,0,0-2.3-11.381,80.545,80.545,0,0,0,7.817-14.564,12.444,12.444,0,0,1,.315,3.775C566.948,352.371,565.307,355.692,565.962,359.016Z" transform="translate(-539.992 -329.355)"/><path class="d" d="M570.636,377.541c2.684,6.5-4.755,25.985-4.755,25.985s-.316-.34-.837-.919c-.387-5.243-.834-10.607-1.525-15.925A71.365,71.365,0,0,0,570.636,377.541Z" transform="translate(-541.648 -341.386)"/><path class="d" d="M543.242,323.088a59.35,59.35,0,0,1-2.926,9.419,44.259,44.259,0,0,0-8.333-9.8,6.723,6.723,0,0,0-3.3-2.758C533.611,320.6,538.648,321.284,543.242,323.088Z" transform="translate(-528.682 -319.95)"/><path class="e" d="M533.494,340.68q.1-.6.226-1.189c.686-3.265,1.756-6.508,1.644-9.843a10.615,10.615,0,0,0-1.59-5.3c6.294,5.489,10.5,12.41,13.38,20.073A76.512,76.512,0,0,0,533.494,340.68Z" transform="translate(-530.473 -321.585)"/><path class="e" d="M539.714,366.958c-1.686-2.266-4.192-3.946-5.543-6.444a11.282,11.282,0,0,1-1.158-5.962,69.292,69.292,0,0,1,14.65,4.241,1.437,1.437,0,0,0,.436.106,92.192,92.192,0,0,1,2.711,10.758C547.132,368.664,543.437,367.726,539.714,366.958Z" transform="translate(-530.287 -332.829)"/><path class="e" d="M556.23,381.742c1.2,7.106,1.828,14.4,2.351,21.479-2.6-2.883-10.42-11.848-11.177-16.04-.478-2.648-.463-5.459-1.249-7.99C549.532,379.947,552.887,380.828,556.23,381.742Z" transform="translate(-535.186 -342)"/><path class="f" d="M555.987,420.9a110.025,110.025,0,0,0-6.3-73.015c-.538-1.183,1.378-1.816,1.91-.646a111.774,111.774,0,0,1,6.473,73.661Z" transform="translate(-536.463 -329.877)"/></g></g></g></g></svg>