<svg xmlns="http://www.w3.org/2000/svg" width="172" height="28" viewBox="0 0 172 28"><defs><style>.a{fill:#0065ff;}.b{fill:#253858;}.c{fill:#fff;}</style></defs><g transform="translate(-0.3 -0.1)"><g transform="translate(0.3 0.1)"><g transform="translate(0 0)"><path class="a" d="M.3,31.953c.437,0,.9.026,1.336.026H4.77c.18,0,.231.051.231.231v2.209a.09.09,0,0,1,.051.026c.051-.077.1-.128.154-.206a5.434,5.434,0,0,1,2.826-2.312,4.4,4.4,0,0,1,5.78,2.852,10.147,10.147,0,0,1,.539,4.29,9.434,9.434,0,0,1-1.13,4.059A4.7,4.7,0,0,1,8.444,45.62a5.045,5.045,0,0,1-3.083-1.464,2.721,2.721,0,0,1-.257-.308c-.026.026-.051.026-.077.051V50.27H2.638c0-.077-.026-.128-.026-.18V35.036a8.08,8.08,0,0,0-.077-1.13,1.112,1.112,0,0,0-1.053-1.053c-.308-.051-.617-.077-.925-.1-.154,0-.206-.077-.206-.231A2.831,2.831,0,0,0,.3,32.056ZM5,39.069v3.6a.4.4,0,0,0,.18.334,6.491,6.491,0,0,0,2.98,1.31,2.7,2.7,0,0,0,2.338-.668,3.8,3.8,0,0,0,1-1.8,11.57,11.57,0,0,0,.18-5.138,6.1,6.1,0,0,0-.976-2.492A2.422,2.422,0,0,0,7.878,33.16a5.186,5.186,0,0,0-2.8,2.029A.61.61,0,0,0,5,35.5Z" transform="translate(-0.3 -24.89)"/><path class="b" d="M272.3,9.745V9H277v8.58c.334-.385.617-.771.951-1.13a4.994,4.994,0,0,1,5.292-1.413,4.375,4.375,0,0,1,2.7,2.441,8.056,8.056,0,0,1,.8,3.083,10.514,10.514,0,0,1-.642,4.7,5.689,5.689,0,0,1-2.415,2.954,5.373,5.373,0,0,1-6.114-.642c-.154-.154-.308-.308-.462-.437a.277.277,0,0,0-.18-.077c-.026,0-.077.1-.077.154-.077.437-.154.873-.257,1.31-.026.077-.1.18-.154.18h-1.875v-16.6a11.043,11.043,0,0,0-.128-1.567.6.6,0,0,0-.514-.565c-.437-.077-.9-.154-1.336-.231ZM277,22.256v3.622a.468.468,0,0,0,.1.283,6.455,6.455,0,0,0,2.929,1.31,3.011,3.011,0,0,0,3.648-2.107,8.721,8.721,0,0,0,.437-2.7,12.743,12.743,0,0,0-.334-3.7,3.879,3.879,0,0,0-1.053-1.9,3.03,3.03,0,0,0-2.7-.617,4.978,4.978,0,0,0-2.852,1.8.741.741,0,0,0-.18.514Z" transform="translate(-206.397 -6.714)"/><path class="b" d="M343.363,44.406c0,.1.026.18.026.257.051.642.051.668-.591.8a4.405,4.405,0,0,1-1.156.1,2.077,2.077,0,0,1-1.9-1.567,4.426,4.426,0,0,0-.18-.539c-.257.231-.514.462-.771.668a6.4,6.4,0,0,1-2.826,1.413,4.034,4.034,0,0,1-4.29-1.9,3.94,3.94,0,0,1,1.516-5.266,7.194,7.194,0,0,1,2.9-.873c.848-.077,1.721-.1,2.569-.154H339a12.136,12.136,0,0,0-.231-3.34,2.057,2.057,0,0,0-2.158-1.516,4.953,4.953,0,0,0-1.233.206,1.981,1.981,0,0,0-1.439,1.9,3.275,3.275,0,0,0-.026.514h-1.67V32.846a.357.357,0,0,1,.128-.257,11.255,11.255,0,0,1,5.343-1.053,4.53,4.53,0,0,1,2.081.591,3.216,3.216,0,0,1,1.541,2.441,10.351,10.351,0,0,1,.077,1.259v5.78a9.352,9.352,0,0,0,.18,1.9,1.027,1.027,0,0,0,1,.951A2.6,2.6,0,0,0,343.363,44.406Zm-4.342-6.32a7.735,7.735,0,0,0-3.34.514,2.974,2.974,0,0,0-1.85,3.057,2.623,2.623,0,0,0,3.006,2.466,5.88,5.88,0,0,0,2.029-.848.335.335,0,0,0,.18-.308V38.549A2.641,2.641,0,0,1,339.021,38.086Z" transform="translate(-250.973 -24.152)"/><path class="b" d="M493.122,35.085h-1.644c0-.077-.026-.128-.026-.206V32.825a.357.357,0,0,1,.128-.257,10.955,10.955,0,0,1,5.344-1.053,7.072,7.072,0,0,1,1.464.308,3.147,3.147,0,0,1,2.158,2.749,6.546,6.546,0,0,1,.051,1v6.114a7.84,7.84,0,0,0,.18,1.721,1.1,1.1,0,0,0,1.516.951,1.638,1.638,0,0,1,.231-.051c.026.283.051.539.077.8,0,.051-.051.128-.1.128a3.916,3.916,0,0,1-2.03.206,2.094,2.094,0,0,1-1.49-1.362c-.077-.231-.154-.462-.231-.719-.257.231-.488.437-.745.642a5.788,5.788,0,0,1-2.826,1.413,3.88,3.88,0,0,1-2.672-7.219,7.189,7.189,0,0,1,2.826-.822c.873-.077,1.747-.1,2.62-.154h.206l.051-.051c-.026-.873,0-1.721-.077-2.595a2.206,2.206,0,0,0-1.207-1.978,2.923,2.923,0,0,0-2.184-.077c-1.259.437-1.516,1.053-1.618,2.312Zm5.061,2.98a7.687,7.687,0,0,0-3.057.437,3.024,3.024,0,0,0-2.107,2.98,2.634,2.634,0,0,0,3.006,2.646A6.1,6.1,0,0,0,498,43.306a.349.349,0,0,0,.18-.334v-4.6A1.233,1.233,0,0,0,498.183,38.065Z" transform="translate(-371.582 -24.126)"/><path class="b" d="M444.416,37.389a12.067,12.067,0,0,0-.231-3.34,2.091,2.091,0,0,0-2.158-1.516,3.392,3.392,0,0,0-1.593.385,1.914,1.914,0,0,0-1.053,1.541c-.026.231-.051.462-.077.719h-1.593c0-.051-.026-.1-.026-.154V32.919a.3.3,0,0,1,.154-.231,11.857,11.857,0,0,1,4.059-1.053,6.993,6.993,0,0,1,2.312.18,3.282,3.282,0,0,1,2.569,3.057c.026.36.051.745.051,1.1,0,2.132,0,4.29.026,6.422a4.14,4.14,0,0,0,.154,1.13,1.128,1.128,0,0,0,1.464.976c.077-.026.154-.026.283-.051.026.308.051.591.077.9a3.548,3.548,0,0,1-2.466.128,2.506,2.506,0,0,1-1.387-1.952c-.385.308-.745.642-1.13.925a5.359,5.359,0,0,1-2.929,1.182,3.847,3.847,0,0,1-4.213-3.057,3.935,3.935,0,0,1,2.338-4.393,8.14,8.14,0,0,1,2.877-.694c.745-.051,1.516-.077,2.261-.1A.7.7,0,0,0,444.416,37.389Zm0,.771a7.647,7.647,0,0,0-3.237.488,3.016,3.016,0,0,0-1.952,2.954,2.609,2.609,0,0,0,3.006,2.595,5.037,5.037,0,0,0,1.952-.822.379.379,0,0,0,.206-.385V38.416A.792.792,0,0,0,444.416,38.159Z" transform="translate(-330.836 -24.224)"/><path class="a" d="M65.818,45.685a6.125,6.125,0,0,1-6.243-5.112,7.953,7.953,0,0,1,1-6.14,5.647,5.647,0,0,1,4.47-2.672,6.392,6.392,0,0,1,4.059.8,6.213,6.213,0,0,1,2.877,4.008,8.063,8.063,0,0,1-.771,6.166,5.686,5.686,0,0,1-4.419,2.9c-.1,0-.18.026-.283.026A6.261,6.261,0,0,1,65.818,45.685Zm3.931-7.245c-.026-.334-.077-.951-.18-1.541a6.771,6.771,0,0,0-1.31-3.237,2.993,2.993,0,0,0-4.29-.642,4.7,4.7,0,0,0-1.387,1.927,10.4,10.4,0,0,0-.488,5.934,6.336,6.336,0,0,0,1.387,3.006,2.992,2.992,0,0,0,3.9.642,4.05,4.05,0,0,0,1.413-1.67A9.262,9.262,0,0,0,69.749,38.441Z" transform="translate(-44.188 -24.299)"/><path class="b" d="M389.727,45.237h8.786v.9H386.8a1.775,1.775,0,0,1,.231-1.13c2.749-3.776,5.446-7.578,8.169-11.381a1.287,1.287,0,0,1,.128-.18h-5.369c-.334,0-.668.051-1,.077a.467.467,0,0,0-.437.411,7.256,7.256,0,0,0-.051.745V35.6h-1.31V32.7h11.021a1.494,1.494,0,0,1-.257,1.13q-4.046,5.588-8.041,11.175A.462.462,0,0,1,389.727,45.237Z" transform="translate(-293.062 -25.03)"/><path class="b" d="M541.167,32.66v-.694h4.727v2.441c1.233-1.9,2.826-3.057,5.215-2.646v3.7h-1.336c-.051-.36-.077-.745-.154-1.1-.1-.591-.206-.668-.8-.668a3.325,3.325,0,0,0-2.569,1.413,1.7,1.7,0,0,0-.385,1.1c.026,2,0,3.982.026,5.986a14.53,14.53,0,0,0,.1,1.49.8.8,0,0,0,.745.822c.437.077.873.1,1.31.154a2.491,2.491,0,0,0,.437.026v.745h-7.322a5.356,5.356,0,0,1,0-.642c0-.051.128-.128.206-.128l1.233-.154a.832.832,0,0,0,.771-.8c.026-.462.077-.925.077-1.387V35.126c0-.514-.077-1.028-.128-1.541a.63.63,0,0,0-.54-.591A15,15,0,0,0,541.167,32.66Z" transform="translate(-409.904 -24.262)"/><path class="a" d="M108.9,9.768V9.1h4.367c.231,0,.283.077.283.308,0,3.006.026,5.986.026,8.991,0,3.288.026,6.577.026,9.865,0,.36,0,.36-.36.36h-2.209c0-.1-.026-.18-.026-.257,0-1.8.026-3.622.026-5.421,0-1.284.026-2.595.051-3.879.026-2.415.051-4.855.077-7.27a5.068,5.068,0,0,0-.1-.9,1.093,1.093,0,0,0-.873-.9A7.077,7.077,0,0,0,108.9,9.768Z" transform="translate(-81.001 -6.788)"/><path class="a" d="M224.9,32.826c-.283.514-.539,1-.771,1.49-1.336,2.929-2.672,5.857-3.982,8.76-.976,2.132-1.927,4.265-2.9,6.371a2.31,2.31,0,0,1-1.773,1.541,7.588,7.588,0,0,1-1.079.051c-.694,0-1.413-.026-2.107-.051-.154,0-.308-.026-.437-.026-.1-.385-.077-.437.283-.411l1.387.077a4.292,4.292,0,0,0,2.184-.385,1.856,1.856,0,0,0,.951-.925c.283-.617.514-1.284.745-1.927.128-.308.231-.642.385-.951a.441.441,0,0,0,0-.437c-1.387-3.34-2.8-6.679-4.187-10.019-.18-.437-.334-.873-.539-1.31a1.833,1.833,0,0,0-1.541-1.156c-.051,0-.1-.1-.128-.154v-.051c0-.617-.077-.488.488-.514H215.6c0,.308.026.591,0,.873a3.193,3.193,0,0,0,.308,1.541c1.1,2.595,2.184,5.215,3.263,7.81a2.665,2.665,0,0,1,.1.257.7.7,0,0,1,.1-.128c1.1-2.518,2.235-5.01,3.314-7.553.36-.822.591-1.7.873-2.569a.265.265,0,0,1,.308-.231C224.235,32.826,224.569,32.826,224.9,32.826Z" transform="translate(-160.225 -25.737)"/><path class="a" d="M176.064,43.89v.822a.289.289,0,0,1-.128.206,8.635,8.635,0,0,1-5.677.411,5.943,5.943,0,0,1-4.008-3.879,7.766,7.766,0,0,1,.642-7.116,5.708,5.708,0,0,1,4.444-2.672,13.616,13.616,0,0,1,4.547.514.2.2,0,0,1,.18.231v2.774c0,.154-.051.231-.231.206h-1c-.206,0-.257-.051-.257-.257a7.8,7.8,0,0,0-.154-1.079,2.144,2.144,0,0,0-2.518-1.67,3.421,3.421,0,0,0-2.98,2.132,7.11,7.11,0,0,0-.694,2.723,9.985,9.985,0,0,0,.462,4.085,4.224,4.224,0,0,0,3.417,3.083,6.568,6.568,0,0,0,3.648-.411A.867.867,0,0,0,176.064,43.89Z" transform="translate(-125.553 -24.225)"/><path class="a" d="M139.9,33.668V33h4.65c.051,4.444.077,8.889.128,13.333h-2.569v-.617c.026-1.9.026-3.8.051-5.7.026-1.439.026-2.852.026-4.29a5.311,5.311,0,0,0-.077-.9,1.157,1.157,0,0,0-1.079-1.053l-.539-.077A4.548,4.548,0,0,1,139.9,33.668Z" transform="translate(-105.965 -25.255)"/><path class="a" d="M151.238,13.9v2.338H148.9V13.9Z" transform="translate(-112.749 -10.355)"/><path class="a" d="M621.938,14.1c0,7.723-6.551,14-14.669,14-8.092,0-14.669-6.252-14.669-14,0-7.723,6.551-14,14.669-14C615.361.1,621.938,6.352,621.938,14.1Z" transform="translate(-449.938 -0.1)"/><g transform="translate(147.441 8.117)"><path class="c" d="M4.824,27.937l1-.257a2.792,2.792,0,0,1-.154,1.85,2.429,2.429,0,0,1-1.336,1.182,2.594,2.594,0,0,1-2.184,0A3.376,3.376,0,0,1,.56,28.837,4.4,4.4,0,0,1,.2,27.115,2.468,2.468,0,0,1,.688,25.7,2.826,2.826,0,0,1,1.9,24.8a2.482,2.482,0,0,1,1.7-.154,2.315,2.315,0,0,1,1.284,1L4,26.191a1.8,1.8,0,0,0-.822-.668,1.282,1.282,0,0,0-.925.051,1.6,1.6,0,0,0-.951,1A2.694,2.694,0,0,0,1.536,28.4a2.671,2.671,0,0,0,1.1,1.464A1.666,1.666,0,0,0,4,29.916a1.423,1.423,0,0,0,.8-.745A1.815,1.815,0,0,0,4.824,27.937Z" transform="translate(-0.2 -18.366)"/><path class="c" d="M21.393,20.126a3.058,3.058,0,0,1-.077-2.672,2.828,2.828,0,0,1,1.516-1.362,2.757,2.757,0,0,1,2.209-.026,3.227,3.227,0,0,1,1.618,1.8,3.85,3.85,0,0,1,.385,1.85,2.468,2.468,0,0,1-.565,1.362,2.9,2.9,0,0,1-1.233.9A2.715,2.715,0,0,1,23.012,22,3.329,3.329,0,0,1,21.393,20.126Zm1-.411a2.684,2.684,0,0,0,1.13,1.439,1.605,1.605,0,0,0,1.413.051,1.64,1.64,0,0,0,.951-1.028,2.72,2.72,0,0,0-.206-1.85,2.53,2.53,0,0,0-1.13-1.387,1.605,1.605,0,0,0-1.413-.051,1.68,1.68,0,0,0-.976,1.028A2.769,2.769,0,0,0,22.4,19.715Z" transform="translate(-15.69 -11.89)"/><path class="c" d="M45.138,8.856,42.8,3.2l.848-.36.334.8a1.9,1.9,0,0,1,.437-.951,2.179,2.179,0,0,1,.9-.668,1.814,1.814,0,0,1,1.13-.154,1.578,1.578,0,0,1,.873.488A2.23,2.23,0,0,1,48.657.636a1.9,1.9,0,0,1,1.49-.077A2.132,2.132,0,0,1,51.2,1.817L52.793,5.7l-.951.385L50.378,2.511a3.022,3.022,0,0,0-.437-.8.764.764,0,0,0-.514-.257,1.425,1.425,0,0,0-.642.077,1.473,1.473,0,0,0-.822.8,1.944,1.944,0,0,0,.128,1.439l1.362,3.288-.951.385L46.987,3.77a1.862,1.862,0,0,0-.617-.873.923.923,0,0,0-.9,0,1.618,1.618,0,0,0-.668.514,1.152,1.152,0,0,0-.231.822,3.707,3.707,0,0,0,.334,1.233l1.207,2.929Z" transform="translate(-31.856 -0.441)"/></g></g></g></g></svg>