<svg xmlns="http://www.w3.org/2000/svg" xmlns:xlink="http://www.w3.org/1999/xlink" width="54" height="54" viewBox="0 0 54 54"><defs><style>.a{fill:#fff;}.b{clip-path:url(#a);}.c{fill:#fd7166;}.d{fill:#e0e8ff;}.e{fill:#d15d54;}.f{fill:#fa9490;}.g{fill:#060534;}.h{fill:#e68884;}.i{fill:#3662c1;}.j{fill:#6a86ce;}</style><clipPath id="a"><rect class="a" width="54" height="54" rx="16" transform="translate(174 606)"/></clipPath></defs><g transform="translate(-174 -606)"><g class="b"><g transform="translate(-407.142 -468.318)"><g transform="translate(615.185 1078.531)"><g transform="translate(0 0)"><path class="c" d="M860.612,1079.387a6.8,6.8,0,0,1,4.356-.788c3.516.445,5.136,2.594,4.8,5.283a6.936,6.936,0,0,1-2.871,4.418c-2.2,1.8-3.722,2.629-4.6,2.518a1.468,1.468,0,0,1-1.287-1.66c.092-.724.856-1.363,2.153-2.276a1.138,1.138,0,0,1,.23-.155c1.472-1.048,1.971-1.668,2.076-2.5a1.548,1.548,0,0,0-1.5-1.819,5.584,5.584,0,0,0-1.694.1,5.348,5.348,0,0,1-1.435.134,1.626,1.626,0,0,1-1.342-1.851A1.97,1.97,0,0,1,860.612,1079.387Zm1.359,17.694a2.589,2.589,0,0,1-2.3-2.971,2.549,2.549,0,0,1,2.945-2.1,2.5,2.5,0,0,1,2.123,2.738A2.53,2.53,0,0,1,861.971,1097.081Z" transform="translate(-859.473 -1078.531)"/></g></g><g transform="translate(622.885 1088.484)"><g transform="translate(0 0)"><path class="c" d="M930.69,1162.073a5,5,0,0,1,3.044,1.147c2.049,1.608,2.259,3.574,1.03,5.142a5.1,5.1,0,0,1-3.478,1.7c-2.064.3-3.339.253-3.851-.149a1.079,1.079,0,0,1-.185-1.533c.331-.422,1.054-.536,2.217-.622a.843.843,0,0,1,.2-.011c1.324-.105,1.873-.308,2.251-.79a1.138,1.138,0,0,0-.261-1.715,4.1,4.1,0,0,0-1.106-.576,3.936,3.936,0,0,1-.956-.458,1.2,1.2,0,0,1-.147-1.674A1.448,1.448,0,0,1,930.69,1162.073Zm-5.823,11.67a1.9,1.9,0,0,1-.331-2.743,1.873,1.873,0,0,1,2.648-.21,1.836,1.836,0,0,1,.3,2.528A1.859,1.859,0,0,1,924.867,1173.743Z" transform="translate(-924.099 -1162.072)"/></g></g><g transform="translate(582.142 1083.31)"><path class="d" d="M582.471,1120.957a5,5,0,0,1,2.59-1.969c2.451-.881,4.229-.014,4.9,1.861a5.1,5.1,0,0,1-.407,3.851c-.84,1.91-1.561,2.963-2.174,3.183a1.079,1.079,0,0,1-1.4-.658c-.181-.5.106-1.178.651-2.208a.83.83,0,0,1,.1-.178c.615-1.178.735-1.75.527-2.327a1.138,1.138,0,0,0-1.591-.69,4.1,4.1,0,0,0-1.076.631,3.944,3.944,0,0,1-.9.566,1.2,1.2,0,0,1-1.5-.765A1.448,1.448,0,0,1,582.471,1120.957Zm6.791,11.135a1.9,1.9,0,0,1-2.5-1.178,1.873,1.873,0,0,1,1.229-2.355,1.836,1.836,0,0,1,2.3,1.085A1.859,1.859,0,0,1,589.262,1132.091Z" transform="translate(-582.142 -1118.642)"/></g></g><g transform="translate(178.532 619.234)"><path class="e" d="M632.22,1291.844l-4.212-1.851c-.35.454-5.214,1.759-7.311,11.711-.437,2.076,3.074,7.726,5.241,9.449s3.346-2.039,3.346-2.039l-3.043-7.053Z" transform="translate(-619.602 -1273.821)"/><path d="M720.363,1780.534c2.1,2.961,7.273,1.144,7.1,5.148-7.86-.052-11.126,0-11.126,0a29.936,29.936,0,0,1,.347-3.957Z" transform="translate(-703.882 -1705.917)"/><path d="M618.015,1780.534c2.1,2.961,7.273,1.144,7.1,5.148-7.86-.052-11.126,0-11.126,0a29.916,29.916,0,0,1,.347-3.957Z" transform="translate(-613.728 -1705.917)"/><g transform="translate(9.072)"><g transform="translate(2.919 2.822)"><path class="f" d="M713.769,1241.23l4.34-.351.419-4.272-3.825-2.038Z" transform="translate(-713.609 -1227.823)"/><path class="f" d="M717.1,1177.944c2.3,0,4.065,2.114,4.477,4.381.745,4.1-1.679,6.746-2.318,6.967-1.207.418-3.824-.893-3.824-.893s-3.009-2.74-3.009-4.448C712.428,1181.648,714.8,1177.944,717.1,1177.944Z" transform="translate(-712.428 -1177.944)"/></g><path class="g" d="M688.434,1161.01c-1.081-1.66-.3-2.746,1.171-3.307s1.638-1.285,2.244-2.254c.575-.919,3.237-1.9,4.459-.471,1.821,2.129,2.614.037,4.2,1.628a4.558,4.558,0,0,1,.664,4.952c-.6.78-1.8-.107-2.16,1.236-.206.777-1.508-.647-1.892.171-.29.619-.8.877-.722,1.268.156.761.74,1.879-.8,2.951-.88.611-1.382-.278-2.365.307-1.869,1.112-2.527-.225-3.548-1.325s-2.33-1.038-1.269-2.884A1.94,1.94,0,0,0,688.434,1161.01Z" transform="translate(-687.93 -1154.257)"/><g transform="translate(7.534 7.667)"><path class="f" d="M753.18,1219.231a1.084,1.084,0,1,1-1.612-.463A1.2,1.2,0,0,1,753.18,1219.231Z" transform="translate(-751.163 -1218.609)"/><g transform="translate(0.781 0.599)"><path class="h" d="M758.2,1225a.157.157,0,0,0,.067-.027.709.709,0,0,0,.313-.812.755.755,0,0,0-.7-.519.157.157,0,0,0,0,.313.447.447,0,0,1,.4.3.4.4,0,0,1-.2.46.157.157,0,0,0,.116.282Z" transform="translate(-757.716 -1223.637)"/></g></g></g><path class="i" d="M619.151,1499.546s-2.032,10.16-3.325,17.365c-1.344,2.251-4.062,13.586-4.04,17.126l5.871-.421s3.57-10.5,4.45-13.843c1.1-4.169,3.6-10.008,4.7-18.395l.265-2.345Z" transform="translate(-611.786 -1457.956)"/><path class="j" d="M720.372,1504.915l-8.392.453,1.035,17.184c-.806,2.446-1.78,13.431-.972,16.84l6.07-.434S722.339,1514.91,720.372,1504.915Z" transform="translate(-699.831 -1463.136)"/><g transform="translate(5.717 15.881)"><path class="c" d="M673.613,1288.223s-10.171-1.37-11.42-.194c-4.651,4.378-1.06,7.5-1.741,25.95,1.335-.464,11.21,1.026,14.516-.151,1.134-12.475-.038-17.292-.038-17.292Z" transform="translate(-659.766 -1287.552)"/></g><g transform="translate(15.912 3.316)"><g transform="translate(4.848)"><path class="f" d="M789.959,1185.877a5.834,5.834,0,0,0,1.3,2.015l-.506.861-.686.355c-2.034-.37-3.482-2.666-3.6-2.9-.309-.616-.493-.886-.427-.969s.571-.466,1.05.416c.6,1.106,1.223-.034-.6-2.039-.456-.5-.609-1.727-.019-1.5A6.848,6.848,0,0,1,789.959,1185.877Z" transform="translate(-786.028 -1182.088)"/></g><path class="c" d="M812.485,1229.749c1.429,1.32,7.708,9.562,6.49,12.815-1.727.588-4.076-1.714-5.261-3.037-2.22-2.479-3.611-8.608-3.611-8.608Z" transform="translate(-802.385 -1224.07)"/><path class="c" d="M745.569,1292.835a4.27,4.27,0,0,0,1.732,5.022c2.9,1.768,13.213,1.211,14.625-.094C761.133,1293.015,746.993,1291.6,745.569,1292.835Z" transform="translate(-745.336 -1279.268)"/></g><path class="c" d="M715.4,1280.63a9.124,9.124,0,0,0-5.918-1.554,3.846,3.846,0,0,0-.3,1.554Z" transform="translate(-697.572 -1264.169)"/></g></g></g></svg>