<svg xmlns="http://www.w3.org/2000/svg" xmlns:xlink="http://www.w3.org/1999/xlink" width="140" height="118.566" viewBox="0 0 140 118.566"><defs><style>.a{fill:url(#a);}.b{fill:#253858;}.c{fill:url(#m);}.d{fill:url(#n);}.e{fill:url(#o);}.f{fill:url(#q);}.g{fill:url(#r);}.h{fill:url(#s);}.i{fill:url(#t);}.j{fill:url(#u);}.k{fill:url(#v);}.l{fill:url(#w);}.m{fill:url(#x);}.n{fill:url(#y);}.o{fill:url(#z);}.p{fill:url(#aa);}.q{fill:url(#ab);}.r{fill:url(#ac);}.s{fill:url(#ad);}.t{fill:url(#ae);}.u{fill:url(#af);}.v{fill:url(#ag);}.w{fill:url(#ah);}.x{fill:url(#ai);}.y{fill:url(#aj);}.z{fill:url(#ak);}.aa{opacity:0.95;}.ab{fill:#fff;opacity:0.9;}</style><linearGradient id="a" x1="1.354" y1="1.447" x2="-1.16" y2="-1.964" gradientUnits="objectBoundingBox"><stop offset="0" stop-color="#a47a1e"/><stop offset="0.228" stop-color="#d3a84c"/><stop offset="0.414" stop-color="#ffec94"/><stop offset="0.586" stop-color="#e6be69"/><stop offset="0.772" stop-color="#ffd87c"/><stop offset="1" stop-color="#956d13"/><stop offset="1" stop-color="#b58f3e"/></linearGradient><linearGradient id="m" x1="1.354" y1="1.447" x2="-1.16" y2="-1.964" gradientUnits="objectBoundingBox"><stop offset="0" stop-color="#725109"/><stop offset="0.27" stop-color="#d3a84c"/><stop offset="0.393" stop-color="#e6be69"/><stop offset="0.493" stop-color="#ffec94"/><stop offset="0.772" stop-color="#ffd87c"/><stop offset="1" stop-color="#956d13"/><stop offset="1" stop-color="#b58f3e"/></linearGradient><linearGradient id="n" x1="0.979" y1="0.946" x2="-1.372" y2="-1.898" xlink:href="#a"/><linearGradient id="o" x1="0.581" y1="0.565" x2="-1.871" y2="-2.072" xlink:href="#a"/><linearGradient id="q" x1="1.663" y1="2.053" x2="-0.886" y2="-1.922" xlink:href="#a"/><linearGradient id="r" x1="1.979" y1="2.687" x2="-0.68" y2="-1.732" xlink:href="#a"/><linearGradient id="s" x1="2.425" y1="3.587" x2="-0.678" y2="-1.667" xlink:href="#a"/><linearGradient id="t" x1="2.872" y1="4.035" x2="-0.655" y2="-1.291" xlink:href="#a"/><linearGradient id="u" x1="3.603" y1="4.735" x2="-0.796" y2="-1.175" xlink:href="#a"/><linearGradient id="v" x1="3.984" y1="4.96" x2="-0.774" y2="-0.951" xlink:href="#a"/><linearGradient id="w" x1="4.358" y1="5.168" x2="-0.796" y2="-0.827" xlink:href="#a"/><linearGradient id="x" x1="5.664" y1="6.261" x2="-1.156" y2="-1.038" xlink:href="#a"/><linearGradient id="y" x1="5.383" y1="6.987" x2="-0.961" y2="-1.44" xlink:href="#a"/><linearGradient id="z" x1="-19.771" y1="0.946" x2="-22.123" y2="-1.898" xlink:href="#a"/><linearGradient id="aa" x1="-20.303" y1="0.565" x2="-22.755" y2="-2.072" xlink:href="#a"/><linearGradient id="ab" x1="-21.306" y1="1.447" x2="-23.82" y2="-1.964" xlink:href="#a"/><linearGradient id="ac" x1="-21.646" y1="2.053" x2="-24.195" y2="-1.922" xlink:href="#a"/><linearGradient id="ad" x1="-22.484" y1="2.687" x2="-25.143" y2="-1.732" xlink:href="#a"/><linearGradient id="ae" x1="-25.962" y1="3.587" x2="-29.066" y2="-1.667" xlink:href="#a"/><linearGradient id="af" x1="-29.151" y1="4.035" x2="-32.678" y2="-1.291" xlink:href="#a"/><linearGradient id="ag" x1="-35.915" y1="4.735" x2="-40.314" y2="-1.175" xlink:href="#a"/><linearGradient id="ah" x1="-38.27" y1="4.96" x2="-43.028" y2="-0.951" xlink:href="#a"/><linearGradient id="ai" x1="-40.777" y1="5.168" x2="-45.931" y2="-0.827" xlink:href="#a"/><linearGradient id="aj" x1="-53.304" y1="6.261" x2="-60.123" y2="-1.037" xlink:href="#a"/><linearGradient id="ak" x1="-48.527" y1="6.987" x2="-54.871" y2="-1.44" xlink:href="#a"/></defs><g transform="translate(-117 -100)"><g transform="translate(117 158.654)"><g transform="translate(10.812 6.812)"><path class="a" d="M347.891,471.283a100.766,100.766,0,0,1-118.375.344l11.875-16.447a80.466,80.466,0,0,0,94.528-.274Zm-116.344.347a99.6,99.6,0,0,0,114.313-.331l-10.342-14.655a81.654,81.654,0,0,1-93.712.271Z" transform="translate(-229.516 -454.906)"/></g><g transform="translate(0)"><g transform="translate(12.128 7.681)"><path class="a" d="M348.84,472.4a100.185,100.185,0,0,1-116.338.338l11.058-15.587a81.06,81.06,0,0,0,94.131-.274Z" transform="translate(-232.502 -456.877)"/></g><g transform="translate(1.401 1.231)"><path class="a" d="M226.442,448.585a83.437,83.437,0,0,1-7.327-6.345q-.981,4.529-1.546,9.248a92.659,92.659,0,0,1-9.415,2.025,99.044,99.044,0,0,0,8.721,7.551Z" transform="translate(-208.155 -442.24)"/></g><path class="a" d="M215.395,460.466a99.862,99.862,0,0,1-10.419-9.073,92.937,92.937,0,0,0,10.167-2.035,99.047,99.047,0,0,1,1.781-9.913,82.971,82.971,0,0,0,8.641,7.524Zm-7.62-7.988q3.405,3.223,7.035,6.057l8.949-11.474q-3.086-2.412-5.988-5.156-.842,4.211-1.327,8.578-4.22,1.189-8.668,2Z" transform="translate(-204.976 -439.445)"/><g transform="translate(119.41 0)"><g transform="translate(0.901 1.231)"><path class="a" d="M478.035,448.584a83.564,83.564,0,0,0,7.327-6.344q.982,4.529,1.546,9.248a92.669,92.669,0,0,0,9.415,2.025,99.047,99.047,0,0,1-8.721,7.552Z" transform="translate(-478.035 -442.24)"/></g><path class="a" d="M496.578,451.393a99.975,99.975,0,0,1-10.42,9.073l-10.17-13.5a82.889,82.889,0,0,0,8.641-7.524,99.131,99.131,0,0,1,1.782,9.912A92.757,92.757,0,0,0,496.578,451.393Zm-9.834,7.143q3.624-2.835,7.035-6.057-4.444-.8-8.668-2-.483-4.362-1.327-8.577-2.9,2.743-5.988,5.156Z" transform="translate(-475.989 -439.446)"/></g><g transform="translate(11.109 6.812)"><path class="a" d="M348.565,471.283a100.766,100.766,0,0,1-118.375.344l11.875-16.447a80.466,80.466,0,0,0,94.528-.274Zm-116.344.347a99.6,99.6,0,0,0,114.313-.331l-10.342-14.655a81.654,81.654,0,0,1-93.712.271Z" transform="translate(-230.19 -454.906)"/></g></g><g transform="translate(30.444 20.184)"><g transform="translate(0 0)"><path class="b" d="M269.709,492.913l-1.419-.616-1.409,3.251-1.7-.736,3.67-8.466,3.117,1.351c2.038.883,2.557,2.477,1.921,3.945C273.333,492.928,271.892,493.859,269.709,492.913Zm.522-1.4c.958.415,1.587.126,1.913-.626.337-.776.112-1.421-.846-1.837l-1.346-.583-1.067,2.462Z" transform="translate(-265.183 -486.346)"/><path class="b" d="M287.1,503.1l-3.8-1.192,2.764-8.8,3.632,1.14c1.841.578,2.562,1.857,2.15,3.169a2.128,2.128,0,0,1-2.134,1.547,2.236,2.236,0,0,1,1.033,2.666C290.306,503.026,288.925,503.673,287.1,503.1Zm.906-3.9-1.741-.546-.744,2.371,1.778.558c.858.27,1.493.012,1.726-.732A1.276,1.276,0,0,0,288,499.2ZM289,495.59l-1.614-.507-.693,2.207,1.614.507c.832.262,1.431.034,1.656-.685S289.829,495.85,289,495.59Z" transform="translate(-275.317 -490.126)"/><path class="b" d="M315.593,509l-3.622-.62-.9,1.63-1.915-.328,4.83-8.548,2.124.364,1.71,9.668-1.928-.33Zm-.909-5.575-1.968,3.579,2.632.451Z" transform="translate(-289.783 -494.619)"/><path class="b" d="M341.39,508.58c-.181,2.783-2.212,4.466-5.154,4.273l-3.219-.21.6-9.207,3.218.21C339.779,503.838,341.573,505.783,341.39,508.58Zm-5.117,2.7a2.76,2.76,0,0,0,3.231-2.823,2.789,2.789,0,0,0-2.834-3.259l-1.306-.085-.4,6.081Z" transform="translate(-303.129 -495.906)"/><path class="b" d="M360.422,503.925l1.967-.08-3,9.355-2.245.092-3.755-9.079,1.981-.081,2.834,7.225Z" transform="translate(-314.522 -496.135)"/><path class="b" d="M375.746,503.113l1.838-.212,1.061,9.165-1.838.212Z" transform="translate(-327.031 -495.607)"/><path class="b" d="M388.6,510.15c-1.885.346-3.523-.375-3.864-2.086l1.951-.358a1.266,1.266,0,0,0,1.6.956c.858-.157,1.282-.706,1.162-1.356-.36-1.963-4.824.079-5.415-3.213-.3-1.638.844-2.87,2.716-3.213s3.308.374,3.726,1.99l-2,.368a1.219,1.219,0,0,0-1.5-.841c-.72.105-1.189.554-1.053,1.3.334,1.82,4.8-.049,5.39,3.15C391.577,508.272,390.669,509.77,388.6,510.15Z" transform="translate(-331.641 -494.429)"/><path class="b" d="M408.279,505.11a4.726,4.726,0,1,1,3.2-5.869A4.638,4.638,0,0,1,408.279,505.11Zm-.465-1.586a3.077,3.077,0,1,0-3.581-2.161A2.791,2.791,0,0,0,407.814,503.524Z" transform="translate(-341.829 -491.653)"/><path class="b" d="M425.688,489.24c2.057-.838,3.569-.069,4.153,1.363a2.664,2.664,0,0,1-.944,3.254l3.456,2.631-1.983.808-3.242-2.562-.808.33,1.357,3.33-1.714.7-3.482-8.546Zm.517,1.445-1.432.584,1.023,2.51,1.432-.583a1.291,1.291,0,0,0,.865-1.837A1.27,1.27,0,0,0,426.2,490.685Z" transform="translate(-353.174 -487.771)"/></g></g><g transform="translate(19.259 39.151)"><path class="a" d="M370.258,551.713l-3.323-3.274,4.62-.646,2.087-4.172,2.042,4.194,4.613.7-3.357,3.238.764,4.6-4.118-2.193-4.141,2.148Z" transform="translate(-322.268 -535.591)"/><path class="a" d="M407.1,544.774l-2.539-2.5,3.53-.493,1.594-3.188,1.56,3.2,3.525.531L412.2,544.8l.584,3.516-3.146-1.675-3.164,1.641Z" transform="translate(-332.865 -532.236)"/><path class="a" d="M436.424,532.491l-1.755-1.729,2.44-.341,1.1-2.2,1.079,2.215,2.436.368-1.773,1.711.4,2.431-2.175-1.159-2.187,1.135Z" transform="translate(-339.012 -528.217)"/><path class="a" d="M345.817,547.26l2.539-2.5-3.53-.494-1.594-3.188-1.56,3.206-3.526.533,2.566,2.475-.584,3.516,3.146-1.676,3.164,1.642Z" transform="translate(-317.443 -534.72)"/><path class="a" d="M308.919,537.686l1.755-1.73-2.44-.34-1.1-2.2-1.078,2.216-2.437.367,1.774,1.711-.4,2.431,2.175-1.159,2.188,1.135Z" transform="translate(-303.616 -533.411)"/></g></g><g transform="translate(6.854 18)"><circle class="c" cx="30.003" cy="30.003" r="30.003" transform="translate(149.204 82)"/><g transform="translate(133.146 83.938)"><g transform="translate(0 0)"><path class="d" d="M1135.919,1299.894c-.908-2.644-2.448-9.212,3.234-12.375,0,0,4.343,9.834-2.616,13.422-6.506,4.355-13.013-4.2-13.013-4.2C1129.041,1293.3,1134.044,1297.82,1135.919,1299.894Z" transform="translate(-1117.056 -1238.955)"/><path class="e" d="M1158.941,1319.612c-1.42-2.408-4.245-8.534.687-12.772,0,0,6.227,8.764.128,13.674-5.5,5.571-13.591-1.51-13.591-1.51C1150.88,1314.526,1156.689,1317.956,1158.941,1319.612Z" transform="translate(-1133.186 -1252.72)"/><path class="a" d="M1123.093,1279.23c-.4-2.515-.751-8.652,4.844-10.6,0,0,2.355,9.508-4.454,11.636-6.523,2.888-11.019-5.814-11.019-5.814C1117.955,1272.229,1121.736,1277.075,1123.093,1279.23Z" transform="translate(-1109.177 -1225.499)"/><path class="f" d="M1113.02,1257.715c.04-2.451.729-8.324,6.356-9.238,0,0,.648,9.4-6.159,10.285-6.662,1.65-9.474-7.346-9.474-7.346C1109.317,1250.224,1112.093,1255.446,1113.02,1257.715Z" transform="translate(-1102.964 -1211.141)"/><path class="g" d="M1109.4,1233.932c.2-2.318,1.242-7.836,6.632-8.329,0,0-.009,8.949-6.515,9.334-6.42,1.122-8.487-7.585-8.487-7.585C1106.391,1226.591,1108.675,1231.721,1109.4,1233.932Z" transform="translate(-1101.033 -1194.846)"/><path class="h" d="M1114.187,1209.8c.584-1.9,2.448-6.326,7.042-5.768,0,0-1.618,7.479-7.125,6.63-5.568-.217-5.729-7.867-5.729-7.867C1112.991,1203.123,1113.977,1207.821,1114.187,1209.8Z" transform="translate(-1106.264 -1178.596)"/><path class="i" d="M1120.158,1187.4c.734-1.622,2.89-5.34,6.905-4.325,0,0-2.283,6.457-7.077,5.08-4.92-.824-4.2-7.634-4.2-7.634C1119.851,1181.332,1120.194,1185.616,1120.158,1187.4Z" transform="translate(-1111.519 -1162.726)"/><path class="j" d="M1129.225,1169.618c.794-1.224,3-3.97,6.123-2.655,0,0-2.641,4.949-6.354,3.246-3.882-1.27-2.461-6.7-2.461-6.7C1129.721,1164.67,1129.474,1168.18,1129.225,1169.618Z" transform="translate(-1119.018 -1150.611)"/><path class="k" d="M1137.025,1153.571c.875-1.056,3.233-3.379,6.01-1.808,0,0-3.01,4.333-6.291,2.335-3.487-1.612-1.565-6.525-1.565-6.525C1138.031,1149,1137.415,1152.256,1137.025,1153.571Z" transform="translate(-1124.983 -1139.255)"/><path class="l" d="M1146.208,1139.735c.926-.9,3.366-2.833,5.8-1.082,0,0-3.253,3.747-6.119,1.546-3.1-1.861-.8-6.26-.8-6.26C1147.612,1135.566,1146.706,1138.544,1146.208,1139.735Z" transform="translate(-1131.837 -1129.542)"/><path class="m" d="M1156.5,1130.649c.817-.59,2.92-1.808,4.606-.181,0,0-2.937,2.527-4.9.5-2.183-1.787.086-4.927.086-4.927C1158.06,1127.587,1157.024,1129.786,1156.5,1130.649Z" transform="translate(-1139.665 -1123.919)"/><path class="n" d="M1164.841,1123.559s3.559.81,6.288-4.863C1171.129,1118.7,1166.464,1117.859,1164.841,1123.559Z" transform="translate(-1146.49 -1118.653)"/><g transform="translate(62.752)"><path class="o" d="M1344.02,1299.894c.908-2.644,2.447-9.212-3.234-12.375,0,0-4.343,9.834,2.616,13.422,6.506,4.355,13.012-4.2,13.012-4.2C1350.9,1293.3,1345.894,1297.82,1344.02,1299.894Z" transform="translate(-1333.635 -1238.955)"/><path class="p" d="M1322.728,1319.612c1.42-2.408,4.244-8.534-.688-12.772,0,0-6.226,8.764-.127,13.674,5.5,5.571,13.591-1.51,13.591-1.51C1330.789,1314.526,1324.98,1317.956,1322.728,1319.612Z" transform="translate(-1319.235 -1252.72)"/><path class="q" d="M1359.571,1279.23c.4-2.515.751-8.652-4.844-10.6,0,0-2.355,9.508,4.454,11.636,6.523,2.888,11.019-5.814,11.019-5.814C1364.709,1272.229,1360.928,1277.075,1359.571,1279.23Z" transform="translate(-1344.24 -1225.499)"/><path class="r" d="M1370.184,1257.715c-.04-2.451-.729-8.324-6.356-9.238,0,0-.648,9.4,6.159,10.285,6.662,1.65,9.474-7.346,9.474-7.346C1373.886,1250.224,1371.111,1255.446,1370.184,1257.715Z" transform="translate(-1350.992 -1211.141)"/><path class="s" d="M1375.405,1233.932c-.2-2.318-1.242-7.836-6.632-8.329,0,0,.01,8.949,6.515,9.334,6.42,1.122,8.486-7.585,8.486-7.585C1378.416,1226.591,1376.133,1231.721,1375.405,1233.932Z" transform="translate(-1354.527 -1194.846)"/><path class="t" d="M1375.94,1209.8c-.584-1.9-2.448-6.326-7.042-5.768,0,0,1.618,7.479,7.125,6.63,5.568-.217,5.729-7.867,5.729-7.867C1377.136,1203.123,1376.151,1207.821,1375.94,1209.8Z" transform="translate(-1354.616 -1178.596)"/><path class="u" d="M1373.794,1187.4c-.734-1.622-2.89-5.34-6.906-4.325,0,0,2.283,6.457,7.077,5.08,4.919-.824,4.2-7.634,4.2-7.634C1374.1,1181.332,1373.757,1185.616,1373.794,1187.4Z" transform="translate(-1353.184 -1162.726)"/><path class="v" d="M1370.28,1169.618c-.793-1.224-3-3.97-6.123-2.655,0,0,2.641,4.949,6.354,3.246,3.882-1.27,2.461-6.7,2.461-6.7C1369.783,1164.67,1370.031,1168.18,1370.28,1169.618Z" transform="translate(-1351.238 -1150.611)"/><path class="w" d="M1364.176,1153.571c-.875-1.056-3.233-3.379-6.01-1.808,0,0,3.01,4.333,6.291,2.335,3.487-1.612,1.564-6.525,1.564-6.525C1363.17,1149,1363.786,1152.256,1364.176,1153.571Z" transform="translate(-1346.97 -1139.255)"/><path class="x" d="M1356.587,1139.735c-.926-.9-3.366-2.833-5.8-1.082,0,0,3.254,3.747,6.12,1.546,3.1-1.861.8-6.26.8-6.26C1355.183,1135.566,1356.089,1138.544,1356.587,1139.735Z" transform="translate(-1341.71 -1129.542)"/><path class="y" d="M1350.974,1130.649c-.817-.59-2.92-1.808-4.605-.181,0,0,2.936,2.527,4.9.5,2.183-1.787-.087-4.927-.087-4.927C1349.419,1127.587,1350.455,1129.786,1350.974,1130.649Z" transform="translate(-1338.566 -1123.919)"/><path class="z" d="M1341.552,1123.559s-3.559.81-6.288-4.863C1335.264,1118.7,1339.928,1117.859,1341.552,1123.559Z" transform="translate(-1330.654 -1118.653)"/></g></g></g><g class="aa" transform="translate(161.881 95.522)"><path class="ab" d="M-176.752,54.844a1.736,1.736,0,0,1-1.736,1.736,1.736,1.736,0,0,1-1.736-1.736,1.736,1.736,0,0,1,1.736-1.736A1.736,1.736,0,0,1-176.752,54.844Zm7.046-1.736a1.736,1.736,0,0,0-1.736,1.736,1.736,1.736,0,0,0,1.736,1.736,1.736,1.736,0,0,0,1.736-1.736A1.736,1.736,0,0,0-169.706,53.108Zm12.513.768v3.3a3,3,0,0,1-3,3h-2.176c-2.156,5.987-7.662,9.6-11.728,9.6s-9.572-3.616-11.728-9.6H-188a3,3,0,0,1-3-3v-3.3a3,3,0,0,1,1.572-2.638c.032-4.684,1.4-8.341,4.063-10.87,2.645-2.508,6.436-3.78,11.268-3.78s8.623,1.272,11.268,3.78c2.667,2.529,4.031,6.187,4.063,10.87A3,3,0,0,1-157.193,53.876Zm-6.347.979c0-.772-.04-1.5-.1-2.2-1.331-1.218-3.747-2.142-6.8-2.485a4.42,4.42,0,0,1,.956,1.822c-1.868-1.471-5.534-1.121-8.307-4.414-.159-.184-.3-.36-.415-.52l0-.005h0c-.493-.667-.662-1.064-.671-.625-.082,3.785-2.764,6.735-5.743,7.151-.019.416-.034.836-.034,1.275a13.577,13.577,0,0,0,.705,4.372c1.673,2.018,4.436,2.588,6.882,2.739a3.127,3.127,0,0,1,2.659-1.227c1.608,0,2.912.926,2.912,2.067s-1.3,2.067-2.912,2.067a3.06,3.06,0,0,1-2.713-1.321,14.339,14.339,0,0,1-5.263-1.182c2.355,3.471,6.006,5.307,8.286,5.307C-170.514,67.678-163.54,63.152-163.54,54.855Zm2.969-3.977c-.191-8.173-4.856-12.49-13.526-12.49s-13.335,4.317-13.526,12.49h1.154a14.4,14.4,0,0,1,2.667-6.762c2.157-2.776,5.422-4.183,9.7-4.183s7.547,1.407,9.7,4.183a14.4,14.4,0,0,1,2.667,6.762Z" transform="translate(191 -36.588)"/></g></g></g></svg>