<svg xmlns="http://www.w3.org/2000/svg" width="22" height="21.999" viewBox="0 0 22 21.999"><defs><style>.a{fill:none;}.b{fill:#ffc500;}</style></defs><g transform="translate(0)"><path class="a" d="M0,0H22V22H0Z"/><g transform="translate(0 -100.751)"><g transform="translate(0 106.667)"><g transform="translate(0 0)"><path class="b" d="M17.874,108.5a4.044,4.044,0,0,1,1.642.358.458.458,0,0,0,.643-.44,1.828,1.828,0,0,0-1.827-1.751H1.833A1.835,1.835,0,0,0,0,108.5v4.583a1.835,1.835,0,0,0,1.833,1.833H12.375a.458.458,0,0,0,.458-.458V114a1.84,1.84,0,0,1,.774-1.49.458.458,0,0,0,.189-.324A4.107,4.107,0,0,1,17.874,108.5ZM4.231,110.853a.458.458,0,0,1-.458.794l-.107-.061v.123a.458.458,0,1,1-.917,0v-.123l-.107.061a.458.458,0,1,1-.458-.794l.106-.061-.106-.061a.458.458,0,1,1,.458-.794L2.75,110v-.123a.458.458,0,1,1,.917,0V110l.107-.061a.458.458,0,1,1,.458.794l-.106.061Zm3.667,0a.458.458,0,0,1-.458.794l-.107-.061v.123a.458.458,0,1,1-.917,0v-.123l-.107.061a.458.458,0,1,1-.458-.794l.106-.061-.106-.061a.458.458,0,1,1,.458-.794l.107.061v-.123a.458.458,0,1,1,.917,0V110l.107-.061a.458.458,0,1,1,.458.794l-.106.061Zm3.667,0a.458.458,0,0,1-.458.794L11,111.586v.123a.458.458,0,1,1-.917,0v-.123l-.107.061a.458.458,0,1,1-.458-.794l.106-.061-.106-.061a.458.458,0,1,1,.458-.794l.107.061v-.123a.458.458,0,1,1,.917,0V110l.107-.061a.458.458,0,1,1,.458.794l-.106.061Z" transform="translate(0 -106.667)"/><path class="b" d="M327.333,174.333v-.458a3.208,3.208,0,1,0-6.416,0v.458a.918.918,0,0,0-.917.917v4.583a.918.918,0,0,0,.917.917h6.416a.918.918,0,0,0,.917-.917v-4.583A.918.918,0,0,0,327.333,174.333Zm-2.75,3.526v.6a.458.458,0,1,1-.917,0v-.6a.9.9,0,0,1-.458-.776.917.917,0,0,1,1.833,0A.9.9,0,0,1,324.583,177.858Zm.917-3.526h-2.75v-.458a1.375,1.375,0,1,1,2.75,0Z" transform="translate(-306.25 -167.916)"/></g></g></g></g></svg>