<svg xmlns="http://www.w3.org/2000/svg" xmlns:xlink="http://www.w3.org/1999/xlink" width="125.999" height="108.054" viewBox="0 0 125.999 108.054"><defs><style>.a{fill:#92e3a9;}.a,.b,.d,.h,.i,.j,.k,.m,.n{stroke:#263238;}.a,.d,.h,.i,.j,.k,.m,.n{stroke-linecap:round;stroke-linejoin:round;}.b,.d,.q{fill:none;}.b,.j,.k,.n{stroke-width:0.5px;}.c{opacity:0.12;fill:url(#a);}.e,.n{fill:#6fc8c2;}.f{clip-path:url(#b);}.g,.k,.m{fill:#fff;}.g{opacity:0.4;}.h{fill:#0065ff;}.i,.j{fill:#999;}.l{fill:#263238;}.n{opacity:0.5;}.o{clip-path:url(#c);}.p{stroke:none;}</style><linearGradient id="a" x1="0.5" x2="0.5" y2="1" gradientUnits="objectBoundingBox"><stop offset="0" stop-color="#fff"/><stop offset="1" stop-color="#6fc8c2"/></linearGradient><clipPath id="b"><path class="a" d="M203.693,46.166h0a2.112,2.112,0,0,1-2.156,1.72H190.2a2.112,2.112,0,0,1-2.156-1.72h0a2.112,2.112,0,0,0-2.156-1.72h-7.974a2.079,2.079,0,0,0-2.174,1.968v70.56a2.079,2.079,0,0,0,2.174,1.968H214.2a2.079,2.079,0,0,0,2.174-1.968V46.414a2.079,2.079,0,0,0-2.174-1.968h-8.348A2.112,2.112,0,0,0,203.693,46.166Z" transform="translate(-175.739 -44.446)"/></clipPath><clipPath id="c"><circle class="b" cx="8.544" cy="8.544" r="8.544"/></clipPath></defs><g transform="translate(-538 -246.5)"><path class="c" d="M77.009,173.107a63.9,63.9,0,0,1-63-53.108h126a63.339,63.339,0,0,1-7.563,21.018,63.817,63.817,0,0,1-55.436,32.089Z" transform="translate(523.991 181.446)"/><g transform="translate(531.795 225)"><g transform="translate(46.705 22)"><rect class="d" width="43.862" height="78" rx="4" transform="translate(1.418)"/><g transform="translate(3.033 1.752)"><path class="e" d="M203.693,46.166h0a2.112,2.112,0,0,1-2.156,1.72H190.2a2.112,2.112,0,0,1-2.156-1.72h0a2.112,2.112,0,0,0-2.156-1.72h-7.974a2.079,2.079,0,0,0-2.174,1.968v70.56a2.079,2.079,0,0,0,2.174,1.968H214.2a2.079,2.079,0,0,0,2.174-1.968V46.414a2.079,2.079,0,0,0-2.174-1.968h-8.348A2.112,2.112,0,0,0,203.693,46.166Z" transform="translate(-175.739 -44.446)"/><g class="f"><path class="g" d="M185.084,110.451H171.826l31.963-85.183h13.259Z" transform="translate(-173.118 -31)"/><path class="g" d="M232.918,110.451h-3.525l31.963-85.183h3.525Z" transform="translate(-211.679 -31)"/></g><path class="d" d="M203.693,46.166h0a2.112,2.112,0,0,1-2.156,1.72H190.2a2.112,2.112,0,0,1-2.156-1.72h0a2.112,2.112,0,0,0-2.156-1.72h-7.974a2.079,2.079,0,0,0-2.174,1.968v70.56a2.079,2.079,0,0,0,2.174,1.968H214.2a2.079,2.079,0,0,0,2.174-1.968V46.414a2.079,2.079,0,0,0-2.174-1.968h-8.348A2.112,2.112,0,0,0,203.693,46.166Z" transform="translate(-175.739 -44.446)"/></g><path class="h" d="M221.266,45.729a.927.927,0,1,1-.927-.927A.927.927,0,0,1,221.266,45.729Z" transform="translate(-201.888 -42.941)"/><path class="i" d="M236.641,44.918h-4.653a.892.892,0,1,0,0,1.783h4.653a.892.892,0,1,0,0-1.783Z" transform="translate(-209.591 -43.021)"/><path class="j" d="M228.683,280.865h-8.959a.927.927,0,0,0,0,1.855h8.959a.927.927,0,1,0,0-1.855Z" transform="translate(-201.19 -208.549)"/><rect class="k" width="48" height="10.158" transform="translate(0 28.383)"/><g transform="translate(2.773 31.592)"><path class="l" d="M177.569,147.357l-.728-.555.119.893a.4.4,0,0,1-.4.458h0a.4.4,0,0,1-.4-.458l.12-.893-.728.555a.4.4,0,0,1-.594-.118l-.01-.017a.4.4,0,0,1,.193-.576l.836-.351-.836-.351a.4.4,0,0,1-.193-.576l.01-.018a.4.4,0,0,1,.594-.118l.728.556-.12-.893a.4.4,0,0,1,.4-.458h0a.4.4,0,0,1,.4.458l-.119.893.728-.556a.4.4,0,0,1,.594.118l.01.018a.4.4,0,0,1-.193.576l-.836.351.836.351a.4.4,0,0,1,.193.576l-.01.017A.4.4,0,0,1,177.569,147.357Z" transform="translate(-174.89 -144.437)"/><g transform="translate(7.022)"><path class="l" d="M198.776,147.357l-.728-.555.119.893a.4.4,0,0,1-.4.458h0a.4.4,0,0,1-.4-.458l.12-.893-.729.555a.4.4,0,0,1-.594-.118l-.01-.017a.4.4,0,0,1,.193-.576l.836-.351-.836-.351a.4.4,0,0,1-.193-.576l.01-.018a.4.4,0,0,1,.594-.118l.728.556-.12-.893a.4.4,0,0,1,.4-.458h0a.4.4,0,0,1,.4.458l-.119.893.728-.556a.4.4,0,0,1,.594.118l.01.018a.4.4,0,0,1-.193.576l-.836.351.836.351a.4.4,0,0,1,.193.576l-.01.017A.4.4,0,0,1,198.776,147.357Z" transform="translate(-196.097 -144.437)"/></g><g transform="translate(14.044)"><path class="l" d="M219.982,147.357l-.728-.555.12.893a.4.4,0,0,1-.4.458h0a.4.4,0,0,1-.4-.458l.119-.893-.728.555a.4.4,0,0,1-.594-.118l-.01-.017a.4.4,0,0,1,.193-.576l.836-.351-.836-.351a.4.4,0,0,1-.193-.576l.01-.018a.4.4,0,0,1,.594-.118l.728.556-.119-.893a.4.4,0,0,1,.4-.458h0a.4.4,0,0,1,.4.458l-.12.893.728-.556a.4.4,0,0,1,.594.118l.01.018a.4.4,0,0,1-.193.576l-.836.351.836.351a.4.4,0,0,1,.193.576l-.01.017A.4.4,0,0,1,219.982,147.357Z" transform="translate(-217.304 -144.437)"/></g><g transform="translate(21.067)"><path class="l" d="M241.189,147.357l-.728-.555.119.893a.4.4,0,0,1-.4.458h0a.4.4,0,0,1-.4-.458l.119-.893-.728.555a.4.4,0,0,1-.594-.118l-.01-.017a.4.4,0,0,1,.192-.576l.836-.351-.836-.351a.4.4,0,0,1-.193-.576l.01-.018a.4.4,0,0,1,.594-.118l.728.556-.119-.893a.4.4,0,0,1,.4-.458h0a.4.4,0,0,1,.4.458l-.119.893.728-.556a.4.4,0,0,1,.594.118l.01.018a.4.4,0,0,1-.193.576l-.836.351.836.351a.4.4,0,0,1,.193.576l-.01.017A.4.4,0,0,1,241.189,147.357Z" transform="translate(-238.51 -144.437)"/></g><g transform="translate(28.089)"><path class="l" d="M262.4,147.357l-.728-.555.119.893a.4.4,0,0,1-.4.458h0a.4.4,0,0,1-.4-.458l.119-.893-.728.555a.4.4,0,0,1-.594-.118l-.01-.017a.4.4,0,0,1,.193-.576l.836-.351-.836-.351a.4.4,0,0,1-.193-.576l.01-.018a.4.4,0,0,1,.594-.118l.728.556-.119-.893a.4.4,0,0,1,.4-.458h0a.4.4,0,0,1,.4.458l-.119.893.728-.556a.4.4,0,0,1,.594.118l.01.018a.4.4,0,0,1-.193.576l-.836.351.836.351a.4.4,0,0,1,.193.576l-.01.017A.4.4,0,0,1,262.4,147.357Z" transform="translate(-259.717 -144.437)"/></g><g transform="translate(36.54 0.203)"><path class="m" d="M290.53,146.754a3.47,3.47,0,0,1-5.915,0,3.47,3.47,0,0,1,5.915,0Z" transform="translate(-284.615 -145.099)"/><path class="i" d="M292.98,148.2a1.016,1.016,0,1,1-1.016-1.016A1.016,1.016,0,0,1,292.98,148.2Z" transform="translate(-289.007 -146.543)"/></g></g><g transform="translate(4.874 42.506)"><rect class="n" width="5.124" height="5.899" rx="2"/><rect class="n" width="5.124" height="5.899" rx="2" transform="translate(6.293)"/><rect class="n" width="5.124" height="5.899" rx="2" transform="translate(12.585)"/><rect class="n" width="5.124" height="5.899" rx="2" transform="translate(18.878)"/><rect class="n" width="5.124" height="5.899" rx="2" transform="translate(25.17)"/><rect class="n" width="5.124" height="5.899" rx="2" transform="translate(31.463)"/><rect class="n" width="5.124" height="5.899" rx="2" transform="translate(2.856 6.836)"/><rect class="n" width="5.124" height="5.899" rx="2" transform="translate(9.439 6.836)"/><rect class="n" width="5.124" height="5.899" rx="2" transform="translate(15.732 6.836)"/><rect class="n" width="5.124" height="5.899" rx="2" transform="translate(22.024 6.836)"/><rect class="n" width="5.124" height="5.899" rx="2" transform="translate(28.607 6.836)"/><rect class="n" width="5.124" height="5.899" rx="2" transform="translate(0 13.672)"/><rect class="n" width="5.124" height="5.899" rx="2" transform="translate(6.293 13.672)"/><rect class="n" width="5.124" height="5.899" rx="2" transform="translate(12.585 13.672)"/><rect class="n" width="5.124" height="5.899" rx="2" transform="translate(18.878 13.672)"/><rect class="n" width="5.124" height="5.899" rx="2" transform="translate(25.17 13.672)"/><rect class="n" width="5.124" height="5.899" rx="2" transform="translate(31.463 13.672)"/><rect class="n" width="5.124" height="5.899" rx="2" transform="translate(2.856 20.507)"/><rect class="n" width="5.124" height="5.899" rx="2" transform="translate(9.439 20.507)"/><rect class="n" width="5.124" height="5.899" rx="2" transform="translate(15.732 20.507)"/><rect class="n" width="5.124" height="5.899" rx="2" transform="translate(22.024 20.507)"/><rect class="n" width="5.124" height="5.899" rx="2" transform="translate(28.607 20.507)"/></g><g transform="translate(14.778 9.665)"><g class="b"><circle class="p" cx="8.544" cy="8.544" r="8.544"/><circle class="q" cx="8.544" cy="8.544" r="8.294"/></g></g></g></g></g></svg>