<svg xmlns="http://www.w3.org/2000/svg" width="34" height="34" viewBox="0 0 34 34"><defs><style>.a{fill:rgba(0,92,82,0.3);}.b{fill:none;}.c{fill:#005c52;}</style></defs><g transform="translate(-37.212 -216.212)"><rect class="a" width="34" height="34" rx="8" transform="translate(37.212 216.212)"/><rect class="b" width="22" height="22" transform="translate(43.213 222.213)"/><path class="c" d="M18.586,15.867a12.192,12.192,0,0,0-2.547-1.7c-.763-.367-1.043-.359-1.583.03-.45.325-.741.627-1.258.514a7.506,7.506,0,0,1-2.528-1.87A7.452,7.452,0,0,1,8.8,10.309c-.11-.521.193-.809.514-1.258.389-.54.4-.82.03-1.583a11.951,11.951,0,0,0-1.7-2.547c-.555-.555-.68-.435-.986-.325a5.612,5.612,0,0,0-.9.48A2.724,2.724,0,0,0,4.665,6.22c-.215.465-.465,1.33.8,3.59a20.03,20.03,0,0,0,3.522,4.7h0l0,0,0,0H9a20.109,20.109,0,0,0,4.7,3.522c2.26,1.27,3.125,1.02,3.59.8a2.678,2.678,0,0,0,1.145-1.084,5.612,5.612,0,0,0,.48-.9C19.021,16.548,19.145,16.423,18.586,15.867Z" transform="translate(42.97 221.957)"/></g></svg>