<svg xmlns="http://www.w3.org/2000/svg" width="34" height="34" viewBox="0 0 34 34"><defs><style>.a{fill:#defbff;}.b{fill:none;}.c{fill:#00ceff;}</style></defs><g transform="translate(-37.212 -216.212)"><rect class="a" width="34" height="34" rx="8" transform="translate(37.212 216.212)"/><rect class="b" width="22" height="22" transform="translate(43.213 222.213)"/><path class="c" d="M15.444,3.556h-.778V2.778a.778.778,0,1,0-1.556,0v.778H6.889V2.778a.778.778,0,1,0-1.556,0v.778H4.556A1.548,1.548,0,0,0,3.008,5.111L3,16a1.555,1.555,0,0,0,1.556,1.556H15.444A1.56,1.56,0,0,0,17,16V5.111A1.56,1.56,0,0,0,15.444,3.556Zm0,11.667a.78.78,0,0,1-.778.778H5.333a.78.78,0,0,1-.778-.778V7.444H15.444ZM6.111,9H7.667v1.556H6.111ZM9.222,9h1.556v1.556H9.222Zm3.111,0h1.556v1.556H12.333Z" transform="translate(44.213 223.213)"/></g></svg>