<svg xmlns="http://www.w3.org/2000/svg" width="44.641" height="42.744" viewBox="0 0 44.641 42.744"><defs><style>.a{fill:#0065ff;stroke:#0062f8;}</style></defs><g transform="translate(0.5 -0.5)"><g transform="translate(0 20.964)"><path class="a" d="M28.132,13.315H.907a.907.907,0,0,1,0-1.815H28.132a.907.907,0,0,1,0,1.815Z" transform="translate(0 -11.5)"/></g><g transform="translate(21.123 13.706)"><path class="a" d="M11.908,23.834a.907.907,0,0,1-.642-1.548l6.619-6.619L11.267,9.049A.907.907,0,1,1,12.55,7.766l7.26,7.26a.908.908,0,0,1,0,1.283l-7.26,7.26A.911.911,0,0,1,11.908,23.834Z" transform="translate(-11 -7.501)"/></g><g transform="translate(2.903 1)"><path class="a" d="M21.4,42.744A20.964,20.964,0,0,1,1.654,28.83a.952.952,0,0,1,1.8-.632,18.978,18.978,0,1,0,0-12.65.952.952,0,0,1-1.8-.632A20.926,20.926,0,1,1,21.4,42.744Z" transform="translate(-1.599 -1)"/></g></g></svg>