<svg xmlns="http://www.w3.org/2000/svg" width="16.95" height="16.256" viewBox="0 0 16.95 16.256"><defs><style>.a{fill:#0065ff;stroke:#0062f8;}</style></defs><g transform="translate(0.5 -0.5)"><g transform="translate(0 8.297)"><path class="a" d="M10.281,12.163H.332a.332.332,0,0,1,0-.663h9.95a.332.332,0,0,1,0,.663Z" transform="translate(0 -11.5)"/></g><g transform="translate(7.72 5.644)"><path class="a" d="M11.332,13.47A.331.331,0,0,1,11.1,12.9l2.419-2.419L11.1,8.067a.332.332,0,0,1,.469-.469l2.653,2.653a.332.332,0,0,1,0,.469l-2.653,2.653A.333.333,0,0,1,11.332,13.47Z" transform="translate(-11 -7.501)"/></g><g transform="translate(1.061 1)"><path class="a" d="M8.835,16.256a7.662,7.662,0,0,1-7.216-5.085.348.348,0,0,1,.656-.231,6.936,6.936,0,1,0,0-4.623.348.348,0,0,1-.656-.231,7.648,7.648,0,1,1,7.215,10.17Z" transform="translate(-1.599 -1)"/></g></g></svg>