<svg xmlns="http://www.w3.org/2000/svg" width="112" height="142" viewBox="0 0 112 142"><defs><style>.a{fill:#1ae5be;}.b{fill:#0065ff;}.c{fill:#d4e1f4;}</style></defs><g transform="translate(-0.055 0)"><path class="a" d="M96.645,178.151a2.668,2.668,0,0,1-2.034-.937L80.483,160.67a2.675,2.675,0,0,1,4.069-3.475l12.431,14.558,30.875-25.119a2.675,2.675,0,0,1,3.376,4.149l-32.9,26.768A2.662,2.662,0,0,1,96.645,178.151Zm0,0" transform="translate(-48.943 -90.71)"/><path class="b" d="M46.75,138.64l7.3,3.139a2.72,2.72,0,0,0,2.142,0l8.221-3.505a76.756,76.756,0,0,0,47.646-70.769V31.1a2.654,2.654,0,0,0-1.425-2.346L56.572.313a2.716,2.716,0,0,0-2.559.015L1.451,28.766A2.652,2.652,0,0,0,.055,31.1V68.244A76.889,76.889,0,0,0,46.75,138.64ZM5.437,32.67,55.324,5.676l51.348,27.013V67.507A71.456,71.456,0,0,1,62.3,133.388l-.02.009-7.158,3.051-6.22-2.679A71.57,71.57,0,0,1,5.436,68.244Zm0,0" transform="translate(0 0)"/><path class="c" d="M82.542,162.01l-.018.007-7.169,3.073-6.229-2.7A72.052,72.052,0,0,1,25.6,96.437V69.629L14.051,75.911V111.72a72.052,72.052,0,0,0,43.527,65.958l6.227,2.7,7.169-3.073.018-.007a72.549,72.549,0,0,0,35.226-31.241A73,73,0,0,1,82.542,162.01Zm0,0" transform="translate(-8.648 -43.963)"/></g></svg>