<svg xmlns="http://www.w3.org/2000/svg" width="34" height="34" viewBox="0 0 34 34"><defs><style>.a{fill:#d0fcd7;}.b,.c{fill:none;}.c,.d{stroke:#37cc4f;stroke-linecap:round;stroke-linejoin:round;}.d{fill:#e0ffe5;}</style></defs><g transform="translate(-37.212 -216.212)"><rect class="a" width="34" height="34" rx="8" transform="translate(37.212 216.212)"/><g transform="translate(-0.787 -43.787)"><rect class="b" width="18" height="18" transform="translate(45 269)"/><g transform="translate(45 269)"><line class="c" y2="6.107" transform="translate(9 8.036)"/><path class="c" d="M186.91,217.632a1.612,1.612,0,0,1-1.607,1.607h0a1.612,1.612,0,0,1-1.607-1.607v-2.571" transform="translate(-174.696 -201.239)"/><line class="c" y2="1.5" transform="translate(9)"/><path class="d" d="M172.589,202.632a2.887,2.887,0,0,1,2.4,1.286h.935a3.188,3.188,0,0,1,5.537,0h.934a2.891,2.891,0,0,1,4.809,0h.489c0-4.971-4.029-8.357-9-8.357s-9,3.387-9,8.357h.489A2.888,2.888,0,0,1,172.589,202.632Z" transform="translate(-169.696 -194.275)"/></g></g></g></svg>