<svg xmlns="http://www.w3.org/2000/svg" width="34" height="34" viewBox="0 0 34 34"><defs><style>.a{fill:#fcf2d0;}.b{fill:none;}.c{fill:#ffc500;}</style></defs><g transform="translate(-37.212 -216.212)"><rect class="a" width="34" height="34" rx="8" transform="translate(37.212 216.212)"/><rect class="b" width="22" height="22" transform="translate(43.213 222.213)"/><g transform="translate(44.213 223.213)"><g transform="translate(2 2)"><path class="c" d="M10,2a8,8,0,1,0,8,8A8.024,8.024,0,0,0,10,2Zm2.84,11.04L9.576,11.032a.789.789,0,0,1-.384-.68V6.6A.617.617,0,0,1,9.8,6a.6.6,0,0,1,.6.6v3.56l3.072,1.848a.605.605,0,1,1-.632,1.032Z" transform="translate(-2 -2)"/></g></g></g></svg>